<svg width="32" height="28" viewBox="0 0 32 28" fill="none" xmlns="http://www.w3.org/2000/svg">
<path d="M0.034 14.369C0.388 21.706 7.403 27.5862 16 27.5862C24.597 27.5862 31.612 21.706 31.966 14.369C31.9871 14.3228 31.9986 14.2738 32 14.2241C32 14.1931 31.987 14.1664 31.98 14.1379C31.983 14.0224 32 13.9095 32 13.7931C32 6.18793 24.822 0 16 0C7.178 0 0 6.18793 0 13.7931C0 13.9095 0.017 14.0224 0.02 14.1379C0.013 14.1664 0 14.1931 0 14.2241C0 14.2759 0.015 14.3233 0.034 14.369ZM24.921 19.6052C23.5622 19.1189 22.1501 18.7519 20.706 18.5095C20.864 17.2569 20.957 15.956 20.986 14.656H25.966C25.875 16.4267 25.51 18.0983 24.921 19.6052ZM26.965 14.6552H30.949C30.7727 17.0023 29.8515 19.2625 28.286 21.1888C27.5083 20.717 26.6865 20.3018 25.829 19.9474C26.474 18.3362 26.871 16.5483 26.965 14.6552ZM12.389 19.2121C13.5835 19.0496 14.7908 18.9672 16 18.9655C17.224 18.9655 18.433 19.0534 19.61 19.2121C18.916 23.8112 17.4 26.7241 16 26.7241C14.6 26.7241 13.084 23.8112 12.389 19.2121ZM13.908 26.4345C11.157 25.6741 8.83 23.4422 7.426 20.4138C8.71203 19.9501 10.0487 19.5986 11.416 19.3647C11.875 22.3784 12.714 25.0043 13.908 26.4345ZM12.274 9.2319C13.5067 9.39741 14.7524 9.48128 16 9.48276C17.2476 9.48128 18.4933 9.39741 19.726 9.2319C19.898 10.6284 20 12.1526 20 13.7931H12C12 12.1526 12.102 10.6284 12.274 9.2319ZM19.985 14.6552C19.9611 15.8909 19.8744 17.1251 19.725 18.3543C18.4926 18.1887 17.2473 18.1049 16 18.1034C14.7524 18.1049 13.5067 18.1888 12.274 18.3543C12.1242 17.1252 12.0374 15.8909 12.014 14.6552H19.985ZM20.585 19.3647C21.989 19.6078 23.328 19.9612 24.575 20.4138C23.171 23.4422 20.844 25.6741 18.093 26.4345C19.286 25.0043 20.125 22.3784 20.585 19.3647ZM21 13.7931C21 12.2103 20.898 10.6069 20.706 9.07759C22.186 8.82586 23.602 8.4569 24.921 7.9819C25.605 9.73103 26 11.7017 26 13.7931H21ZM20.585 8.22155C20.125 5.20776 19.287 2.58103 18.092 1.15172C20.843 1.91207 23.17 4.14397 24.574 7.17241C23.2885 7.63649 21.9521 7.98797 20.585 8.22155ZM19.611 8.37414C18.433 8.53276 17.224 8.62069 16 8.62069C14.776 8.62069 13.567 8.53276 12.389 8.37414C13.084 3.775 14.6 0.862069 16 0.862069C17.4 0.862069 18.916 3.775 19.611 8.37414ZM11.415 8.22155C10.0477 7.98745 8.71108 7.63599 7.425 7.17241C8.829 4.14397 11.156 1.91207 13.907 1.15172C12.714 2.5819 11.875 5.20776 11.415 8.22155ZM11.294 9.07759C11.0987 10.6438 11.0005 12.2179 11 13.7931H6C6 11.7017 6.395 9.73103 7.079 7.98103C8.398 8.4569 9.814 8.825 11.294 9.07759ZM11.014 14.6552C11.043 15.9552 11.136 17.256 11.294 18.5095C9.814 18.7612 8.398 19.1302 7.079 19.6052C6.49 18.0983 6.125 16.4267 6.034 14.6552H11.014ZM6.17 19.9474C5.31303 20.3021 4.49156 20.7173 3.714 21.1888C2.14837 19.2625 1.22714 17.0023 1.051 14.6552H5.035C5.129 16.5483 5.526 18.3362 6.17 19.9474ZM4.313 21.8793C5.01286 21.4544 5.75086 21.0782 6.52 20.7543C7.524 22.8966 8.969 24.675 10.706 25.8776C8.2001 25.0592 5.9931 23.6789 4.313 21.8793ZM21.294 25.8767C23.032 24.675 24.476 22.8957 25.48 20.7534C26.27 21.0845 27.002 21.4655 27.687 21.8784C26.0075 23.6786 23.8003 25.059 21.294 25.8767ZM27 13.7931C27 11.5802 26.572 9.49397 25.83 7.63879C26.71 7.275 27.528 6.8569 28.287 6.39741C30.0532 8.56298 31.0007 11.1458 31 13.7931H27ZM27.688 5.7069C27.003 6.11983 26.271 6.50086 25.481 6.8319C24.477 4.68966 23.032 2.91034 21.295 1.70862C23.8006 2.52742 26.0075 3.90763 27.688 5.7069ZM10.706 1.70948C8.968 2.91121 7.524 4.69052 6.52 6.83276C5.75092 6.50842 5.01294 6.13195 4.313 5.7069C5.99289 3.90728 8.19998 2.52722 10.706 1.70948ZM3.714 6.39741C4.49143 6.86906 5.31291 7.28427 6.17 7.63879C5.38791 9.62034 4.99255 11.7 5 13.7931H1C1 11.0431 2.009 8.49569 3.714 6.39741Z" fill="#EA433A"/>
</svg>
