<svg width="9" height="17" viewBox="0 0 9 17" fill="none" xmlns="http://www.w3.org/2000/svg">
<mask id="path-1-inside-1_152_387" fill="white">
<path d="M1.78341 0.332737L8.77189 7.7839C8.85484 7.87261 8.91346 7.9687 8.94774 8.07219C8.98258 8.17568 9 8.28656 9 8.40483C9 8.52311 8.98258 8.63399 8.94774 8.73747C8.91346 8.84096 8.85484 8.93706 8.77189 9.02576L1.78341 16.4991C1.58986 16.7061 1.34793 16.8096 1.0576 16.8096C0.767282 16.8096 0.518434 16.6987 0.31106 16.4769C0.103687 16.2552 0 15.9964 0 15.7008C0 15.4051 0.103687 15.1464 0.31106 14.9246L6.40783 8.40483L0.31106 1.88506C0.117512 1.67809 0.0207376 1.42321 0.0207376 1.12043C0.0207376 0.817063 0.124424 0.554499 0.331798 0.332737C0.53917 0.110975 0.781106 9.53674e-05 1.0576 9.53674e-05C1.3341 9.53674e-05 1.57604 0.110975 1.78341 0.332737Z"/>
</mask>
<path d="M1.78341 0.332737L8.77189 7.7839C8.85484 7.87261 8.91346 7.9687 8.94774 8.07219C8.98258 8.17568 9 8.28656 9 8.40483C9 8.52311 8.98258 8.63399 8.94774 8.73747C8.91346 8.84096 8.85484 8.93706 8.77189 9.02576L1.78341 16.4991C1.58986 16.7061 1.34793 16.8096 1.0576 16.8096C0.767282 16.8096 0.518434 16.6987 0.31106 16.4769C0.103687 16.2552 0 15.9964 0 15.7008C0 15.4051 0.103687 15.1464 0.31106 14.9246L6.40783 8.40483L0.31106 1.88506C0.117512 1.67809 0.0207376 1.42321 0.0207376 1.12043C0.0207376 0.817063 0.124424 0.554499 0.331798 0.332737C0.53917 0.110975 0.781106 9.53674e-05 1.0576 9.53674e-05C1.3341 9.53674e-05 1.57604 0.110975 1.78341 0.332737Z" fill="#EA433A"/>
<path d="M8.77189 7.7839L12.4239 4.36882L12.4188 4.36341L8.77189 7.7839ZM8.94774 8.07219L4.20144 9.64464L4.20522 9.65605L4.20905 9.66744L8.94774 8.07219ZM8.94774 8.73747L4.20905 7.14223L4.20522 7.15361L4.20144 7.16502L8.94774 8.73747ZM8.77189 9.02576L12.4239 12.4408L8.77189 9.02576ZM1.78341 16.4991L-1.86861 13.084L1.78341 16.4991ZM0.31106 14.9246L3.96308 18.3397L3.96308 18.3397L0.31106 14.9246ZM6.40783 8.40483L10.0599 11.8199L13.2534 8.40483L10.0599 4.98975L6.40783 8.40483ZM0.31106 1.88506L3.96308 -1.53002H3.96308L0.31106 1.88506ZM-1.86354 3.75323L5.12494 11.2044L12.4188 4.36341L5.43036 -3.08775L-1.86354 3.75323ZM5.11987 11.199C4.76581 10.8204 4.41916 10.3018 4.20144 9.64464L13.694 6.49974C13.4078 5.63559 12.9439 4.92486 12.4239 4.36882L5.11987 11.199ZM4.20905 9.66744C4.05703 9.21586 4 8.78392 4 8.40483H14C14 7.7892 13.9081 7.1355 13.6864 6.47694L4.20905 9.66744ZM4 8.40483C4 8.02574 4.05703 7.59381 4.20905 7.14223L13.6864 10.3327C13.9081 9.67416 14 9.02047 14 8.40483H4ZM4.20144 7.16502C4.41915 6.50787 4.76579 5.98933 5.11987 5.61069L12.4239 12.4408C12.9439 11.8848 13.4078 11.1741 13.694 10.3099L4.20144 7.16502ZM5.11987 5.61069L-1.86861 13.084L5.43543 19.9142L12.4239 12.4408L5.11987 5.61069ZM-1.86861 13.084C-1.5285 12.7203 -1.07431 12.3764 -0.509616 12.1349C0.0523281 11.8945 0.596958 11.8096 1.0576 11.8096L1.0576 21.8096C2.69374 21.8096 4.27048 21.16 5.43543 19.9142L-1.86861 13.084ZM1.0576 11.8096C1.56681 11.8096 2.13075 11.9109 2.68823 12.1593C3.24069 12.4054 3.66251 12.7404 3.96308 13.0618L-3.34096 19.892C-2.23687 21.0727 -0.686757 21.8096 1.0576 21.8096L1.0576 11.8096ZM3.96308 13.0618C4.24469 13.363 4.52047 13.7614 4.71892 14.2565C4.91829 14.754 5 15.2506 5 15.7008L-5 15.7008C-5 17.3018 -4.38872 18.7715 -3.34096 19.892L3.96308 13.0618ZM5 15.7008C5 16.1509 4.91829 16.6475 4.71892 17.145C4.52047 17.6402 4.24469 18.0385 3.96308 18.3397L-3.34096 11.5095C-4.38872 12.63 -5 14.0998 -5 15.7008L5 15.7008ZM3.96308 18.3397L10.0599 11.8199L2.75582 4.98975L-3.34096 11.5095L3.96308 18.3397ZM10.0599 4.98975L3.96308 -1.53002L-3.34096 5.30014L2.75582 11.8199L10.0599 4.98975ZM3.96308 -1.53002C4.2927 -1.17752 4.57614 -0.740702 4.76772 -0.236151C4.95712 0.262682 5.02074 0.73221 5.02074 1.12043L-4.97926 1.12043C-4.97926 2.59613 -4.46354 4.09967 -3.34096 5.30014L3.96308 -1.53002ZM5.02074 1.12043C5.02074 1.55014 4.94485 2.03656 4.74902 2.53247C4.55322 3.0283 4.27652 3.4348 3.98382 3.74782L-3.32022 -3.08234C-4.39295 -1.93518 -4.97926 -0.452188 -4.97926 1.12043L5.02074 1.12043ZM3.98382 3.74782C3.70522 4.04574 3.29994 4.37748 2.75195 4.62863C2.19368 4.88448 1.60964 5.0001 1.0576 5.0001L1.0576 -4.9999C-0.747094 -4.9999 -2.27041 -4.20499 -3.32022 -3.08234L3.98382 3.74782ZM1.0576 5.0001C0.505565 5.0001 -0.078475 4.88448 -0.636742 4.62863C-1.18473 4.37748 -1.59002 4.04574 -1.86861 3.74782L5.43543 -3.08234C4.38562 -4.20499 2.8623 -4.9999 1.0576 -4.9999L1.0576 5.0001Z" fill="#EA433A" mask="url(#path-1-inside-1_152_387)"/>
</svg>
