<svg width="165" height="47" viewBox="0 0 165 47" fill="none" xmlns="http://www.w3.org/2000/svg">
<rect width="165" height="47" rx="10" fill="#005CFF"/>
<path d="M31.321 32V14.5455H38.5994C39.9063 14.5455 41 14.7301 41.8807 15.0994C42.767 15.4687 43.4318 15.9858 43.875 16.6506C44.3239 17.3153 44.5483 18.0852 44.5483 18.9602C44.5483 19.625 44.4091 20.2188 44.1307 20.7415C43.8523 21.2585 43.4688 21.6875 42.9801 22.0284C42.4915 22.3693 41.9261 22.608 41.2841 22.7443V22.9148C41.9886 22.9489 42.6392 23.1392 43.2358 23.4858C43.8381 23.8324 44.321 24.3153 44.6847 24.9347C45.0483 25.5483 45.2301 26.2756 45.2301 27.1165C45.2301 28.054 44.9915 28.892 44.5142 29.6307C44.0369 30.3636 43.3466 30.9432 42.4432 31.3693C41.5398 31.7898 40.4432 32 39.1534 32H31.321ZM35.5398 28.5994H38.1477C39.0625 28.5994 39.7358 28.4261 40.1676 28.0795C40.6051 27.733 40.8239 27.25 40.8239 26.6307C40.8239 26.1818 40.7188 25.7955 40.5085 25.4716C40.2983 25.142 40 24.8892 39.6136 24.7131C39.2273 24.5312 38.7642 24.4403 38.2244 24.4403H35.5398V28.5994ZM35.5398 21.7216H37.875C38.3352 21.7216 38.7443 21.6449 39.1023 21.4915C39.4602 21.3381 39.7386 21.1165 39.9375 20.8267C40.142 20.5369 40.2443 20.1875 40.2443 19.7784C40.2443 19.1932 40.0369 18.733 39.6222 18.3977C39.2074 18.0625 38.6477 17.8949 37.9432 17.8949H35.5398V21.7216ZM53.3778 32.2472C52.0085 32.2472 50.8267 31.9773 49.8324 31.4375C48.8438 30.892 48.0824 30.1165 47.5483 29.1108C47.0199 28.0994 46.7557 26.8977 46.7557 25.5057C46.7557 24.1534 47.0227 22.9716 47.5568 21.9602C48.0909 20.9432 48.8438 20.1534 49.8153 19.5909C50.7869 19.0227 51.9318 18.7386 53.25 18.7386C54.1818 18.7386 55.0341 18.8835 55.8068 19.1733C56.5795 19.4631 57.2472 19.892 57.8097 20.4602C58.3722 21.0284 58.8097 21.7301 59.1222 22.5653C59.4347 23.3949 59.5909 24.3466 59.5909 25.4205V26.4602H48.2131V24.0398H55.7131C55.7074 23.5966 55.6023 23.2017 55.3977 22.8551C55.1932 22.5085 54.9119 22.2386 54.554 22.0455C54.2017 21.8466 53.7955 21.7472 53.3352 21.7472C52.8693 21.7472 52.4517 21.8523 52.0824 22.0625C51.7131 22.267 51.4205 22.5483 51.2045 22.9062C50.9886 23.2585 50.875 23.6591 50.8636 24.108V26.571C50.8636 27.1051 50.9688 27.5739 51.179 27.9773C51.3892 28.375 51.6875 28.6847 52.0739 28.9062C52.4602 29.1278 52.9205 29.2386 53.4545 29.2386C53.8239 29.2386 54.1591 29.1875 54.4602 29.0852C54.7614 28.983 55.0199 28.8324 55.2358 28.6335C55.4517 28.4347 55.6136 28.1903 55.7216 27.9006L59.5483 28.0114C59.3892 28.8693 59.0398 29.6165 58.5 30.2528C57.9659 30.8835 57.2642 31.375 56.3949 31.7273C55.5256 32.0739 54.5199 32.2472 53.3778 32.2472ZM65.8871 24.5341V32H61.7195V14.5455H65.7507V21.3125H65.8956C66.1911 20.5057 66.674 19.875 67.3445 19.4205C68.0206 18.9659 68.8473 18.7386 69.8246 18.7386C70.745 18.7386 71.5462 18.9432 72.228 19.3523C72.9098 19.7557 73.4382 20.3267 73.8132 21.0653C74.1939 21.804 74.3814 22.6676 74.3757 23.6562V32H70.2081V24.4744C70.2138 23.7472 70.032 23.179 69.6626 22.7699C69.2933 22.3608 68.7734 22.1562 68.103 22.1562C67.6655 22.1562 67.2791 22.2528 66.9439 22.446C66.6143 22.6335 66.3558 22.9034 66.1683 23.2557C65.9865 23.608 65.8928 24.0341 65.8871 24.5341ZM80.6676 32.2216C79.8324 32.2216 79.0909 32.0824 78.4432 31.804C77.8011 31.5199 77.2926 31.0937 76.9176 30.5256C76.5483 29.9517 76.3636 29.233 76.3636 28.3693C76.3636 27.642 76.4915 27.0284 76.7472 26.5284C77.0028 26.0284 77.3551 25.6222 77.804 25.3097C78.2528 24.9972 78.7699 24.7614 79.3551 24.6023C79.9403 24.4375 80.5653 24.3267 81.2301 24.2699C81.9744 24.2017 82.5739 24.1307 83.0284 24.0568C83.483 23.9773 83.8125 23.8665 84.017 23.7244C84.2273 23.5767 84.3324 23.3693 84.3324 23.1023V23.0597C84.3324 22.6222 84.1818 22.2841 83.8807 22.0455C83.5795 21.8068 83.1733 21.6875 82.6619 21.6875C82.1108 21.6875 81.6676 21.8068 81.3324 22.0455C80.9972 22.2841 80.7841 22.6136 80.6932 23.0341L76.8494 22.8977C76.9631 22.1023 77.2557 21.392 77.7273 20.767C78.2045 20.1364 78.858 19.642 79.6875 19.2841C80.5227 18.9205 81.5256 18.7386 82.696 18.7386C83.5313 18.7386 84.3011 18.8381 85.0057 19.0369C85.7102 19.2301 86.3239 19.5142 86.8466 19.8892C87.3693 20.2585 87.7727 20.7131 88.0568 21.2528C88.3466 21.7926 88.4915 22.4091 88.4915 23.1023V32H84.571V30.1761H84.4688C84.2358 30.6193 83.9375 30.9943 83.5739 31.3011C83.2159 31.608 82.7926 31.8381 82.304 31.9915C81.821 32.1449 81.2756 32.2216 80.6676 32.2216ZM81.9545 29.4943C82.4034 29.4943 82.8068 29.4034 83.1648 29.2216C83.5284 29.0398 83.8182 28.7898 84.0341 28.4716C84.25 28.1477 84.358 27.7727 84.358 27.3466V26.1023C84.2386 26.1648 84.0938 26.2216 83.9233 26.2727C83.7585 26.3239 83.5767 26.3722 83.3778 26.4176C83.179 26.4631 82.9744 26.5028 82.7642 26.5369C82.554 26.571 82.3523 26.6023 82.1591 26.6307C81.767 26.6932 81.4318 26.7898 81.1534 26.9205C80.8807 27.0511 80.6705 27.2216 80.5227 27.4318C80.3807 27.6364 80.3097 27.8807 80.3097 28.1648C80.3097 28.5966 80.4631 28.9261 80.7699 29.1534C81.0824 29.3807 81.4773 29.4943 81.9545 29.4943ZM95.2074 24.5341V32H91.0398V18.9091H95.0028V21.3125H95.1477C95.4375 20.5114 95.9318 19.8835 96.6307 19.429C97.3295 18.9688 98.1619 18.7386 99.1278 18.7386C100.048 18.7386 100.847 18.946 101.523 19.3608C102.205 19.7699 102.733 20.3437 103.108 21.0824C103.489 21.8153 103.676 22.6733 103.67 23.6562V32H99.5028V24.4744C99.5085 23.7472 99.3239 23.179 98.9489 22.7699C98.5795 22.3608 98.0653 22.1562 97.4062 22.1562C96.9688 22.1562 96.5824 22.2528 96.2472 22.446C95.9176 22.6335 95.6619 22.9034 95.4801 23.2557C95.304 23.608 95.2131 24.0341 95.2074 24.5341ZM112.362 32.2472C110.981 32.2472 109.796 31.9631 108.808 31.3949C107.825 30.8267 107.069 30.0369 106.54 29.0256C106.012 28.0085 105.748 26.8324 105.748 25.4972C105.748 24.1562 106.012 22.9801 106.54 21.9688C107.075 20.9517 107.833 20.1591 108.816 19.5909C109.805 19.0227 110.984 18.7386 112.353 18.7386C113.563 18.7386 114.617 18.9574 115.515 19.3949C116.418 19.8324 117.123 20.4517 117.629 21.2528C118.14 22.0483 118.41 22.983 118.438 24.0568H114.543C114.464 23.3864 114.237 22.8608 113.862 22.4801C113.492 22.0994 113.009 21.9091 112.413 21.9091C111.93 21.9091 111.506 22.0455 111.143 22.3182C110.779 22.5852 110.495 22.983 110.29 23.5114C110.092 24.0341 109.992 24.6818 109.992 25.4545C109.992 26.2273 110.092 26.8807 110.29 27.4148C110.495 27.9432 110.779 28.3437 111.143 28.6165C111.506 28.8835 111.93 29.017 112.413 29.017C112.799 29.017 113.14 28.9347 113.435 28.7699C113.737 28.6051 113.984 28.3636 114.177 28.0455C114.37 27.7216 114.492 27.3295 114.543 26.8693H118.438C118.398 27.9489 118.129 28.892 117.629 29.6989C117.134 30.5057 116.438 31.1335 115.54 31.5824C114.648 32.0256 113.589 32.2472 112.362 32.2472ZM126.69 32.2472C125.321 32.2472 124.139 31.9773 123.145 31.4375C122.156 30.892 121.395 30.1165 120.861 29.1108C120.332 28.0994 120.068 26.8977 120.068 25.5057C120.068 24.1534 120.335 22.9716 120.869 21.9602C121.403 20.9432 122.156 20.1534 123.128 19.5909C124.099 19.0227 125.244 18.7386 126.562 18.7386C127.494 18.7386 128.347 18.8835 129.119 19.1733C129.892 19.4631 130.56 19.892 131.122 20.4602C131.685 21.0284 132.122 21.7301 132.435 22.5653C132.747 23.3949 132.903 24.3466 132.903 25.4205V26.4602H121.526V24.0398H129.026C129.02 23.5966 128.915 23.2017 128.71 22.8551C128.506 22.5085 128.224 22.2386 127.866 22.0455C127.514 21.8466 127.108 21.7472 126.648 21.7472C126.182 21.7472 125.764 21.8523 125.395 22.0625C125.026 22.267 124.733 22.5483 124.517 22.9062C124.301 23.2585 124.188 23.6591 124.176 24.108V26.571C124.176 27.1051 124.281 27.5739 124.491 27.9773C124.702 28.375 125 28.6847 125.386 28.9062C125.773 29.1278 126.233 29.2386 126.767 29.2386C127.136 29.2386 127.472 29.1875 127.773 29.0852C128.074 28.983 128.332 28.8324 128.548 28.6335C128.764 28.4347 128.926 28.1903 129.034 27.9006L132.861 28.0114C132.702 28.8693 132.352 29.6165 131.812 30.2528C131.278 30.8835 130.577 31.375 129.707 31.7273C128.838 32.0739 127.832 32.2472 126.69 32.2472Z" fill="white"/>
<line x1="49" y1="16.25" x2="57" y2="16.25" stroke="white" stroke-width="1.5"/>
</svg>
