<svg width="590" height="615" viewBox="0 0 590 615" fill="none" xmlns="http://www.w3.org/2000/svg">
<rect x="402.672" y="514.458" width="279.587" height="285.664" rx="39" transform="rotate(14.8125 402.672 514.458)" stroke="#F15F57" stroke-opacity="0.12" stroke-width="2" stroke-dasharray="4 4"/>
<rect x="-25.3104" y="401.498" width="393.903" height="285.455" rx="39" transform="rotate(14.8125 -25.3104 401.498)" stroke="#F15F57" stroke-opacity="0.12" stroke-width="2"/>
<path d="M561.426 765.998L635.619 485.436C641.267 464.079 628.532 442.187 607.175 436.539L543.025 419.575" stroke="#F15F57" stroke-opacity="0.12" stroke-width="2"/>
<ellipse cx="543.07" cy="420.346" rx="7.83967" ry="7.18637" transform="rotate(14.8125 543.07 420.346)" fill="#F15F57" fill-opacity="0.12"/>
<ellipse cx="538.289" cy="469.088" rx="7.83967" ry="7.18637" transform="rotate(14.8125 538.289 469.088)" fill="#F15F57" fill-opacity="0.12"/>
<ellipse cx="401.842" cy="341.102" rx="7.83967" ry="7.18637" transform="rotate(14.8125 401.842 341.102)" fill="#F15F57" fill-opacity="0.12"/>
<circle cx="583.844" cy="276.379" r="7.83967" transform="rotate(14.8125 583.844 276.379)" fill="#F15F57" fill-opacity="0.12"/>
<path d="M242.314 683.706L341.602 308.246C347.25 286.889 369.142 274.154 390.499 279.802L606.218 336.848C627.575 342.495 649.467 329.76 655.115 308.403L715.159 81.3451" stroke="#F15F57" stroke-opacity="0.12" stroke-width="2" stroke-dasharray="4 4"/>
<path d="M537.84 58.8353L525.278 106.338C519.63 127.695 532.365 149.587 553.723 155.235L764.758 211.042" stroke="#F15F57" stroke-opacity="0.12" stroke-width="2"/>
<line x1="635.585" y1="84.6299" x2="584.811" y2="276.635" stroke="#F15F57" stroke-opacity="0.12" stroke-width="2"/>
<path d="M173.455 668.115L258.814 345.329C264.462 323.972 286.353 311.237 307.711 316.885L399.149 341.065" stroke="#F15F57" stroke-opacity="0.12" stroke-width="2"/>
<circle cx="251.002" cy="374.871" r="5.22645" transform="rotate(14.8125 251.002 374.871)" fill="#F15F57" fill-opacity="0.12"/>
<circle cx="361.275" cy="422.954" r="5.22645" transform="rotate(14.8125 361.275 422.954)" fill="#F15F57" fill-opacity="0.12"/>
<circle cx="150.491" cy="448.305" r="5.22645" transform="rotate(14.8125 150.491 448.305)" fill="#F15F57" fill-opacity="0.12"/>
<circle cx="169.439" cy="453.315" r="5.22645" transform="rotate(14.8125 169.439 453.315)" fill="#F15F57" fill-opacity="0.12"/>
<line x1="95.927" y1="353.101" x2="534.254" y2="469.014" stroke="#F15F57" stroke-opacity="0.12" stroke-width="2"/>
</svg>
