<svg width="387" height="351" viewBox="0 0 387 351" fill="none" xmlns="http://www.w3.org/2000/svg">
<path d="M103 20V111M103 111C62.776 111 40.224 111 0 111H103Z" stroke="#E98B34" stroke-width="5"/>
<path d="M136 20V144M136 144C82.8887 144 53.1113 144 0 144H68H136Z" stroke="#E98B34" stroke-width="5"/>
<path d="M169 20V177M169 177C103.001 177 65.9986 177 0 177H84.5H169Z" stroke="#E98B34" stroke-width="5"/>
<path d="M202 20V210M202 210C123.114 210 78.8859 210 0 210H101H202Z" stroke="#E98B34" stroke-width="5"/>
<path d="M70 20V78M70 78C42.6633 78 27.3367 78 0 78H70Z" stroke="#E98B34" stroke-width="5"/>
<path d="M202 20L202 177M202 177C274.247 177 314.753 177 387 177H294.5L202 177Z" stroke="#E98B34" stroke-width="3"/>
<path d="M251 20L251 144M251 144C304.111 144 333.889 144 387 144H319H251Z" stroke="#E98B34" stroke-width="5"/>
<path d="M284 20V111M284 111C324.224 111 346.776 111 387 111L284 111Z" stroke="#E98B34" stroke-width="5"/>
<path d="M317 20V78M317 78C344.337 78 359.663 78 387 78H317Z" stroke="#E98B34" stroke-width="5"/>
<path d="M32.3682 106.731L64.4399 124.437C70.8543 115.885 86.2665 113.524 93.1709 113.413H275.913C300.501 112.611 315.557 127.555 320.012 135.128L303.488 139.324C301.784 139.757 301.427 142.021 302.916 142.956L346.668 170.449C347.622 171.048 348.881 170.742 349.454 169.773L376.316 124.315C377.227 122.772 375.806 120.901 374.075 121.366L356.427 126.108C340.391 93.7686 309.321 79.6704 292.951 78H87.1574C51.6112 80.9399 35.8203 98.3789 32.3682 106.731Z" fill="url(#paint0_linear_480_466)"/>
<path d="M78.5739 138.132L61.8103 124.251C52.268 162.73 67.0758 173.426 75.6725 173.964H317.409C319.992 173.964 322.193 171.993 322.157 169.41C321.864 147.958 303.657 146.325 300.635 140.473L346.314 170.39C347.271 171.017 348.558 170.714 349.136 169.726L360.769 149.827L373.464 128.78C381.717 187.918 339.806 204.738 321.968 205.599H52.0656C89.1809 244.252 66.4883 221.904 50.2048 205.599H52.0656C51.4613 204.969 50.8411 204.324 50.2048 203.662C10.488 162.343 23.7699 118.011 35.3755 101.009L17 84.2235L75.6725 80.6727L78.5739 138.132Z" fill="url(#paint1_linear_480_466)"/>
<path d="M72.377 254.139L98.2066 268.399C103.372 261.511 115.785 259.61 121.346 259.52H268.52C288.323 258.874 300.449 270.91 304.036 277.009L291.609 280.165C289.905 280.598 289.548 282.861 291.037 283.797L325.166 305.243C326.119 305.842 327.379 305.536 327.952 304.567L348.896 269.122C349.808 267.579 348.386 265.708 346.655 266.173L333.364 269.744C320.449 243.7 295.426 232.345 282.242 231H116.503C87.8747 233.368 75.1572 247.413 72.377 254.139Z" fill="url(#paint2_linear_480_466)"/>
<path d="M109.59 279.429L96.0889 268.249C88.4038 299.239 100.33 307.853 107.253 308.286H301.053C303.636 308.286 305.852 306.3 305.738 303.719C305.014 287.295 290.822 285.943 288.431 281.314L324.876 305.183C325.834 305.81 327.121 305.508 327.699 304.52L336.861 288.847L347.085 271.897C353.732 319.525 319.978 333.071 305.612 333.764H88.2407C118.132 364.894 99.8564 346.896 86.7421 333.764H88.2407C87.754 333.257 87.2546 332.737 86.7421 332.204C54.7554 298.927 65.4523 263.223 74.799 249.531L60 236.012L107.253 233.152L109.59 279.429Z" fill="url(#paint3_linear_480_466)"/>
<path d="M316.5 1L344.646 49.75H288.354L316.5 1Z" fill="url(#paint4_linear_480_466)"/>
<rect x="46" width="48" height="48" fill="url(#paint5_linear_480_466)"/>
<defs>
<linearGradient id="paint0_linear_480_466" x1="205.422" y1="112.076" x2="205.422" y2="61.63" gradientUnits="userSpaceOnUse">
<stop stop-color="#578BF1"/>
<stop offset="1" stop-color="#D9D9D9"/>
</linearGradient>
<linearGradient id="paint1_linear_480_466" x1="196.067" y1="203.28" x2="196.067" y2="8.8453" gradientUnits="userSpaceOnUse">
<stop stop-color="#578BF1"/>
<stop offset="1" stop-color="#D9D9D9"/>
</linearGradient>
<linearGradient id="paint2_linear_480_466" x1="211.749" y1="258.444" x2="211.749" y2="217.816" gradientUnits="userSpaceOnUse">
<stop stop-color="#578BF1"/>
<stop offset="1" stop-color="#D9D9D9"/>
</linearGradient>
<linearGradient id="paint3_linear_480_466" x1="204.215" y1="331.897" x2="204.215" y2="175.305" gradientUnits="userSpaceOnUse">
<stop stop-color="#578BF1"/>
<stop offset="1" stop-color="#D9D9D9"/>
</linearGradient>
<linearGradient id="paint4_linear_480_466" x1="316.5" y1="1" x2="316.5" y2="66" gradientUnits="userSpaceOnUse">
<stop stop-color="#EA433A"/>
<stop offset="1" stop-color="#FC7E77"/>
</linearGradient>
<linearGradient id="paint5_linear_480_466" x1="70" y1="0" x2="70" y2="48" gradientUnits="userSpaceOnUse">
<stop stop-color="#EA433A"/>
<stop offset="1" stop-color="#FF665E"/>
</linearGradient>
</defs>
</svg>
