<svg xmlns="http://www.w3.org/2000/svg" width="693.218" height="208" viewBox="0 0 693.218 208">
  <g id="Group_80" data-name="Group 80" transform="translate(-2278.537 -997.264)">
    <g id="Group_79" data-name="Group 79" transform="translate(-2221 0.264)">
      <g id="Group_39" data-name="Group 39" transform="translate(4499.537 997)">
        <g id="Group_38" data-name="Group 38">
          <path id="Path_21" data-name="Path 21" d="M-133.894-474.9H-329.659a6.117,6.117,0,0,0-6.118,6.118v195.765a6.118,6.118,0,0,0,6.118,6.118h195.765a6.117,6.117,0,0,0,6.118-6.118V-468.786A6.116,6.116,0,0,0-133.894-474.9ZM-146.13-279.139H-317.424a6.118,6.118,0,0,1-6.118-6.118V-456.551a6.117,6.117,0,0,1,6.118-6.118H-146.13a6.116,6.116,0,0,1,6.118,6.118v171.294A6.117,6.117,0,0,1-146.13-279.139Z" transform="translate(335.777 474.904)" fill="#2e1f26"/>
        </g>
        <path id="Path_22" data-name="Path 22" d="M-174.189-441.786v85.647a6.117,6.117,0,0,1-6.118,6.118h0a6.118,6.118,0,0,1-6.118-6.118v-73.412a6.116,6.116,0,0,0-6.118-6.118h-97.883a6.117,6.117,0,0,0-6.118,6.118v97.882a6.118,6.118,0,0,0,6.118,6.118h73.412a6.116,6.116,0,0,1,6.118,6.118h0a6.117,6.117,0,0,1-6.118,6.118h-85.647a6.118,6.118,0,0,1-6.118-6.118V-441.786a6.117,6.117,0,0,1,6.118-6.118h122.353A6.116,6.116,0,0,1-174.189-441.786Z" transform="translate(345.409 484.707)" fill="#2e1f26"/>
        <g id="Group_76" data-name="Group 76" transform="translate(138.51 138.687)">
          <rect id="Rectangle_35" data-name="Rectangle 35" width="13.1" height="13.1" rx="2" fill="#eaa09c" opacity="0.5"/>
          <rect id="Rectangle_34" data-name="Rectangle 34" width="17.466" height="17.466" rx="3" transform="translate(4.325 4.325)" fill="#eaa09c"/>
          <rect id="Rectangle_14" data-name="Rectangle 14" width="23" height="23" rx="4" transform="translate(8.479 10.582)" fill="#f15f57"/>
        </g>
      </g>
    </g>
    <g id="Group_12" data-name="Group 12" transform="translate(2529 1031)">
      <g id="Group_11" data-name="Group 11" transform="translate(0 0)">
        <path id="Path_11" data-name="Path 11" d="M-279.884-298.589l12.02,85.988a4.586,4.586,0,0,1-4.45,4.711h-14.076a5.489,5.489,0,0,1-5.511-5.469v-.987a5.489,5.489,0,0,1,5.511-5.469h6.506l-11.25-66.988a5.5,5.5,0,0,0-5.436-4.569h-2.568a5.5,5.5,0,0,0-5.459,4.695l-10.666,74.092a5.494,5.494,0,0,1-5.455,4.695h-.953a5.482,5.482,0,0,1-5.465-6.181l11.2-84.517a4.588,4.588,0,0,1,4.45-4.711h27.153A4.586,4.586,0,0,1-279.884-298.589Z" transform="translate(327.183 303.3)" fill="#f15f57"/>
        <path id="Path_12" data-name="Path 12" d="M-305.319-298.589V-212.6a4.586,4.586,0,0,0,4.451,4.711h26.092a5.489,5.489,0,0,0,5.511-5.469v-.987a5.489,5.489,0,0,0-5.511-5.469h-13.012a5.489,5.489,0,0,1-5.511-5.469V-285.9a5.489,5.489,0,0,1,5.511-5.469h25.029a5.492,5.492,0,0,1,5.514,5.469v48.691a5.492,5.492,0,0,0,5.511,5.472h1a5.492,5.492,0,0,0,5.511-5.472v-61.377a4.588,4.588,0,0,0-4.45-4.711h-51.19A4.588,4.588,0,0,0-305.319-298.589Z" transform="translate(376.443 303.3)" fill="#f15f57"/>
        <path id="Path_13" data-name="Path 13" d="M-178.928-212.6v-85.988a4.588,4.588,0,0,0-4.45-4.711h-50.129a5.492,5.492,0,0,0-5.511,5.472v.984a5.492,5.492,0,0,0,5.511,5.472h42.563v71.556h-30.543A5.492,5.492,0,0,1-227-225.284v-48.694a5.489,5.489,0,0,0-5.511-5.469h-1a5.489,5.489,0,0,0-5.511,5.469V-212.6a4.586,4.586,0,0,0,4.45,4.711h51.19A4.586,4.586,0,0,0-178.928-212.6Z" transform="translate(525.824 303.3)" fill="#f15f57"/>
        <path id="Path_14" data-name="Path 14" d="M-149.461-219.815v6.456a5.489,5.489,0,0,1-5.511,5.469H-205.1a4.586,4.586,0,0,1-4.45-4.711v-85.988a4.588,4.588,0,0,1,4.45-4.711h50.129a5.492,5.492,0,0,1,5.511,5.472v.984a5.492,5.492,0,0,1-5.511,5.472h-42.563v71.556Z" transform="translate(592.216 303.3)" fill="#f15f57"/>
        <path id="Path_15" data-name="Path 15" d="M-235.145-297.336v72.052a5.489,5.489,0,0,1-5.511,5.469h-25.032a5.489,5.489,0,0,1-5.511-5.469v-72.544a5.492,5.492,0,0,0-5.511-5.472h-1a5.5,5.5,0,0,0-5.514,5.472V-212.6a4.587,4.587,0,0,0,4.454,4.711h51.186a4.584,4.584,0,0,0,4.45-4.711v-84.735a5.986,5.986,0,0,0-6.007-5.964h0A5.988,5.988,0,0,0-235.145-297.336Z" transform="translate(426.236 303.3)" fill="#f15f57"/>
        <rect id="Rectangle_7" data-name="Rectangle 7" width="12.018" height="12.018" rx="1.842" transform="translate(23.265 47.653)" fill="#f15f57"/>
        <path id="Path_16" data-name="Path 16" d="M-213.582-298.589l12.02,85.988a4.587,4.587,0,0,1-4.454,4.711h-14.072a5.489,5.489,0,0,1-5.511-5.469v-.987a5.489,5.489,0,0,1,5.511-5.469h6.506l-11.25-66.988a5.5,5.5,0,0,0-5.436-4.569h-2.568a5.5,5.5,0,0,0-5.459,4.695l-10.666,74.092a5.5,5.5,0,0,1-5.455,4.695h-.953a5.482,5.482,0,0,1-5.465-6.181l11.2-84.517a4.588,4.588,0,0,1,4.45-4.711h27.153A4.586,4.586,0,0,1-213.582-298.589Z" transform="translate(476.565 303.3)" fill="#f15f57"/>
        <rect id="Rectangle_8" data-name="Rectangle 8" width="12.018" height="12.018" rx="1.842" transform="translate(238.956 47.653)" fill="#f15f57"/>
        <path id="Path_17" data-name="Path 17" d="M-204.9-223.826v-66.6a5.513,5.513,0,0,0-5.514-5.511h-.992a5.513,5.513,0,0,0-5.514,5.511v66.6" transform="translate(575.546 319.235)" fill="#f15f57"/>
        <rect id="Rectangle_9" data-name="Rectangle 9" width="12.018" height="12.018" rx="1.842" transform="translate(358.629 0.001)" fill="#f15f57"/>
        <rect id="Rectangle_10" data-name="Rectangle 10" width="12.615" height="12.615" rx="0.967" transform="translate(118.498 82.796)" fill="#f15f57"/>
      </g>
      <path id="Path_18" data-name="Path 18" d="M17.174,8.681a4.076,4.076,0,0,1-1.47,2.711A4.089,4.089,0,0,1,13,12.858H4.231a4.607,4.607,0,0,1-2.94-1.715A4.81,4.81,0,0,1-.028,7.961q0-1.909,1.759-1.909a1.393,1.393,0,0,1,1.4.689q0,.055.275,1.57a1.933,1.933,0,0,0,.481.716q.426.468.673.468h8.106q.22,0,.7-.482t.481-.7V3.656q0-.22-.481-.7t-.7-.482H4.231A4.1,4.1,0,0,1,1.538.983a4.119,4.119,0,0,1-1.484-2.7V-7.062A3.968,3.968,0,0,1,1.58-9.817a4.371,4.371,0,0,1,2.872-1.433H12.8a4.4,4.4,0,0,1,3.078,1.57,4.517,4.517,0,0,1,1.4,3.113q0,2.121-1.786,2.121a1.54,1.54,0,0,1-1.4-.689,4.013,4.013,0,0,1-.206-.923,3.465,3.465,0,0,0-.261-1.006,1.722,1.722,0,0,0-.962-.827H4.561q-.192,0-.687.466t-.495.686v4.693q0,.192.495.672t.687.48H13A4.089,4.089,0,0,1,15.7.576a4.076,4.076,0,0,1,1.47,2.711Zm18.933,0a4.072,4.072,0,0,1-1.47,2.709,4.09,4.09,0,0,1-2.707,1.465H23.164a4.078,4.078,0,0,1-2.707-1.479,4.117,4.117,0,0,1-1.47-2.722V-.161a3.959,3.959,0,0,1,1.525-2.778,4.383,4.383,0,0,1,2.872-1.423H31.71a4.4,4.4,0,0,1,2.872,1.41A3.917,3.917,0,0,1,36.107-.188Zm-3.325-.348V.16q0-.331-.522-.746A1.548,1.548,0,0,0,31.38-1H23.741a1.631,1.631,0,0,0-.879.428q-.55.428-.55.76V8.309q0,.221.481.7t.7.483H31.6q.192,0,.687-.483T32.782,8.336ZM55.287-9.734a1.439,1.439,0,0,1-.316,1.157A1.238,1.238,0,0,1,54-7.888H49.572q-.192,0-.687.465t-.495.683v2.378h2.171a1.047,1.047,0,0,1,.8.51,2.665,2.665,0,0,1,.495.978A1.592,1.592,0,0,1,51.509-1.7q-.453.7-.948.7H48.39V11.585a1.087,1.087,0,0,1-.522.816,2.061,2.061,0,0,1-.962.457,1.442,1.442,0,0,1-1.182-.318,1.248,1.248,0,0,1-.659-.982V-1H42.922a1.146,1.146,0,0,1-.838-.537,1.826,1.826,0,0,1-.453-.978,1.575,1.575,0,0,1,.33-1.171,1.207,1.207,0,0,1,.962-.675h2.143V-7.078A3.948,3.948,0,0,1,46.59-9.823a4.378,4.378,0,0,1,2.872-1.427h4.314a1.443,1.443,0,0,1,1.03.482A1.45,1.45,0,0,1,55.287-9.734ZM67.845,11.039a1.5,1.5,0,0,1-.357,1.143q-.467.675-.934.675H65.235a4.077,4.077,0,0,1-2.707-1.48,4.121,4.121,0,0,1-1.47-2.725V-1H58.914a1.146,1.146,0,0,1-.838-.537,1.826,1.826,0,0,1-.453-.978,1.575,1.575,0,0,1,.33-1.171,1.207,1.207,0,0,1,.962-.675h2.143v-5.6a1.1,1.1,0,0,1,.536-.8,2.424,2.424,0,0,1,.948-.494,1.722,1.722,0,0,1,1.168.343q.673.426.673.919v5.626h2.171a1.047,1.047,0,0,1,.8.51,2.666,2.666,0,0,1,.495.978A1.592,1.592,0,0,1,67.5-1.7q-.453.7-.948.7H64.383V8.336q0,.331.522.718a2.158,2.158,0,0,0,.879.442h.357a1.8,1.8,0,0,1,1.154.482A1.293,1.293,0,0,1,67.845,11.039ZM86.86,8.67A4.546,4.546,0,0,1,84.992,11.7a5.734,5.734,0,0,1-3.49,1.157,5.23,5.23,0,0,1-3.05-1.1.356.356,0,0,0-.275,0,4.752,4.752,0,0,1-1.814.937,7.61,7.61,0,0,1-3.023,0,4.291,4.291,0,0,1-2.308-1.532,4.73,4.73,0,0,1-1.292-2.5V-3.093a1.5,1.5,0,0,1,1.594-1.186,1.952,1.952,0,0,1,1.2.4,1.233,1.233,0,0,1,.536,1.033V8.064A1.71,1.71,0,0,0,74.8,9.579a2.1,2.1,0,0,0,1.841-1.292V-3.069a1.534,1.534,0,0,1,1.649-1.21,1.629,1.629,0,0,1,1.676,1.212V8.312a1.762,1.762,0,0,0,1.786,1.267,1.821,1.821,0,0,0,1.786-1.267V-3.067a1.535,1.535,0,0,1,1.649-1.212A1.629,1.629,0,0,1,86.86-3.067Zm19.29,2.917a1.277,1.277,0,0,1-.481.8,1.321,1.321,0,0,1-.811.47H93.208A4.079,4.079,0,0,1,90.5,11.38a4.114,4.114,0,0,1-1.47-2.721V6.78a4.134,4.134,0,0,1,1.484-2.707,4.1,4.1,0,0,1,2.693-1.492h9.618V.193q0-.222-.481-.708t-.7-.486H93.785a1.015,1.015,0,0,1-.824-.5,2.687,2.687,0,0,1-.467-1.019,1.8,1.8,0,0,1,.385-1.267,1.356,1.356,0,0,1,1.127-.579h7.749a4.4,4.4,0,0,1,2.872,1.41,3.917,3.917,0,0,1,1.525,2.764ZM102.826,9.5V5.942H93.789a1.613,1.613,0,0,0-.9.413q-.537.413-.537.771V8.312q0,.22.482.7t.7.482ZM120.682-1h-4.47q-.221,0-.7.469t-.483.69v11.4a1.53,1.53,0,0,1-1.635,1.242,1.639,1.639,0,0,1-1.69-1.242V-3.065a.99.99,0,0,1,.275-.607,1.689,1.689,0,0,1,1.374-.69,2.045,2.045,0,0,1,1.209.441q1.649-.441,1.566-.441h4.314a1.289,1.289,0,0,1,1.058.5,1.833,1.833,0,0,1,.4,1.185A1.532,1.532,0,0,1,120.682-1ZM140.17,4.644a1.276,1.276,0,0,1-.481.8,1.321,1.321,0,0,1-.811.47h-12.5V8.339q0,.193.495.675t.687.482h7.886a1.182,1.182,0,0,1,.852.542,1.613,1.613,0,0,1,.44.958,1.733,1.733,0,0,1-.357,1.167q-.44.694-.934.694h-8.216a4.078,4.078,0,0,1-2.707-1.479,4.117,4.117,0,0,1-1.47-2.722V-.161a3.959,3.959,0,0,1,1.525-2.778,4.383,4.383,0,0,1,2.872-1.423h8.326a4.4,4.4,0,0,1,2.872,1.409A3.915,3.915,0,0,1,140.17-.19Zm-3.325-2.09V.166q0-.333-.523-.75A1.55,1.55,0,0,0,135.439-1h-7.659a1.528,1.528,0,0,0-.882.43q-.523.43-.523.763v2.36Zm34.046,6.127a4.076,4.076,0,0,1-1.47,2.711,4.089,4.089,0,0,1-2.707,1.466h-8.766a4.607,4.607,0,0,1-2.94-1.715,4.81,4.81,0,0,1-1.319-3.181q0-1.909,1.759-1.909a1.393,1.393,0,0,1,1.4.689q0,.055.275,1.57a1.933,1.933,0,0,0,.481.716q.426.468.673.468h8.106q.22,0,.7-.482t.481-.7V3.656q0-.22-.481-.7t-.7-.482h-8.436A4.1,4.1,0,0,1,155.256.983a4.119,4.119,0,0,1-1.484-2.7V-7.062A3.968,3.968,0,0,1,155.3-9.817a4.371,4.371,0,0,1,2.872-1.433h8.354a4.4,4.4,0,0,1,3.078,1.57A4.517,4.517,0,0,1,171-6.566q0,2.121-1.786,2.121a1.54,1.54,0,0,1-1.4-.689,4.013,4.013,0,0,1-.206-.923,3.466,3.466,0,0,0-.261-1.006,1.722,1.722,0,0,0-.962-.827h-8.106q-.192,0-.687.466t-.495.686v4.693q0,.192.495.672t.687.48h8.436A4.089,4.089,0,0,1,169.421.576a4.076,4.076,0,0,1,1.47,2.711Zm18.933,3.461a4.055,4.055,0,0,1-1.47,2.7,4.094,4.094,0,0,1-2.707,1.46h-8.189q-.687,0-1.127-.944a3.19,3.19,0,0,1-.165-.556,1.758,1.758,0,0,1,.343-1.167q.426-.694.948-.694h7.859a1.2,1.2,0,0,0,.714-.448,1.438,1.438,0,0,0,.467-.719V9.414h-9.618a4.079,4.079,0,0,1-2.707-1.477,4.11,4.11,0,0,1-1.47-2.719V-3.064a1.109,1.109,0,0,1,.522-.8,2.291,2.291,0,0,1,.962-.5,1.719,1.719,0,0,1,1.168.344q.673.427.673.923V4.9q0,.193.495.675t.687.482H186.5V-3.067q0-.358.577-.827a2.256,2.256,0,0,1,.907-.468,1.719,1.719,0,0,1,1.168.344q.673.427.673.923ZM208.812,1.78a1.365,1.365,0,0,1-.6.608,2.417,2.417,0,0,1-.8.083,1.536,1.536,0,0,1-1.4-.694,4.067,4.067,0,0,1-.206-.93,3.52,3.52,0,0,0-.261-1.014A1.728,1.728,0,0,0,204.58-1h-8.106A1.717,1.717,0,0,0,195.237.763a1.824,1.824,0,0,0,1.237,1.791h8.464a5.19,5.19,0,0,1,3.009,1.828,5.131,5.131,0,0,1,1.14,3.324,5.171,5.171,0,0,1-1.14,3.352,5.061,5.061,0,0,1-3.009,1.8h-8.793a4.607,4.607,0,0,1-2.94-1.715,4.81,4.81,0,0,1-1.319-3.181q0-1.909,1.759-1.909a1.393,1.393,0,0,1,1.4.689q0,.055.275,1.57a1.933,1.933,0,0,0,.481.716q.426.468.673.468h8.106a1.887,1.887,0,0,0,0-3.582h-8.436a5.431,5.431,0,0,1-3.036-1.81,4.985,4.985,0,0,1-1.14-3.3,5.042,5.042,0,0,1,1.209-3.4,5.3,5.3,0,0,1,3.188-1.768h8.354A4.394,4.394,0,0,1,207.8-2.785,4.543,4.543,0,0,1,209.2.341,2.821,2.821,0,0,1,208.812,1.78Zm16.13,9.26a1.5,1.5,0,0,1-.357,1.143q-.467.675-.934.675h-1.319a4.077,4.077,0,0,1-2.707-1.48,4.121,4.121,0,0,1-1.47-2.725V-1h-2.143a1.146,1.146,0,0,1-.838-.537,1.826,1.826,0,0,1-.453-.978,1.575,1.575,0,0,1,.33-1.171,1.207,1.207,0,0,1,.962-.675h2.143v-5.6a1.1,1.1,0,0,1,.536-.8,2.424,2.424,0,0,1,.948-.494,1.722,1.722,0,0,1,1.168.343q.673.426.673.919v5.626h2.171a1.047,1.047,0,0,1,.8.51,2.665,2.665,0,0,1,.495.978A1.592,1.592,0,0,1,224.6-1.7q-.453.7-.948.7H221.48V8.336q0,.331.522.718a2.157,2.157,0,0,0,.879.442h.357a1.8,1.8,0,0,1,1.154.482A1.294,1.294,0,0,1,224.942,11.039Zm19.015-6.4a1.276,1.276,0,0,1-.481.8,1.321,1.321,0,0,1-.811.47h-12.5V8.339q0,.193.495.675t.687.482h7.886a1.182,1.182,0,0,1,.852.542,1.613,1.613,0,0,1,.44.958,1.733,1.733,0,0,1-.357,1.167q-.44.694-.934.694h-8.216a4.078,4.078,0,0,1-2.707-1.479,4.117,4.117,0,0,1-1.47-2.722V-.161a3.959,3.959,0,0,1,1.525-2.778,4.383,4.383,0,0,1,2.872-1.423h8.326a4.4,4.4,0,0,1,2.872,1.409A3.915,3.915,0,0,1,243.958-.19Zm-3.325-2.09V.166q0-.333-.523-.75A1.55,1.55,0,0,0,239.227-1h-7.659a1.528,1.528,0,0,0-.882.43q-.523.43-.523.763v2.36Zm21.956,8.814a1.247,1.247,0,0,1-.508,1.048,1.919,1.919,0,0,1-1.2.386,1.472,1.472,0,0,1-1.621-1.217V.162a1.89,1.89,0,0,0-3.572,0v11.4a1.517,1.517,0,0,1-1.649,1.242,1.634,1.634,0,0,1-1.676-1.242V.159a1.891,1.891,0,0,0-3.572,0v11.4a1.517,1.517,0,0,1-1.649,1.242,1.634,1.634,0,0,1-1.676-1.242V-3.092A1.733,1.733,0,0,1,246.115-4a1.729,1.729,0,0,1,1.058-.359,1.053,1.053,0,0,1,.357.059q.3.147.769.382a5.974,5.974,0,0,1,2.391-.441,5.208,5.208,0,0,1,1.4.17,3.55,3.55,0,0,1,.852.508,2.289,2.289,0,0,0,.934.452,3.951,3.951,0,0,0,1-.441,6.2,6.2,0,0,1,1.085-.5,8.911,8.911,0,0,1,3.023,0,3.874,3.874,0,0,1,2.4,1.559,4.266,4.266,0,0,1,1.2,2.663Zm31.381-2.687a4.077,4.077,0,0,1-1.47,2.711,4.089,4.089,0,0,1-2.707,1.466h-8.766a4.607,4.607,0,0,1-2.94-1.715,4.81,4.81,0,0,1-1.319-3.181q0-1.909,1.759-1.909a1.393,1.393,0,0,1,1.4.689q0,.055.275,1.57a1.933,1.933,0,0,0,.481.716q.426.468.673.468h8.106q.22,0,.7-.482t.481-.7V3.656q0-.22-.481-.7t-.7-.482h-8.436A4.1,4.1,0,0,1,278.334.983a4.119,4.119,0,0,1-1.484-2.7V-7.062a3.968,3.968,0,0,1,1.525-2.755,4.371,4.371,0,0,1,2.872-1.433H289.6a4.4,4.4,0,0,1,3.078,1.57,4.517,4.517,0,0,1,1.4,3.113q0,2.121-1.786,2.121a1.54,1.54,0,0,1-1.4-.689,4.015,4.015,0,0,1-.206-.923,3.467,3.467,0,0,0-.261-1.006,1.723,1.723,0,0,0-.962-.827h-8.106q-.192,0-.687.466t-.495.686v4.693q0,.192.495.672t.687.48h8.436A4.089,4.089,0,0,1,292.5.576a4.077,4.077,0,0,1,1.47,2.711Zm18.933,0a4.072,4.072,0,0,1-1.47,2.709,4.09,4.09,0,0,1-2.707,1.465H299.96a4.078,4.078,0,0,1-2.707-1.479,4.117,4.117,0,0,1-1.47-2.722V-.161a3.959,3.959,0,0,1,1.525-2.778,4.383,4.383,0,0,1,2.872-1.423h8.326a4.4,4.4,0,0,1,2.872,1.41A3.917,3.917,0,0,1,312.9-.188Zm-3.325-.348V.16q0-.331-.522-.746A1.548,1.548,0,0,0,308.176-1h-7.639a1.631,1.631,0,0,0-.879.428q-.55.428-.55.76V8.309q0,.221.481.7t.7.483H308.4q.192,0,.687-.483T309.577,8.336ZM328.648,11a1.732,1.732,0,0,1-.357,1.167q-.44.694-.934.694h-7.639q-.687,0-1.127-.944a3.192,3.192,0,0,1-.165-.556,1.758,1.758,0,0,1,.344-1.167q.426-.694.948-.694h2.143V-7.888h-2.143a1.049,1.049,0,0,1-.838-.5,2.3,2.3,0,0,1-.453-1.019.579.579,0,0,1-.082-.3,1.464,1.464,0,0,1,.55-1.019,1.573,1.573,0,0,1,1.044-.523h3.737a1.767,1.767,0,0,1,.948.4q.563.4.563.758V9.5h2.171a1.182,1.182,0,0,1,.852.542A1.613,1.613,0,0,1,328.648,11Zm18.878.566a1.167,1.167,0,0,1-.769,1.006,1.721,1.721,0,0,1-1.291.234,1.528,1.528,0,0,1-.371-.179,1.123,1.123,0,0,0-.508-.179,1.974,1.974,0,0,0-.632.179,2,2,0,0,1-.6.179h-8.766a4.082,4.082,0,0,1-2.707-1.474,4.1,4.1,0,0,1-1.47-2.714V-3.094A1.5,1.5,0,0,1,332-4.279a1.954,1.954,0,0,1,1.2.4,1.23,1.23,0,0,1,.536,1.031V8.066a1.523,1.523,0,0,0,.426.853q.426.522.756.522h8.106q.192,0,.687-.48t.495-.7V-3.072a1.534,1.534,0,0,1,1.649-1.207,1.629,1.629,0,0,1,1.676,1.212Zm15.883-.523a1.5,1.5,0,0,1-.357,1.143q-.467.675-.934.675H360.8a4.077,4.077,0,0,1-2.707-1.48,4.121,4.121,0,0,1-1.47-2.725V-1h-2.143a1.147,1.147,0,0,1-.838-.537,1.827,1.827,0,0,1-.453-.978,1.575,1.575,0,0,1,.33-1.171,1.207,1.207,0,0,1,.962-.675h2.143v-5.6a1.1,1.1,0,0,1,.536-.8,2.424,2.424,0,0,1,.948-.494,1.722,1.722,0,0,1,1.168.343q.673.426.673.919v5.626h2.171a1.047,1.047,0,0,1,.8.51,2.665,2.665,0,0,1,.495.978,1.592,1.592,0,0,1-.344,1.171q-.453.7-.948.7h-2.171V8.336q0,.331.522.718a2.158,2.158,0,0,0,.879.442h.357a1.8,1.8,0,0,1,1.154.482A1.293,1.293,0,0,1,363.409,11.039ZM375.5-9.719a1.892,1.892,0,0,1-.405,1.257,1.091,1.091,0,0,1-1.055.574A1.433,1.433,0,0,1,372.85-8.3a1.868,1.868,0,0,1-.622-1.1.555.555,0,0,1-.054-.248,1.652,1.652,0,0,1,.541-1.074q.541-.579.973-.523h.27a1.618,1.618,0,0,1,1.027.464Q375.637-10.156,375.5-9.719ZM378.962,11a1.732,1.732,0,0,1-.357,1.167q-.44.694-.934.694h-7.639q-.687,0-1.127-.944a3.189,3.189,0,0,1-.165-.556,1.758,1.758,0,0,1,.343-1.167q.426-.694.948-.694h2.143V-1h-2.143a1.142,1.142,0,0,1-.879-.528,2.689,2.689,0,0,1-.412-.972,1.824,1.824,0,0,1,.385-1.278,1.353,1.353,0,0,1,1.127-.583h3.737a1.655,1.655,0,0,1,.975.414,1.13,1.13,0,0,1,.536.856V9.5h2.171a1.182,1.182,0,0,1,.852.542A1.613,1.613,0,0,1,378.962,11Zm18.8-2.313a4.072,4.072,0,0,1-1.47,2.709,4.09,4.09,0,0,1-2.707,1.465h-8.766a4.078,4.078,0,0,1-2.707-1.479,4.117,4.117,0,0,1-1.47-2.722V-.161a3.959,3.959,0,0,1,1.525-2.778,4.383,4.383,0,0,1,2.872-1.423h8.326a4.4,4.4,0,0,1,2.872,1.41,3.917,3.917,0,0,1,1.525,2.764Zm-3.325-.348V.16q0-.331-.522-.746A1.548,1.548,0,0,0,393.031-1h-7.639a1.631,1.631,0,0,0-.879.428q-.55.428-.55.76V8.309q0,.221.481.7t.7.483h8.106q.192,0,.687-.483T394.432,8.336Zm22.533,3.224a1.517,1.517,0,0,1-1.649,1.242,1.634,1.634,0,0,1-1.676-1.242V.187q0-.221-.481-.7t-.7-.483h-8.106q-.22,0-.7.469t-.481.69v11.4a1.517,1.517,0,0,1-1.649,1.242,1.634,1.634,0,0,1-1.676-1.242V-3.065a1.082,1.082,0,0,1,.275-.607,1.664,1.664,0,0,1,1.346-.69,2.079,2.079,0,0,1,1.237.441,14.4,14.4,0,0,0,1.539-.441h8.326a4.4,4.4,0,0,1,2.872,1.407,3.909,3.909,0,0,1,1.525,2.76ZM435.953,1.78a1.365,1.365,0,0,1-.6.608,2.417,2.417,0,0,1-.8.083,1.536,1.536,0,0,1-1.4-.694,4.072,4.072,0,0,1-.206-.93,3.517,3.517,0,0,0-.261-1.014A1.727,1.727,0,0,0,431.721-1h-8.106A1.717,1.717,0,0,0,422.379.763a1.824,1.824,0,0,0,1.237,1.791h8.464a5.19,5.19,0,0,1,3.009,1.828,5.132,5.132,0,0,1,1.14,3.324,5.172,5.172,0,0,1-1.14,3.352,5.061,5.061,0,0,1-3.009,1.8h-8.793a4.607,4.607,0,0,1-2.94-1.715,4.81,4.81,0,0,1-1.319-3.181q0-1.909,1.759-1.909a1.393,1.393,0,0,1,1.4.689q0,.055.275,1.57a1.935,1.935,0,0,0,.481.716q.426.468.673.468h8.106a1.887,1.887,0,0,0,0-3.582h-8.436a5.432,5.432,0,0,1-3.036-1.81,4.985,4.985,0,0,1-1.14-3.3,5.042,5.042,0,0,1,1.209-3.4,5.3,5.3,0,0,1,3.188-1.768h8.354a4.394,4.394,0,0,1,3.078,1.577,4.543,4.543,0,0,1,1.4,3.126A2.822,2.822,0,0,1,435.953,1.78Z" transform="translate(1.941 123.516)" fill="#2e1f26"/>
    </g>
  </g>
</svg>
