<svg xmlns="http://www.w3.org/2000/svg" viewBox="0 0 1087 790" width="1087" height="1000">
	<defs>
		<linearGradient id="grd1" gradientUnits="userSpaceOnUse"  x1="630.99" y1="597.24" x2="630.99" y2="112.86">
			<stop offset="0" stop-color="#808080" stop-opacity="0.25" />
			<stop offset="0.54" stop-color="#808080" stop-opacity="0.12" />
			<stop offset="1" stop-color="#808080" stop-opacity="0.1" />
		</linearGradient>
		<linearGradient id="grd2" gradientUnits="userSpaceOnUse"  x1="119499.638" y1="333144.231" x2="119499.638" y2="137466.285">
			<stop offset="0" stop-color="#808080" stop-opacity="0.25" />
			<stop offset="0.54" stop-color="#808080" stop-opacity="0.12" />
			<stop offset="1" stop-color="#808080" stop-opacity="0.1" />
		</linearGradient>
		<linearGradient id="grd3" gradientUnits="userSpaceOnUse"  x1="36730.255" y1="272875.704" x2="36730.255" y2="153387.955">
			<stop offset="0" stop-color="#808080" stop-opacity="0.25" />
			<stop offset="0.54" stop-color="#808080" stop-opacity="0.12" />
			<stop offset="1" stop-color="#808080" stop-opacity="0.1" />
		</linearGradient>
		<linearGradient id="grd4" gradientUnits="userSpaceOnUse"  x1="127840.716" y1="154759.45" x2="127840.716" y2="117471.178">
			<stop offset="0" stop-color="#808080" stop-opacity="0.25" />
			<stop offset="0.54" stop-color="#808080" stop-opacity="0.12" />
			<stop offset="1" stop-color="#808080" stop-opacity="0.1" />
		</linearGradient>
		<linearGradient id="grd5" gradientUnits="userSpaceOnUse"  x1="35162.009" y1="43465.803" x2="43426.637" y2="43465.803">
			<stop offset="0" stop-color="#808080" stop-opacity="0.25" />
			<stop offset="0.54" stop-color="#808080" stop-opacity="0.12" />
			<stop offset="1" stop-color="#808080" stop-opacity="0.1" />
		</linearGradient>
		<linearGradient id="grd6" gradientUnits="userSpaceOnUse"  x1="112921.624" y1="362654.816" x2="112921.624" y2="178618.104">
			<stop offset="0" stop-color="#808080" stop-opacity="0.25" />
			<stop offset="0.54" stop-color="#808080" stop-opacity="0.12" />
			<stop offset="1" stop-color="#808080" stop-opacity="0.1" />
		</linearGradient>
		<linearGradient id="grd7" gradientUnits="userSpaceOnUse"  x1="21491.02" y1="41210.07" x2="21491.02" y2="34978.546">
			<stop offset="0" stop-color="#808080" stop-opacity="0.25" />
			<stop offset="0.54" stop-color="#808080" stop-opacity="0.12" />
			<stop offset="1" stop-color="#808080" stop-opacity="0.1" />
		</linearGradient>
		<linearGradient id="grd8" gradientUnits="userSpaceOnUse"  x1="175230.79" y1="297085.471" x2="175230.79" y2="121370.1">
			<stop offset="0" stop-color="#808080" stop-opacity="0.25" />
			<stop offset="0.54" stop-color="#808080" stop-opacity="0.12" />
			<stop offset="1" stop-color="#808080" stop-opacity="0.1" />
		</linearGradient>
		<linearGradient id="grd9" gradientUnits="userSpaceOnUse"  x1="176346.975" y1="64416.076" x2="176346.975" y2="43622.436">
			<stop offset="0" stop-color="#808080" stop-opacity="0.25" />
			<stop offset="0.54" stop-color="#808080" stop-opacity="0.12" />
			<stop offset="1" stop-color="#808080" stop-opacity="0.1" />
		</linearGradient>
	</defs>
	<style>
		tspan { white-space:pre }
		.shp0 { opacity: 0.2;fill: #41e5b0 } 
		.shp1 { fill: #41e5b0 } 
		.shp2 { fill: none;stroke: #535461;stroke-width: 2 } 
		.shp3 { opacity: 0.102;fill: #41e5b0 } 
		.shp4 { opacity: 0.2;fill: #f5f5f5 } 
		.shp5 { fill: url(#grd1) } 
		.shp6 { fill: #535461 } 
		.shp7 { fill: #f1f1f4 } 
		.shp8 { fill: #ffffff } 
		.shp9 { fill: #e6e8ec } 
		.shp10 { opacity: 0.102;fill: #000000 } 
		.shp11 { fill: url(#grd2) } 
		.shp12 { fill: url(#grd3) } 
		.shp13 { fill: url(#grd4) } 
		.shp14 { fill: #f7c4a7 } 
		.shp15 { opacity: 0.051;fill: #000000 } 
		.shp16 { fill: #575988 } 
		.shp17 { fill: #f3b5b7 } 
		.shp18 { fill: url(#grd5) } 
		.shp19 { fill: #dddbe2 } 
		.shp20 { fill: #b96b6b } 
		.shp21 { fill: url(#grd6) } 
		.shp22 { fill: #4f4d59 } 
		.shp23 { fill: #787c9c } 
		.shp24 { fill: #000000 } 
		.shp25 { fill: #714b4f } 
		.shp26 { fill: #e6e6f0 } 
		.shp27 { fill: #67647e } 
		.shp28 { fill: #ba7855 } 
		.shp29 { fill: url(#grd7) } 
		.shp30 { fill: #503f43 } 
		.shp31 { fill: url(#grd8) } 
		.shp32 { fill: #fdc2cc } 
		.shp33 { fill: #47465a } 
		.shp34 { opacity: 0.302;fill: #ffffff } 
		.shp35 { fill: #565171 } 
		.shp36 { fill: #f68080 } 
		.shp37 { fill: url(#grd9) } 
	</style>
	<path id="Layer" class="shp0" d="M153.41,43.62c-8.06,-0.23 -16.32,0 -23.88,2.32c-20.57,6.32 -30.32,27 -27.15,44.87c3.17,17.87 16.21,33.44 29.74,47.67c13.53,14.23 28.19,28.3 35.61,45.31c3.7,8.49 5.43,18 1.67,26.48c-5.8,13.07 -23.29,20.37 -40.08,21.89c-16.79,1.52 -33.65,-1.44 -50.5,-2.43c-7.07,-0.41 -14.34,-0.46 -21,1.45c-7.31,2.08 -13.4,6.33 -19,10.76c-21.89,17.36 -39.41,41.07 -36.55,65.94c3.2,28.23 31.74,50.54 63,62.51c10.35,4 21.3,7.18 30.41,12.84c24,14.93 29.39,42.93 27,67.64c-2.39,24.71 -10.53,49.45 -6,73.94c5.33,28.49 28.92,54.23 60.74,66.25c28.35,10.71 63.83,10 89,-5.11c12.27,-7.38 21.55,-17.63 29.62,-28.23c2.99,-3.91 5.86,-7.91 8.59,-12.01c2.73,-4.09 5.33,-8.28 7.79,-12.54c2.46,-4.26 4.78,-8.6 6.96,-13.02c2.18,-4.41 4.22,-8.9 6.11,-13.44c3.51,-8.49 6.81,-17.62 15,-23.52c5,-3.63 11.48,-5.66 17.89,-7.24c19.32,-4.76 39.67,-6.06 59.17,-10.3c19.5,-4.24 39.07,-12.15 49.67,-26.28c15,-20 8,-45.62 8.07,-69.14c0.12,-53.66 39.11,-101.69 53.5,-154c4.7,-17.09 6.45,-36 -4.05,-51.25c-7.13,-10.35 -19.16,-17.82 -31.8,-23.59c-27.81,-12.69 -59.42,-18.34 -90.51,-23.84c-43.21,-7.64 -95.68,-8.63 -129.17,-33.35c-32.09,-23.68 -76.06,-40.59 -119.85,-40.59z" />
	<g id="Layer" style="opacity: 0.502">
		<path id="Layer" class="shp1" d="M27.34,349.35c-2.14,3.16 -3.9,7.75 -1.1,13.1c5.5,10.5 19.1,8.34 25.71,18.39c0.44,0.69 0.83,1.41 1.17,2.16c0.34,0.74 0.64,1.51 0.88,2.3c0.24,0.78 0.43,1.58 0.56,2.39c0.13,0.81 0.21,1.63 0.24,2.45c0.25,5.69 -1.51,10.17 -2.42,15.18c-0.29,1.46 -0.46,2.95 -0.5,4.44c-0.04,1.49 0.06,2.98 0.28,4.46c0.22,1.48 0.57,2.93 1.05,4.34c0.48,1.41 1.07,2.78 1.79,4.1c0.81,1.37 1.72,2.68 2.72,3.91c1.01,1.23 2.11,2.38 3.3,3.44c1.19,1.06 2.45,2.02 3.79,2.88c1.34,0.86 2.74,1.62 4.19,2.26c5.12,2.26 10,2.84 14.9,3.94c1.52,0.35 3.03,0.74 4.53,1.16c1.5,0.43 2.99,0.89 4.46,1.39c1.48,0.5 2.94,1.04 4.38,1.61c1.45,0.58 2.88,1.19 4.3,1.84c0.67,0.28 1.34,0.59 1.99,0.91c0.65,0.33 1.3,0.67 1.93,1.04c0.63,0.37 1.25,0.76 1.85,1.16c0.6,0.41 1.2,0.84 1.77,1.28c0.7,0.62 1.39,1.25 2.06,1.91c0.67,0.65 1.33,1.32 1.96,2.01c0.64,0.69 1.26,1.39 1.86,2.11c0.6,0.72 1.18,1.45 1.75,2.2l21.27,26.26c0.68,0.88 1.37,1.75 2.08,2.61c0.71,0.85 1.45,1.69 2.2,2.51c0.75,0.82 1.52,1.63 2.31,2.41c0.79,0.79 1.59,1.56 2.41,2.31c0.9,0.72 1.81,1.42 2.75,2.08c0.94,0.66 1.9,1.3 2.88,1.9c0.98,0.6 1.98,1.17 2.99,1.71c1.02,0.54 2.05,1.05 3.1,1.52c8.49,4.23 17.37,8.56 24.74,8.07c7.37,-0.49 12.49,-7.6 9,-17.54c-3.3,-9.46 -12.6,-17.43 -16.82,-26.87c-6.65,-14.88 2.06,-26 -3.51,-40.9c-5.34,-14.32 -20.31,-23.92 -29.87,-37c-6.86,-9.3 -10.68,-20.12 -16.86,-29.89c-9,-14 -22.4,-24.71 -35,-30.13c-2.76,-1.17 -5.58,-2.16 -8.47,-2.96c-2.89,-0.8 -5.82,-1.4 -8.79,-1.82c-2.97,-0.41 -5.95,-0.63 -8.95,-0.64c-2.99,-0.02 -5.99,0.17 -8.96,0.54c-4.56,0.5 -9.05,1.35 -12.29,4.08c-3.44,2.9 -3,8.32 -5.24,12.17c-2.57,4.43 -7.47,6.94 -10.38,11.22z" />
		<path id="Layer" class="shp2" d="M190.11,506.27c-42.94,-77.51 -149.42,-177.06 -149.42,-177.06" />
		<path id="Layer" class="shp2" d="M98.65,387.96c-29.45,-33.17 -72,-24.9 -72,-24.9" />
		<path id="Layer" class="shp2" d="M120.15,411.82c-16.26,-19.12 -63.26,13.75 -63.26,13.75" />
		<path id="Layer" class="shp2" d="M90.21,326.51c0,0 -4.95,25.16 12.86,66.26" />
		<path id="Layer" class="shp2" d="M134.49,428.53c33.44,12.13 37.6,-4.37 37.6,-4.37" />
		<path id="Layer" class="shp2" d="M138.14,481.88c0,0 20.41,-23.59 11.13,-35.17" />
	</g>
	<path id="Layer" class="shp1" d="M7.33,233.88c-5,5.91 -9.68,14.09 -6,22.16c7.08,15.84 33.29,8.09 42.64,22.84c2.8,4.41 3.18,9.8 2.53,14.61c-1.26,9.41 -5.92,17.4 -9.14,26c-3.22,8.6 -4.89,19 -0.35,28.08c4.37,8.79 13.58,14.34 22.5,16.55c8.92,2.21 17.86,1.71 26.77,2c2.64,0.1 5.28,0.28 7.92,0.52c2.63,0.25 5.26,0.56 7.88,0.95c2.62,0.39 5.22,0.84 7.82,1.37c2.59,0.53 5.17,1.12 7.73,1.78c1.12,0.25 2.24,0.55 3.34,0.9c1.1,0.34 2.19,0.73 3.26,1.16c1.07,0.43 2.12,0.9 3.15,1.42c1.03,0.51 2.04,1.07 3.03,1.66c4.55,2.91 8.23,7.18 11.83,11.38l32,37.29c4.25,5 8.59,10 13.86,13.67c6.08,4.23 13,6.38 19.81,8.45c14.65,4.48 30,9 44,5.93c14,-3.07 25.75,-16.45 22.25,-31.94c-3.33,-14.75 -18.35,-25.21 -23.41,-39.66c-8,-22.77 11.75,-43.89 5.82,-67.06c-5.68,-22.22 -30.86,-33.68 -44.86,-52.49c-10,-13.48 -13.94,-30.34 -22.68,-44.68c-12.62,-20.7 -34.62,-34.41 -56.52,-39.62c-21.9,-5.21 -43.93,-2.78 -64.47,2.43c-8.7,2.21 -17.4,5 -24.3,10.52c-7.33,5.87 -8.17,14.78 -13.51,21.86c-6.19,8.23 -16.16,13.92 -22.9,21.92z" />
	<path id="Layer" class="shp2" d="M265.24,445.88c-57.09,-116.1 -226.76,-249.6 -226.76,-249.6" />
	<path id="Layer" class="shp2" d="M129.41,276.54c-45.17,-46.31 -127.54,-19.66 -127.54,-19.66" />
	<path id="Layer" class="shp2" d="M162.58,309.79c-24.8,-26.91 -122.91,42.09 -122.91,42.09" />
	<path id="Layer" class="shp2" d="M132.26,176.76c0,0 -16.91,43.39 4,106.46" />
	<path id="Layer" class="shp2" d="M184.41,333.25c59.09,10.05 71.9,-18.68 71.9,-18.68" />
	<path id="Layer" class="shp2" d="M175.1,420.98c0,0 45.47,-45.48 31.57,-62" />
	<path id="Layer" class="shp3" d="M1082.97,647.16c0,-68.86 -207.85,-124.52 -465,-124.52c-257.15,0 -465,55.66 -465,124.52c0,68.86 207.85,124.52 465,124.52c257.15,0 465,-55.66 465,-124.52z" />
	<path id="Layer" class="shp1" d="M980.15,0.41c0,0 -35.83,35.83 -15.6,89c20.23,53.17 -34.68,141.59 -34.68,141.59c0,0 0.59,-0.09 1.68,-0.28c73.59,-13 110.16,-97.16 69.24,-159.69c-15.21,-23.24 -27.7,-50.5 -20.64,-70.62z" />
	<path id="Layer" class="shp2" d="M929.87,231c53.75,-14.45 70.51,-115.01 50.28,-150.84c-20.23,-35.83 0,-79.75 0,-79.75" />
	<path id="Layer" class="shp1" d="M1043.97,145.34c0,0 -40.89,-6.51 -44.61,30.13c-3.72,36.64 -78.62,41.72 -78.62,41.72l1.4,0.93c61.84,40.59 121,25.86 112,-28c-3.27,-20.08 -3,-40.24 9.83,-44.78z" />
	<path id="Layer" class="shp4" d="M1043.97,145.34c0,0 -40.89,-6.51 -44.61,30.13c-3.72,36.64 -78.62,41.72 -78.62,41.72l1.4,0.93c61.84,40.59 121,25.86 112,-28c-3.27,-20.08 -3,-40.24 9.83,-44.78z" />
	<path id="Layer" class="shp2" d="M920.74,217.16c46.97,27.45 96.71,-7.18 94.1,-36c-2.61,-28.82 29.13,-35.82 29.13,-35.82" />
	<path id="Layer" class="shp2" d="M246.7,279.8c0,0 -13.26,-45 2.49,-78.14c1.66,-3.44 3.04,-7 4.13,-10.65c1.09,-3.66 1.88,-7.39 2.37,-11.18c0.49,-3.78 0.67,-7.6 0.55,-11.41c-0.12,-3.81 -0.56,-7.61 -1.29,-11.35c-0.36,-1.79 -0.77,-3.57 -1.22,-5.34c-0.45,-1.77 -0.93,-3.53 -1.46,-5.27c-0.53,-1.75 -1.09,-3.48 -1.7,-5.2c-0.61,-1.72 -1.25,-3.43 -1.94,-5.12" />
	<path id="Layer" class="shp1" d="M255.48,108.11c-1.88,-1.88 -4.42,-2.93 -7.07,-2.93c-2.65,0 -5.2,1.05 -7.07,2.93c-1.88,1.88 -2.93,4.42 -2.93,7.07c0,5.51 10,21.51 10,21.51c0,0 10,-15.99 10,-21.51c0,-2.65 -1.05,-5.2 -2.93,-7.07z" />
	<path id="Layer" class="shp1" d="M274.93,145.74c1.59,-2.22 2.2,-5 1.69,-7.68c-0.51,-2.68 -2.1,-5.04 -4.39,-6.53c-2.29,-1.48 -5.09,-1.97 -7.75,-1.34c-2.66,0.63 -4.94,2.32 -6.32,4.68c-3,4.63 -3.31,23.49 -3.31,23.49c0,0 17.08,-8 20.08,-12.63z" />
	<path id="Layer" class="shp1" d="M274.21,197.97c2.48,-1.12 4.4,-3.21 5.31,-5.78c0.91,-2.57 0.73,-5.4 -0.5,-7.84c-1.23,-2.43 -3.4,-4.26 -6,-5.06c-2.61,-0.8 -5.43,-0.5 -7.81,0.84c-4.92,2.48 -14.71,18.6 -14.71,18.6c0,0 18.78,1.71 23.71,-0.77z" />
	<path id="Layer" class="shp1" d="M264.77,237.34c2.28,-1.52 3.83,-3.9 4.3,-6.6c0.47,-2.7 -0.18,-5.47 -1.81,-7.67c-1.63,-2.2 -4.09,-3.64 -6.8,-3.98c-2.72,-0.34 -5.45,0.45 -7.57,2.18c-4.44,3.28 -11.36,20.82 -11.36,20.82c0,0 18.8,-1.48 23.24,-4.76z" />
	<path id="Layer" class="shp1" d="M233.88,159.44c4,3.84 22.39,7.83 22.39,7.83c0,0 -4.51,-18.31 -8.47,-22.15c-1.87,-1.99 -4.47,-3.14 -7.21,-3.16c-2.73,-0.02 -5.36,1.07 -7.26,3.03c-1.9,1.96 -2.92,4.62 -2.82,7.35c0.1,2.73 1.32,5.3 3.37,7.11z" />
	<path id="Layer" class="shp1" d="M223.41,205.64c4.93,2.48 23.71,0.77 23.71,0.77c0,0 -9.79,-16.12 -14.71,-18.6c-2.35,-1.06 -5.02,-1.17 -7.45,-0.32c-2.43,0.86 -4.44,2.62 -5.6,4.92c-1.16,2.3 -1.39,4.96 -0.63,7.43c0.75,2.47 2.43,4.54 4.68,5.8z" />
	<path id="Layer" class="shp1" d="M219.41,251.94c4.44,3.28 23.24,4.76 23.24,4.76c0,0 -6.92,-17.54 -11.36,-20.82c-2.14,-1.43 -4.74,-1.97 -7.27,-1.53c-2.53,0.44 -4.79,1.84 -6.32,3.9c-1.53,2.06 -2.2,4.64 -1.88,7.19c0.32,2.55 1.6,4.88 3.59,6.5z" />
	<path id="Layer" class="shp5" d="M1072.41,541.5c0.99,-0.01 1.98,0.18 2.9,0.56c0.92,0.37 1.76,0.93 2.46,1.63c0.71,0.7 1.27,1.53 1.65,2.45c0.38,0.92 0.58,1.9 0.58,2.9l0,6.07c0,5.53 -1.09,11.01 -3.21,16.13c-2.12,5.11 -5.22,9.76 -9.13,13.67c-3.91,3.91 -8.56,7.02 -13.67,9.13c-5.11,2.12 -10.59,3.21 -16.13,3.21l-813.68,0c-5.53,0 -11.01,-1.09 -16.13,-3.21c-5.11,-2.12 -9.76,-5.22 -13.67,-9.13c-3.91,-3.91 -7.02,-8.56 -9.13,-13.67c-2.12,-5.11 -3.21,-10.59 -3.21,-16.13l0,-6.07c0,-0.99 0.19,-1.97 0.57,-2.88c0.38,-0.91 0.93,-1.74 1.63,-2.44c0.7,-0.7 1.53,-1.25 2.44,-1.63c0.91,-0.38 1.89,-0.57 2.88,-0.57l88.1,0c-0.49,-0.98 -0.92,-1.99 -1.3,-3.02c-0.37,-1.03 -0.69,-2.08 -0.94,-3.15c-0.25,-1.07 -0.44,-2.14 -0.57,-3.23c-0.13,-1.09 -0.19,-2.18 -0.19,-3.28v-387.46c0,-3.74 0.74,-7.45 2.17,-10.9c1.43,-3.46 3.53,-6.6 6.18,-9.24c2.65,-2.65 5.79,-4.74 9.24,-6.18c3.46,-1.43 7.16,-2.17 10.9,-2.17l658.67,0c3.74,0 7.44,0.74 10.9,2.17c3.46,1.43 6.6,3.53 9.24,6.17c2.65,2.64 4.74,5.78 6.18,9.24c1.43,3.45 2.17,7.16 2.17,10.9v387.48c0,1.1 -0.07,2.19 -0.19,3.28c-0.13,1.09 -0.32,2.17 -0.57,3.23c-0.25,1.07 -0.57,2.12 -0.94,3.15c-0.37,1.03 -0.81,2.04 -1.3,3.02zM713.85,565.6l8.08,-8.29h-181.11l7.3,8.29z" />
	<path id="Layer" class="shp6" d="M282.74,141.61v387.87c0,12.86 10.4,23.26 23.26,23.26h652.92c12.86,0 23.26,-10.4 23.26,-23.26v-387.87c0,-12.86 -10.4,-23.26 -23.26,-23.26h-652.92c-12.86,0 -23.26,10.4 -23.26,23.26z" />
	<path id="Layer" class="shp7" d="M297.47,536.54h668.52v-354.87h-668.52z" />
	<path id="Layer" class="shp8" d="M637.62,150.74c0,-3.26 -2.63,-5.89 -5.89,-5.89c-3.26,0 -5.89,2.63 -5.89,5.89c0,3.26 2.63,5.89 5.89,5.89c3.26,0 5.89,-2.63 5.89,-5.89z" />
	<path id="Layer" class="shp6" d="M734.95,537.27l-23,23.56h-162l-20.76,-23.56h-329.65c-0.97,0 -1.92,0.19 -2.82,0.56c-0.89,0.37 -1.7,0.91 -2.39,1.6c-0.68,0.68 -1.23,1.49 -1.6,2.39c-0.37,0.89 -0.56,1.85 -0.56,2.82v5.94c0,5.41 1.07,10.77 3.14,15.77c2.07,5 5.11,9.54 8.94,13.37c3.83,3.82 8.37,6.86 13.38,8.92c5,2.07 10.36,3.13 15.77,3.12l795.2,0c5.41,0 10.76,-1.07 15.76,-3.13c5,-2.07 9.54,-5.1 13.36,-8.93c3.82,-3.82 6.86,-8.36 8.93,-13.36c2.07,-5 3.13,-10.35 3.13,-15.76v-5.94c0,-0.97 -0.19,-1.92 -0.56,-2.82c-0.37,-0.89 -0.91,-1.7 -1.6,-2.39c-0.68,-0.68 -1.49,-1.23 -2.39,-1.6c-0.89,-0.37 -1.85,-0.56 -2.82,-0.56z" />
	<path id="Layer" class="shp8" d="M338.3,346.45h182.77v-137.74h-182.77z" />
	<path id="Layer" class="shp0" d="M356.18,255.06h60.92v-34.43h-60.92z" />
	<path id="Layer" class="shp9" d="M431.67,228.58h71.52v-7.95h-71.52z" />
	<path id="Layer" class="shp9" d="M431.67,241.82h50.33v-7.95h-50.33z" />
	<path id="Layer" class="shp9" d="M431.67,255.06h71.52v-7.95h-71.52z" />
	<path id="Layer" class="shp9" d="M356.18,268.31h147.01v-7.95h-147.01z" />
	<path id="Layer" class="shp9" d="M356.18,281.55h147.01v-7.95h-147.01z" />
	<path id="Layer" class="shp9" d="M356.18,294.8h147.01v-7.95h-147.01z" />
	<path id="Layer" class="shp9" d="M356.18,308.04h135.09v-7.95h-135.09z" />
	<path id="Layer" class="shp9" d="M356.18,321.28h147.01v-7.95h-147.01z" />
	<path id="Layer" class="shp9" d="M356.18,334.53h147.01v-7.95h-147.01z" />
	<path id="Layer" class="shp8" d="M539.61,346.45h182.77v-137.74h-182.77z" />
	<path id="Layer" class="shp0" d="M557.48,255.06h60.92v-34.43h-60.92z" />
	<path id="Layer" class="shp9" d="M632.98,228.58h71.52v-7.95h-71.52z" />
	<path id="Layer" class="shp9" d="M632.98,241.82h50.33v-7.95h-50.33z" />
	<path id="Layer" class="shp9" d="M632.98,255.06h71.52v-7.95h-71.52z" />
	<path id="Layer" class="shp9" d="M557.48,268.31h147.01v-7.95h-147.01z" />
	<path id="Layer" class="shp9" d="M557.48,281.55h147.01v-7.95h-147.01z" />
	<path id="Layer" class="shp9" d="M557.48,294.8h147.01v-7.95h-147.01z" />
	<path id="Layer" class="shp9" d="M557.48,308.04h135.09v-7.95h-135.09z" />
	<path id="Layer" class="shp9" d="M557.48,321.28h147.01v-7.95h-147.01z" />
	<path id="Layer" class="shp9" d="M557.48,334.53h147.01v-7.95h-147.01z" />
	<path id="Layer" class="shp8" d="M740.91,346.45h182.77v-137.74h-182.77z" />
	<path id="Layer" class="shp0" d="M758.79,255.06h60.92v-34.43h-60.92z" />
	<path id="Layer" class="shp9" d="M834.28,228.58h71.52v-7.95h-71.52z" />
	<path id="Layer" class="shp9" d="M834.28,241.82h50.33v-7.95h-50.33z" />
	<path id="Layer" class="shp9" d="M834.28,255.06h71.52v-7.95h-71.52z" />
	<path id="Layer" class="shp9" d="M758.79,268.31h147.01v-7.95h-147.01z" />
	<path id="Layer" class="shp9" d="M758.79,281.55h147.01v-7.95h-147.01z" />
	<path id="Layer" class="shp9" d="M758.79,294.8h147.01v-7.95h-147.01z" />
	<path id="Layer" class="shp9" d="M758.79,308.04h135.09v-7.95h-135.09z" />
	<path id="Layer" class="shp9" d="M758.79,321.28h147.01v-7.95h-147.01z" />
	<path id="Layer" class="shp9" d="M758.79,334.53h147.01v-7.95h-147.01z" />
	<path id="Layer" class="shp8" d="M338.3,501.4h182.77v-137.74h-182.77z" />
	<path id="Layer" class="shp0" d="M356.18,410.01h60.92v-34.43h-60.92z" />
	<path id="Layer" class="shp9" d="M431.67,383.53h71.52v-7.95h-71.52z" />
	<path id="Layer" class="shp9" d="M431.67,396.78h50.33v-7.95h-50.33z" />
	<path id="Layer" class="shp9" d="M431.67,410.02h71.52v-7.95h-71.52z" />
	<path id="Layer" class="shp9" d="M356.18,423.26h147.01v-7.95h-147.01z" />
	<path id="Layer" class="shp9" d="M356.18,436.51h147.01v-7.95h-147.01z" />
	<path id="Layer" class="shp9" d="M356.18,449.75h147.01v-7.95h-147.01z" />
	<path id="Layer" class="shp9" d="M356.18,463h135.09v-7.95h-135.09z" />
	<path id="Layer" class="shp9" d="M356.18,476.24h147.01v-7.95h-147.01z" />
	<path id="Layer" class="shp9" d="M356.18,489.48h147.01v-7.95h-147.01z" />
	<path id="Layer" class="shp8" d="M539.61,501.4h182.77v-137.74h-182.77z" />
	<path id="Layer" class="shp0" d="M557.48,410.01h60.92v-34.43h-60.92z" />
	<path id="Layer" class="shp9" d="M632.98,383.53h71.52v-7.95h-71.52z" />
	<path id="Layer" class="shp9" d="M632.98,396.78h50.33v-7.95h-50.33z" />
	<path id="Layer" class="shp9" d="M632.98,410.02h71.52v-7.95h-71.52z" />
	<path id="Layer" class="shp9" d="M557.48,423.26h147.01v-7.95h-147.01z" />
	<path id="Layer" class="shp9" d="M557.48,436.51h147.01v-7.95h-147.01z" />
	<path id="Layer" class="shp9" d="M557.48,449.75h147.01v-7.95h-147.01z" />
	<path id="Layer" class="shp9" d="M557.48,463h135.09v-7.95h-135.09z" />
	<path id="Layer" class="shp9" d="M557.48,476.24h147.01v-7.95h-147.01z" />
	<path id="Layer" class="shp9" d="M557.48,489.48h147.01v-7.95h-147.01z" />
	<path id="Layer" class="shp10" d="M740.91,501.4h182.77v-137.74h-182.77z" />
	<path id="Layer" class="shp11" d="M442.07,255.06h-282c-3.4,-0.01 -6.76,0.66 -9.9,1.95c-3.14,1.29 -5.99,3.2 -8.4,5.59c-2.4,2.4 -4.31,5.25 -5.61,8.38c-1.3,3.14 -1.97,6.5 -1.97,9.89l0,390.74c0,3.39 0.68,6.75 1.98,9.88c1.3,3.13 3.21,5.98 5.61,8.37c2.4,2.4 5.25,4.29 8.39,5.59c3.14,1.29 6.5,1.96 9.89,1.95h282c3.39,0.01 6.75,-0.66 9.89,-1.95c3.14,-1.29 5.99,-3.19 8.39,-5.59c2.4,-2.4 4.31,-5.24 5.61,-8.37c1.3,-3.13 1.97,-6.49 1.98,-9.88v-390.74c0,-3.39 -0.67,-6.75 -1.97,-9.89c-1.3,-3.13 -3.21,-5.98 -5.61,-8.38c-2.4,-2.4 -5.25,-4.3 -8.39,-5.59c-3.14,-1.3 -6.5,-1.96 -9.89,-1.96z" />
	<path id="Layer" class="shp6" d="M138.17,280.36v393.08c0,11.06 8.94,20 20,20h285.8c11.06,0 20,-8.94 20,-20v-393.08c0,-11.06 -8.94,-20 -20,-20h-285.8c-11.06,0 -20,8.94 -20,20z" />
	<path id="Layer" class="shp7" d="M154.72,652.48h292.69v-351.15h-292.69z" />
	<path id="Layer" class="shp8" d="M303.71,280.23c0,-2.2 -1.77,-3.97 -3.97,-3.97c-2.2,0 -3.97,1.77 -3.97,3.97c0,2.2 1.77,3.97 3.97,3.97c2.2,0 3.97,-1.77 3.97,-3.97z" />
	<path id="Layer" class="shp8" d="M311.66,672.25c0,-6.59 -5.33,-11.92 -11.92,-11.92c-6.59,0 -11.92,5.33 -11.92,11.92c0,6.59 5.33,11.92 11.92,11.92c6.59,0 11.92,-5.33 11.92,-11.92z" />
	<path id="Layer" class="shp8" d="M167.37,400.13h83.48v-62.92h-83.48z" />
	<path id="Layer" class="shp0" d="M175.54,358.39h27.83v-15.73h-27.83z" />
	<path id="Layer" class="shp9" d="M210.02,346.29h32.67v-3.63h-32.67z" />
	<path id="Layer" class="shp9" d="M210.02,352.34h22.99v-3.63h-22.99z" />
	<path id="Layer" class="shp9" d="M210.02,358.39h32.67v-3.63h-32.67z" />
	<path id="Layer" class="shp9" d="M175.54,364.44h67.15v-3.63h-67.15z" />
	<path id="Layer" class="shp9" d="M175.54,370.49h67.15v-3.63h-67.15z" />
	<path id="Layer" class="shp9" d="M175.54,376.54h67.15v-3.63h-67.15z" />
	<path id="Layer" class="shp9" d="M175.54,382.59h61.71v-3.63h-61.71z" />
	<path id="Layer" class="shp9" d="M175.54,388.64h67.15v-3.63h-67.15z" />
	<path id="Layer" class="shp9" d="M175.54,394.69h67.15v-3.63h-67.15z" />
	<path id="Layer" class="shp8" d="M259.33,400.13h83.48v-62.92h-83.48z" />
	<path id="Layer" class="shp0" d="M267.49,358.39h27.83v-15.73h-27.83z" />
	<path id="Layer" class="shp9" d="M301.98,346.29h32.67v-3.63h-32.67z" />
	<path id="Layer" class="shp9" d="M301.98,352.34h22.99v-3.63h-22.99z" />
	<path id="Layer" class="shp9" d="M301.98,358.39h32.67v-3.63h-32.67z" />
	<path id="Layer" class="shp9" d="M267.49,364.44h67.15v-3.63h-67.15z" />
	<path id="Layer" class="shp9" d="M267.49,370.49h67.15v-3.63h-67.15z" />
	<path id="Layer" class="shp9" d="M267.49,376.54h67.15v-3.63h-67.15z" />
	<path id="Layer" class="shp9" d="M267.49,382.59h61.71v-3.63h-61.71z" />
	<path id="Layer" class="shp9" d="M267.49,388.64h67.15v-3.63h-67.15z" />
	<path id="Layer" class="shp9" d="M267.49,394.69h67.15v-3.63h-67.15z" />
	<path id="Layer" class="shp8" d="M351.28,400.13h83.48v-62.92h-83.48z" />
	<path id="Layer" class="shp0" d="M359.45,358.39h27.83v-15.73h-27.83z" />
	<path id="Layer" class="shp9" d="M393.93,346.29h32.67v-3.63h-32.67z" />
	<path id="Layer" class="shp9" d="M393.93,352.34h22.99v-3.63h-22.99z" />
	<path id="Layer" class="shp9" d="M393.93,358.39h32.67v-3.63h-32.67z" />
	<path id="Layer" class="shp9" d="M359.45,364.44h67.15v-3.63h-67.15z" />
	<path id="Layer" class="shp9" d="M359.45,370.49h67.15v-3.63h-67.15z" />
	<path id="Layer" class="shp9" d="M359.45,376.54h67.15v-3.63h-67.15z" />
	<path id="Layer" class="shp9" d="M359.45,382.59h61.71v-3.63h-61.71z" />
	<path id="Layer" class="shp9" d="M359.45,388.64h67.15v-3.63h-67.15z" />
	<path id="Layer" class="shp9" d="M359.45,394.69h67.15v-3.63h-67.15z" />
	<path id="Layer" class="shp8" d="M167.37,470.91h83.48v-62.92h-83.48z" />
	<path id="Layer" class="shp0" d="M175.54,429.17h27.83v-15.73h-27.83z" />
	<path id="Layer" class="shp9" d="M210.02,417.07h32.67v-3.63h-32.67z" />
	<path id="Layer" class="shp9" d="M210.02,423.12h22.99v-3.63h-22.99z" />
	<path id="Layer" class="shp9" d="M210.02,429.17h32.67v-3.63h-32.67z" />
	<path id="Layer" class="shp9" d="M175.54,435.22h67.15v-3.63h-67.15z" />
	<path id="Layer" class="shp9" d="M175.54,441.27h67.15v-3.63h-67.15z" />
	<path id="Layer" class="shp9" d="M175.54,447.32h67.15v-3.63h-67.15z" />
	<path id="Layer" class="shp9" d="M175.54,453.37h61.71v-3.63h-61.71z" />
	<path id="Layer" class="shp9" d="M175.54,459.42h67.15v-3.63h-67.15z" />
	<path id="Layer" class="shp9" d="M175.54,465.47h67.15v-3.63h-67.15z" />
	<path id="Layer" class="shp8" d="M259.33,470.91h83.48v-62.92h-83.48z" />
	<path id="Layer" class="shp0" d="M267.49,429.17h27.83v-15.73h-27.83z" />
	<path id="Layer" class="shp9" d="M301.98,417.07h32.67v-3.63h-32.67z" />
	<path id="Layer" class="shp9" d="M301.98,423.12h22.99v-3.63h-22.99z" />
	<path id="Layer" class="shp9" d="M301.98,429.17h32.67v-3.63h-32.67z" />
	<path id="Layer" class="shp9" d="M267.49,435.22h67.15v-3.63h-67.15z" />
	<path id="Layer" class="shp9" d="M267.49,441.27h67.15v-3.63h-67.15z" />
	<path id="Layer" class="shp9" d="M267.49,447.32h67.15v-3.63h-67.15z" />
	<path id="Layer" class="shp9" d="M267.49,453.37h61.71v-3.63h-61.71z" />
	<path id="Layer" class="shp9" d="M267.49,459.42h67.15v-3.63h-67.15z" />
	<path id="Layer" class="shp9" d="M267.49,465.47h67.15v-3.63h-67.15z" />
	<path id="Layer" class="shp8" d="M351.28,470.91h83.48v-62.92h-83.48z" />
	<path id="Layer" class="shp0" d="M359.45,429.17h27.83v-15.73h-27.83z" />
	<path id="Layer" class="shp9" d="M393.93,417.07h32.67v-3.63h-32.67z" />
	<path id="Layer" class="shp9" d="M393.93,423.12h22.99v-3.63h-22.99z" />
	<path id="Layer" class="shp9" d="M393.93,429.17h32.67v-3.63h-32.67z" />
	<path id="Layer" class="shp9" d="M359.45,435.22h67.15v-3.63h-67.15z" />
	<path id="Layer" class="shp9" d="M359.45,441.27h67.15v-3.63h-67.15z" />
	<path id="Layer" class="shp9" d="M359.45,447.32h67.15v-3.63h-67.15z" />
	<path id="Layer" class="shp9" d="M359.45,453.37h61.71v-3.63h-61.71z" />
	<path id="Layer" class="shp9" d="M359.45,459.42h67.15v-3.63h-67.15z" />
	<path id="Layer" class="shp9" d="M359.45,465.47h67.15v-3.63h-67.15z" />
	<path id="Layer" class="shp8" d="M167.37,544.49h83.48v-62.92h-83.48z" />
	<path id="Layer" class="shp0" d="M175.54,502.75h27.83v-15.73h-27.83z" />
	<path id="Layer" class="shp9" d="M210.02,490.65h32.67v-3.63h-32.67z" />
	<path id="Layer" class="shp9" d="M210.02,496.7h22.99v-3.63h-22.99z" />
	<path id="Layer" class="shp9" d="M210.02,502.75h32.67v-3.63h-32.67z" />
	<path id="Layer" class="shp9" d="M175.54,508.8h67.15v-3.63h-67.15z" />
	<path id="Layer" class="shp9" d="M175.54,514.85h67.15v-3.63h-67.15z" />
	<path id="Layer" class="shp9" d="M175.54,520.9h67.15v-3.63h-67.15z" />
	<path id="Layer" class="shp9" d="M175.54,526.95h61.71v-3.63h-61.71z" />
	<path id="Layer" class="shp9" d="M175.54,533h67.15v-3.63h-67.15z" />
	<path id="Layer" class="shp9" d="M175.54,539.05h67.15v-3.63h-67.15z" />
	<path id="Layer" class="shp8" d="M259.33,544.49h83.48v-62.92h-83.48z" />
	<path id="Layer" class="shp0" d="M267.49,502.75h27.83v-15.73h-27.83z" />
	<path id="Layer" class="shp9" d="M301.98,490.65h32.67v-3.63h-32.67z" />
	<path id="Layer" class="shp9" d="M301.98,496.7h22.99v-3.63h-22.99z" />
	<path id="Layer" class="shp9" d="M301.98,502.75h32.67v-3.63h-32.67z" />
	<path id="Layer" class="shp9" d="M267.49,508.8h67.15v-3.63h-67.15z" />
	<path id="Layer" class="shp9" d="M267.49,514.85h67.15v-3.63h-67.15z" />
	<path id="Layer" class="shp9" d="M267.49,520.9h67.15v-3.63h-67.15z" />
	<path id="Layer" class="shp9" d="M267.49,526.95h61.71v-3.63h-61.71z" />
	<path id="Layer" class="shp9" d="M267.49,533h67.15v-3.63h-67.15z" />
	<path id="Layer" class="shp9" d="M267.49,539.05h67.15v-3.63h-67.15z" />
	<path id="Layer" class="shp8" d="M351.28,544.49h83.48v-62.92h-83.48z" />
	<path id="Layer" class="shp0" d="M359.45,502.75h27.83v-15.73h-27.83z" />
	<path id="Layer" class="shp9" d="M393.93,490.65h32.67v-3.63h-32.67z" />
	<path id="Layer" class="shp9" d="M393.93,496.7h22.99v-3.63h-22.99z" />
	<path id="Layer" class="shp9" d="M393.93,502.75h32.67v-3.63h-32.67z" />
	<path id="Layer" class="shp9" d="M359.45,508.8h67.15v-3.63h-67.15z" />
	<path id="Layer" class="shp9" d="M359.45,514.85h67.15v-3.63h-67.15z" />
	<path id="Layer" class="shp9" d="M359.45,520.9h67.15v-3.63h-67.15z" />
	<path id="Layer" class="shp9" d="M359.45,526.95h61.71v-3.63h-61.71z" />
	<path id="Layer" class="shp9" d="M359.45,533h67.15v-3.63h-67.15z" />
	<path id="Layer" class="shp9" d="M359.45,539.05h67.15v-3.63h-67.15z" />
	<path id="Layer" class="shp8" d="M167.37,615.27h83.48v-62.92h-83.48z" />
	<path id="Layer" class="shp0" d="M175.54,573.53h27.83v-15.73h-27.83z" />
	<path id="Layer" class="shp9" d="M210.02,561.43h32.67v-3.63h-32.67z" />
	<path id="Layer" class="shp9" d="M210.02,567.48h22.99v-3.63h-22.99z" />
	<path id="Layer" class="shp9" d="M210.02,573.53h32.67v-3.63h-32.67z" />
	<path id="Layer" class="shp9" d="M175.54,579.58h67.15v-3.63h-67.15z" />
	<path id="Layer" class="shp9" d="M175.54,585.63h67.15v-3.63h-67.15z" />
	<path id="Layer" class="shp9" d="M175.54,591.68h67.15v-3.63h-67.15z" />
	<path id="Layer" class="shp9" d="M175.54,597.73h61.71v-3.63h-61.71z" />
	<path id="Layer" class="shp9" d="M175.54,603.78h67.15v-3.63h-67.15z" />
	<path id="Layer" class="shp9" d="M175.54,609.83h67.15v-3.63h-67.15z" />
	<path id="Layer" class="shp8" d="M259.33,615.27h83.48v-62.92h-83.48z" />
	<path id="Layer" class="shp0" d="M267.49,573.53h27.83v-15.73h-27.83z" />
	<path id="Layer" class="shp9" d="M301.98,561.43h32.67v-3.63h-32.67z" />
	<path id="Layer" class="shp9" d="M301.98,567.48h22.99v-3.63h-22.99z" />
	<path id="Layer" class="shp9" d="M301.98,573.53h32.67v-3.63h-32.67z" />
	<path id="Layer" class="shp9" d="M267.49,579.58h67.15v-3.63h-67.15z" />
	<path id="Layer" class="shp9" d="M267.49,585.63h67.15v-3.63h-67.15z" />
	<path id="Layer" class="shp9" d="M267.49,591.68h67.15v-3.63h-67.15z" />
	<path id="Layer" class="shp9" d="M267.49,597.73h61.71v-3.63h-61.71z" />
	<path id="Layer" class="shp9" d="M267.49,603.78h67.15v-3.63h-67.15z" />
	<path id="Layer" class="shp9" d="M267.49,609.83h67.15v-3.63h-67.15z" />
	<path id="Layer" class="shp10" d="M351.28,615.27h83.48v-62.92h-83.48z" />
	<path id="Layer" class="shp12" d="M227.12,387.5h-144.8c-1.88,0 -3.74,0.36 -5.48,1.08c-1.74,0.72 -3.32,1.77 -4.65,3.09c-1.33,1.33 -2.39,2.9 -3.11,4.64c-0.72,1.74 -1.1,3.6 -1.1,5.48l0,317.09c0,1.88 0.38,3.74 1.1,5.48c0.72,1.74 1.78,3.31 3.11,4.64c1.33,1.33 2.91,2.38 4.65,3.09c1.74,0.72 3.6,1.08 5.48,1.08h144.8c1.88,0 3.74,-0.36 5.48,-1.08c1.74,-0.72 3.32,-1.77 4.65,-3.09c1.33,-1.33 2.39,-2.9 3.11,-4.64c0.72,-1.74 1.1,-3.6 1.1,-5.48v-317.08c0,-1.88 -0.38,-3.74 -1.1,-5.48c-0.72,-1.74 -1.78,-3.31 -3.11,-4.64c-1.33,-1.33 -2.91,-2.38 -4.65,-3.1c-1.74,-0.72 -3.6,-1.08 -5.48,-1.08z" />
	<path id="Layer" class="shp6" d="M69.3,401.16v319.7c0,6.08 4.92,11 11,11h148.85c6.08,0 11,-4.92 11,-11v-319.7c0,-6.08 -4.92,-11 -11,-11h-148.85c-6.08,0 -11,4.92 -11,11z" />
	<path id="Layer" class="shp7" d="M81.88,700.06h145.68v-278.12h-145.68z" />
	<path id="Layer" class="shp8" d="M138.82,406.05c0,-0.73 -0.59,-1.32 -1.32,-1.32c-0.73,0 -1.32,0.59 -1.32,1.32c0,0.73 0.59,1.32 1.32,1.32c0.73,0 1.32,-0.59 1.32,-1.32z" />
	<path id="Layer" class="shp8" d="M144.13,405.72v0.65c0,0.55 0.45,1 1,1h27.14c0.55,0 1,-0.45 1,-1v-0.65c0,-0.55 -0.45,-1 -1,-1h-27.14c-0.55,0 -1,0.45 -1,1z" />
	<path id="Layer" class="shp8" d="M163.33,713.31c0,-5.13 -4.14,-9.27 -9.27,-9.27c-5.13,0 -9.27,4.14 -9.27,9.27c0,5.13 4.14,9.27 9.27,9.27c5.13,0 9.27,-4.14 9.27,-9.27z" />
	<path id="Layer" class="shp10" d="M105.05,513.46h99.34v-74.87h-99.34z" />
	<path id="Layer" class="shp8" d="M105.05,597.69h99.34v-74.87h-99.34z" />
	<path id="Layer" class="shp0" d="M114.77,548.02h33.11v-18.72h-33.11z" />
	<path id="Layer" class="shp9" d="M155.8,533.62h38.87v-4.32h-38.87z" />
	<path id="Layer" class="shp9" d="M155.8,540.82h27.36v-4.32h-27.36z" />
	<path id="Layer" class="shp9" d="M155.8,548.01h38.87v-4.32h-38.87z" />
	<path id="Layer" class="shp9" d="M114.77,555.21h79.91v-4.32h-79.91z" />
	<path id="Layer" class="shp9" d="M114.77,562.41h79.91v-4.32h-79.91z" />
	<path id="Layer" class="shp9" d="M114.77,569.61h79.91v-4.32h-79.91z" />
	<path id="Layer" class="shp9" d="M114.77,576.81h73.43v-4.32h-73.43z" />
	<path id="Layer" class="shp9" d="M114.77,584.01h79.91v-4.32h-79.91z" />
	<path id="Layer" class="shp9" d="M114.77,591.21h79.91v-4.32h-79.91z" />
	<path id="Layer" class="shp8" d="M105.05,682.09h99.34v-74.87h-99.34z" />
	<path id="Layer" class="shp0" d="M114.77,632.42h33.11v-18.72h-33.11z" />
	<path id="Layer" class="shp9" d="M155.8,618.02h38.87v-4.32h-38.87z" />
	<path id="Layer" class="shp9" d="M155.8,625.22h27.36v-4.32h-27.36z" />
	<path id="Layer" class="shp9" d="M155.8,632.42h38.87v-4.32h-38.87z" />
	<path id="Layer" class="shp9" d="M114.77,639.62h79.91v-4.32h-79.91z" />
	<path id="Layer" class="shp9" d="M114.77,646.82h79.91v-4.32h-79.91z" />
	<path id="Layer" class="shp9" d="M114.77,654.02h79.91v-4.32h-79.91z" />
	<path id="Layer" class="shp9" d="M114.77,661.22h73.43v-4.32h-73.43z" />
	<path id="Layer" class="shp9" d="M114.77,668.41h79.91v-4.32h-79.91z" />
	<path id="Layer" class="shp9" d="M114.77,675.61h79.91v-4.32h-79.91z" />
	<path id="Layer" class="shp13" d="M542.9,642.91l0.19,0.25c-4.4,2.16 -6.24,3.05 -11,2.68c-3.92,13.89 -9.21,29.48 -9.6,43.13c0,1.02 -0.1,2.05 -0.3,3.05c-0.2,1 -0.5,1.99 -0.89,2.93c-0.39,0.95 -0.87,1.85 -1.44,2.7c-0.57,0.85 -1.22,1.65 -1.94,2.37c-0.56,4.3 -1.11,8.19 -1.72,10.82c-1.89,8.12 -14.47,14.37 -14.47,14.37c0,0 -0.48,-0.29 -1.25,-0.82c-8.66,6.8 -30.19,3.32 -30.19,3.32c-1.31,0.15 -3.73,-1.38 -6.73,-4c-16.92,-5.48 -53.25,-17.33 -58.05,-19.72c-0.92,-0.46 -1.88,-0.84 -2.86,-1.13c-0.99,-0.29 -2,-0.49 -3.02,-0.6c-1.02,-0.11 -2.05,-0.12 -3.08,-0.04c-1.03,0.08 -2.04,0.25 -3.04,0.52c-2.47,3.79 -10.3,7.57 -19.57,10.88c-0.14,0.1 -0.28,0.2 -0.43,0.3c-0.15,0.09 -0.29,0.18 -0.45,0.27c-0.15,0.08 -0.31,0.16 -0.47,0.23c-0.16,0.07 -0.32,0.14 -0.48,0.2c-0.02,0 -0.04,0 -0.06,0c-0.02,0 -0.04,0 -0.06,0c-0.02,0 -0.04,0 -0.06,0c-0.02,0 -0.04,0 -0.06,0c0.08,0.24 0.15,0.49 0.22,0.74c0.07,0.25 0.13,0.5 0.19,0.75c0.06,0.25 0.11,0.5 0.16,0.75c0.05,0.25 0.09,0.51 0.12,0.76c0.44,3.16 1.97,11.21 0.7,15.53c-0.03,0.13 -0.09,0.26 -0.09,0.38l-0.06,0.22c-0.02,0.06 -0.03,0.12 -0.05,0.17c-0.02,0.06 -0.04,0.12 -0.06,0.17c-0.02,0.06 -0.04,0.11 -0.06,0.17c-0.02,0.06 -0.04,0.11 -0.06,0.17c-0.13,0.32 -0.24,0.63 -0.35,0.94l-0.1,0.29c-0.08,0.25 -0.16,0.51 -0.23,0.76c-0.09,0.36 -0.16,0.73 -0.23,1.1c-0.07,0.37 -0.12,0.74 -0.17,1.11c-0.05,0.37 -0.08,0.74 -0.11,1.12c-0.03,0.37 -0.04,0.75 -0.05,1.12c0,0.04 0,0.08 -0.01,0.13c-0.01,0.04 -0.02,0.08 -0.03,0.12c-0.01,0.04 -0.03,0.08 -0.05,0.12c-0.02,0.04 -0.04,0.08 -0.06,0.11c0,0.03 0,0.1 0,0.1c0,0.13 -0.03,0.25 -0.08,0.36c-0.05,0.11 -0.13,0.22 -0.22,0.3c-0.09,0.08 -0.2,0.15 -0.32,0.19c-0.12,0.04 -0.25,0.05 -0.37,0.04l-1,-0.1h-0.17l-1.57,-0.16l-1.11,-0.12l-0.91,-0.1l-1.63,-0.18l-0.58,-0.06l-1.36,-0.15l-2.69,-0.3c-2.32,-0.26 -4.85,-0.56 -7.46,-0.87l-3,-0.36l-3.15,-0.4l-1.22,-0.16l-1.78,-0.24l-1.24,-0.17l-0.76,-0.1l-3.45,-0.49l-2.65,-0.4l-3,-0.49l-1.54,-0.27l-0.67,-0.12l-0.82,-0.15l-1.68,-0.34l-0.41,-0.09l-0.77,-0.18l-0.53,-0.13c-0.53,-0.13 -1.14,-0.31 -1.39,-0.39c-0.25,-0.08 -0.48,-0.17 -0.7,-0.26l-0.21,-0.09l-0.41,-0.19l-0.22,-0.12l-0.33,-0.19l-0.2,-0.13l-0.27,-0.2l-0.17,-0.14l-0.23,-0.22l-0.14,-0.14l-0.2,-0.25l-0.1,-0.13c-0.02,-0.03 -0.04,-0.06 -0.06,-0.09c-0.02,-0.03 -0.04,-0.06 -0.06,-0.09c-0.02,-0.03 -0.04,-0.06 -0.06,-0.1c-0.02,-0.03 -0.04,-0.06 -0.05,-0.1v-0.08c-0.01,-0.03 -0.02,-0.05 -0.04,-0.08c-0.01,-0.03 -0.02,-0.05 -0.03,-0.08c-0.01,-0.03 -0.02,-0.05 -0.03,-0.08c-0.01,-0.03 -0.02,-0.05 -0.03,-0.08c0,-0.05 0.06,-0.08 0,-0.16c-0.06,-0.08 -0.06,-0.19 -0.06,-0.25c0,-0.06 0,-0.11 0,-0.18c0,-0.07 0,-0.17 0,-0.23c0,-0.06 0,-0.11 0,-0.19c0,-0.08 0,-0.17 0,-0.23c0,-0.06 0,-0.11 0,-0.19c0,-0.08 0,-0.17 0,-0.23c0,-0.06 0,-0.13 0,-0.19l0.06,-0.19c0.49,-3.14 5.38,-6.28 10.54,-5c2.44,0.61 5.58,-0.81 8.75,-3.07c-0.59,0.13 -1.18,0.25 -1.78,0.36c-0.59,0.11 -1.19,0.21 -1.79,0.3c-0.6,0.09 -1.2,0.17 -1.8,0.24c-0.6,0.07 -1.2,0.13 -1.81,0.18h-12.27c-1.29,5.3 -5.83,13.26 -6.87,13.54c-1.04,0.28 -2.02,3.92 -2.42,5.62c-0.11,0.09 -0.23,0.17 -0.36,0.24c-0.13,0.07 -0.26,0.12 -0.4,0.16c-0.14,0.04 -0.28,0.06 -0.42,0.07c-0.14,0.01 -0.29,0 -0.43,-0.02l-1.38,-0.75l-0.16,-0.09l-0.8,-0.43l-0.74,-0.41l-1.59,-0.87l-2.31,-1.28l-1.33,-0.74l-0.2,-0.11l-2.08,-1.17c-2.96,-1.67 -6.26,-3.51 -9.56,-5.51l-1.26,-0.75l-1.56,-0.93l-0.83,-0.5l-1.39,-0.85l-0.78,-0.48l-0.7,-0.43l-1.74,-1.09l-1.95,-1.24c-1.03,-0.66 -2.01,-1.3 -2.94,-1.93c-0.64,-0.41 -1.28,-0.83 -1.9,-1.27c-0.62,-0.44 -1.24,-0.89 -1.84,-1.36c-0.6,-0.47 -1.2,-0.95 -1.78,-1.44c-0.58,-0.49 -1.15,-1 -1.71,-1.52l-0.31,-0.34c-0.04,-0.05 -0.09,-0.1 -0.13,-0.15c-0.04,-0.05 -0.08,-0.1 -0.12,-0.15c-0.04,-0.05 -0.08,-0.1 -0.12,-0.16c-0.04,-0.05 -0.08,-0.11 -0.12,-0.16c-0.07,-0.08 -0.13,-0.16 -0.19,-0.26c-0.05,-0.09 -0.09,-0.19 -0.12,-0.29c-0.03,-0.1 -0.05,-0.21 -0.06,-0.31c-0.01,-0.11 0,-0.21 0.02,-0.32c0.09,-0.24 0.18,-0.47 0.28,-0.69c0.02,-0.05 0.05,-0.11 0.08,-0.16c0.03,-0.05 0.05,-0.11 0.08,-0.16c0.03,-0.05 0.06,-0.1 0.08,-0.16c0.03,-0.05 0.06,-0.1 0.09,-0.15c0.03,-0.05 0.06,-0.1 0.09,-0.15c0.03,-0.05 0.06,-0.1 0.1,-0.14c0.03,-0.05 0.07,-0.09 0.1,-0.14c0.03,-0.05 0.07,-0.09 0.1,-0.14c1.09,-1.38 2.84,-2.11 5.93,-2.06c2.61,-0.05 6.26,0.53 11.45,1.84c0.39,0.1 0.78,0.18 1.17,0.26c0.39,0.07 0.79,0.14 1.19,0.19c0.4,0.05 0.8,0.09 1.2,0.12c0.4,0.03 0.8,0.05 1.2,0.05c11.28,-0.06 22.2,-8.04 22.39,-7.75l0.19,0.29l0.44,-0.29c0,0 0.52,0.79 1.26,2h5.64c8.82,-2.69 32.57,-13.3 50.82,-21.69c9.35,-11.79 21.59,-27.71 26.35,-36.44c8.18,-15 16.35,-10.62 18.87,-10c0.35,0.15 0.7,0.32 1.05,0.49c0.35,0.17 0.69,0.34 1.03,0.53c0.34,0.18 0.67,0.37 1.01,0.57c0.33,0.19 0.66,0.4 0.98,0.6c0.23,-0.13 0.48,-0.25 0.72,-0.36c0.25,-0.11 0.5,-0.21 0.76,-0.29c0.26,-0.08 0.52,-0.15 0.78,-0.21c0.26,-0.06 0.53,-0.1 0.8,-0.13c-0.06,-2.42 1.07,-4.16 5.45,-2.42c6.04,2.4 13.1,5.31 17.41,7.1c-0.97,-1.26 -1.69,-2.1 -1.69,-2.1c4.4,4.37 14.6,3.39 15.72,1.87c1.12,-1.52 2.2,-3.09 3.22,-4.68c1.02,-1.6 1.99,-3.23 2.9,-4.89c0.91,-1.66 1.77,-3.35 2.56,-5.07c0.8,-1.72 1.54,-3.46 2.22,-5.23c-0.19,-0.04 -0.38,-0.08 -0.57,-0.12c-0.19,-0.05 -0.37,-0.09 -0.56,-0.15c-0.19,-0.05 -0.37,-0.11 -0.55,-0.17c-0.18,-0.06 -0.36,-0.13 -0.54,-0.2c0.39,-0.14 0.79,-0.29 1.18,-0.44c-0.19,-0.07 -0.38,-0.12 -0.56,-0.19c0.21,-0.07 0.41,-0.15 0.62,-0.22c0.21,-0.08 0.41,-0.16 0.61,-0.24c0.2,-0.08 0.41,-0.17 0.61,-0.26c0.2,-0.09 0.4,-0.18 0.6,-0.28c0.44,-1.2 0.86,-2.4 1.25,-3.62c0.39,-1.22 0.75,-2.44 1.08,-3.67c0.33,-1.23 0.64,-2.47 0.92,-3.72c0.28,-1.25 0.53,-2.5 0.75,-3.75c1.25,-7.32 4.5,-10.93 8.25,-12.49c-2.59,-1.07 -4.92,-2.67 -6.85,-4.7c-1.93,-2.03 -3.41,-4.45 -4.34,-7.09c-0.93,-2.64 -1.3,-5.45 -1.07,-8.24c0.23,-2.79 1.04,-5.51 2.38,-7.96c-1.54,-4.55 -1.48,-8.81 1.89,-11.81c1.67,-1.83 4.38,-3.24 8.44,-4.24c5.35,-1.25 11.02,-0.54 16.22,-2.4c2.62,-0.94 11.43,2.75 16.7,7.44c9.02,8.03 11.55,17.84 10.93,30.36c-0.44,8.81 1.77,16.93 0.85,25.72c-1.14,10.85 7,20.22 13.72,28.37zM471.23,658.74c-0.14,0.31 -0.3,0.61 -0.46,0.91c-0.16,0.3 -0.33,0.59 -0.5,0.88c-0.17,0.29 -0.36,0.58 -0.55,0.86c-0.19,0.28 -0.39,0.56 -0.59,0.83l2.4,0.81zM458,668.77l0.01,0.01c0,0 0,-0.01 0,-0.01zM458.01,668.78c0.9,1.97 8.41,8.89 14.82,14.59c-0.06,-0.33 -0.12,-0.67 -0.15,-1.01c-0.04,-0.34 -0.06,-0.68 -0.07,-1.02c-0.01,-0.34 -0.01,-0.68 0.01,-1.02c0.02,-0.34 0.05,-0.68 0.09,-1.02l-0.13,-1.78zM452.06,656.03c-0.02,-0.13 -0.05,-0.26 -0.08,-0.39c-0.03,-0.13 -0.06,-0.26 -0.1,-0.39c-0.04,-0.13 -0.08,-0.25 -0.12,-0.38c-0.04,-0.13 -0.09,-0.25 -0.14,-0.37l-3.38,-0.21c0.9,0.49 2.22,1.08 3.81,1.74zM413.03,670.28c0,0 0,0.01 0,0.01c0.01,0 0.01,-0.01 0.02,-0.01zM412.73,671.45c-0.1,0.33 -0.2,0.67 -0.31,1c-0.24,0.71 -0.51,1.41 -0.81,2.1c-0.3,0.69 -0.64,1.36 -1.01,2.01c-0.37,0.66 -0.76,1.29 -1.19,1.91l16.46,2.21c-2.14,-2.88 -3.76,-5.19 -4.64,-6.65c-1.34,-2.22 -4.69,-2.8 -8.5,-2.58zM413.03,670.29c-1.74,0.63 -3.32,1.2 -4.75,1.71c1.49,-0.27 3,-0.46 4.44,-0.54c0.11,-0.38 0.21,-0.77 0.3,-1.16z" />
	<path id="Layer" class="shp14" d="M449.26,647.69c0,0 -11.54,-4.86 -20.64,-8.5c-9.1,-3.64 -3.64,8.5 -3.64,8.5c0,0 15.18,4.25 15.18,4.86c0,0.61 12.75,1.21 12.75,1.21z" />
	<path id="Layer" class="shp15" d="M449.26,647.69c0,0 -11.54,-4.86 -20.64,-8.5c-9.1,-3.64 -3.64,8.5 -3.64,8.5c0,0 15.18,4.25 15.18,4.86c0,0.61 12.75,1.21 12.75,1.21z" />
	<path id="Layer" class="shp16" d="M498.41,599.73c0,0 -20.64,-10.93 -24.29,10.32c-0.57,3.22 -1.31,6.41 -2.24,9.54c-0.93,3.14 -2.03,6.22 -3.3,9.23c-1.27,3.01 -2.72,5.95 -4.32,8.8c-1.61,2.85 -3.37,5.61 -5.29,8.26c-1.92,2.65 -10.93,2.43 -15.18,-1.82c0,0 10.32,12.14 5.46,13.36c0,0 10.93,7.89 15.79,5.46c4.86,-2.43 8.5,-18.82 10.32,-23.07c1.82,-4.25 8.5,-41.3 23.05,-40.08z" />
	<path id="Layer" class="shp10" d="M498.41,599.73c0,0 -20.64,-10.93 -24.29,10.32c-0.57,3.22 -1.31,6.41 -2.24,9.54c-0.93,3.14 -2.03,6.22 -3.3,9.23c-1.27,3.01 -2.72,5.95 -4.32,8.8c-1.61,2.85 -3.37,5.61 -5.29,8.26c-1.92,2.65 -10.93,2.43 -15.18,-1.82c0,0 10.32,12.14 5.46,13.36c0,0 10.93,7.89 15.79,5.46c4.86,-2.43 8.5,-18.82 10.32,-23.07c1.82,-4.25 8.5,-41.3 23.05,-40.08z" />
	<path id="Layer" class="shp14" d="M486.9,592.44c0,0 12.75,14.57 13.36,26.71c0.61,12.14 14.57,-12.75 15.79,-13.36c1.22,-0.61 -12.15,-21.24 -13.37,-27.91c-1.22,-6.67 -15.78,14.56 -15.78,14.56z" />
	<path id="Layer" class="shp14" d="M495.7,598.67l-8.04,7.28l3.79,15.33l10.32,-9.71l-1.21,-9.71l-4.86,-3.19z" />
	<path id="Layer" class="shp14" d="M327.83,706.59h-13.96l5.46,13.35l13.36,-3.64l-4.86,-9.71z" />
	<path id="Layer" class="shp10" d="M317.09,704.66c0,0 -14.44,10.07 -26.81,6.93c-12.37,-3.14 -15.71,-2 -17.15,2.09c-1.33,3.72 34.51,23.41 40.22,26.52c0.09,0.06 0.19,0.1 0.3,0.11c0.11,0.01 0.22,-0.01 0.32,-0.05c0.1,-0.04 0.19,-0.11 0.25,-0.19c0.07,-0.08 0.11,-0.18 0.13,-0.29c0.39,-1.65 1.33,-5.19 2.33,-5.46c1.31,-0.35 7.3,-11.52 7,-15.93c-0.3,-4.41 -6.59,-13.72 -6.59,-13.72z" />
	<path id="Layer" class="shp17" d="M316.49,704.66c0,0 -14.44,10.07 -26.81,6.93c-12.37,-3.14 -15.71,-2 -17.15,2.09c-1.33,3.72 34.51,23.41 40.22,26.52c0.09,0.06 0.19,0.1 0.3,0.11c0.11,0.01 0.22,-0.01 0.32,-0.05c0.1,-0.04 0.19,-0.11 0.25,-0.19c0.07,-0.08 0.11,-0.18 0.13,-0.29c0.39,-1.65 1.33,-5.19 2.33,-5.46c1.31,-0.35 7.3,-11.52 7,-15.93c-0.3,-4.41 -6.59,-13.72 -6.59,-13.72z" />
	<path id="Layer" class="shp16" d="M435.9,680.48l-40.68,-5.46c-40.68,-5.46 -66.18,31.57 -74.07,32.18l1.82,14h12.14c4.86,0 52.21,-10.32 58.89,-20.64c0.96,-0.25 1.93,-0.42 2.92,-0.5c0.99,-0.08 1.98,-0.06 2.96,0.04c0.98,0.1 1.96,0.3 2.91,0.58c0.95,0.28 1.87,0.65 2.75,1.09c6.07,3 64.36,21.86 64.36,21.86z" />
	<path id="Layer" class="shp10" d="M435.9,680.48l-40.68,-5.46c-40.68,-5.46 -66.18,31.57 -74.07,32.18l1.82,14h12.14c4.86,0 52.21,-10.32 58.89,-20.64c0.96,-0.25 1.93,-0.42 2.92,-0.5c0.99,-0.08 1.98,-0.06 2.96,0.04c0.98,0.1 1.96,0.3 2.91,0.58c0.95,0.28 1.87,0.65 2.75,1.09c6.07,3 64.36,21.86 64.36,21.86z" />
	<path id="Layer" class="shp14" d="M363.65,699.3l-6.68,8.5l6.68,3.64l9.72,-7.28l-9.72,-4.86z" />
	<path id="Layer" class="shp16" d="M479.61,689.58c0,0 -21.84,-18.7 -23.37,-22.1c-1.53,-3.4 -37.34,-26.46 -39.77,-27.07c-2.43,-0.61 -10.32,-4.86 -18.21,9.71c-7.89,14.57 -37,49.78 -37,49.78c0,0 9.11,12.75 12.14,12.14c3.03,-0.61 37,-29.14 39.46,-43.11c0,0 2.43,-5.46 7.89,3.64c5.46,9.1 40.68,52.82 47.36,52.21c0,0 26.11,4.25 31.57,-6.07c5.46,-10.32 -20.07,-29.13 -20.07,-29.13z" />
	<path id="Layer" class="shp18" d="M382.57,660.07h90.91v-68.51h-90.91z" />
	<path id="Layer" class="shp8" d="M386.28,657.27h83.48v-62.92h-83.48z" />
	<path id="Layer" class="shp0" d="M394.45,615.53h27.83v-15.73h-27.83z" />
	<path id="Layer" class="shp9" d="M428.93,603.43h32.67v-3.63h-32.67z" />
	<path id="Layer" class="shp9" d="M428.93,609.48h22.99v-3.63h-22.99z" />
	<path id="Layer" class="shp9" d="M428.93,615.53h32.67v-3.63h-32.67z" />
	<path id="Layer" class="shp9" d="M394.45,621.58h67.15v-3.63h-67.15z" />
	<path id="Layer" class="shp9" d="M394.45,627.63h67.15v-3.63h-67.15z" />
	<path id="Layer" class="shp9" d="M394.45,633.68h67.15v-3.63h-67.15z" />
	<path id="Layer" class="shp9" d="M394.45,639.73h61.71v-3.63h-61.71z" />
	<path id="Layer" class="shp9" d="M394.45,645.78h67.15v-3.63h-67.15z" />
	<path id="Layer" class="shp9" d="M394.45,651.83h67.15v-3.63h-67.15z" />
	<path id="Layer" class="shp17" d="M492.06,600.64c0,0 -7.59,3.34 -8.2,17.3c-0.61,13.96 -14,37.64 -14,37.64l1.21,27.93c1.21,27.93 14.57,14.57 15.79,23.68c1.22,9.11 11.55,15.18 11.55,15.18c0,0 12.14,-6.07 14,-14c1.86,-7.93 3,-27.32 6.07,-34.61c3.07,-7.29 1.21,-52.82 1.21,-52.82l-9.11,-15.79l-4.86,-5.46l-12.75,14.57c-12.75,14.57 -6.98,-9.38 -0.91,-13.62z" />
	<path id="Layer" class="shp10" d="M474.15,674.4c0,0 -1.82,-21.86 3.64,-26.71l10.93,-31c10.93,-31 3.95,-14.87 3.34,-16.09c-0.61,-1.22 -14.27,11.84 -14.27,11.84l-9.11,32.18l2.43,34z" />
	<path id="Layer" class="shp16" d="M473.54,674.4c0,0 -1.82,-21.86 3.64,-26.71l10.93,-31c10.93,-31 4.25,-15.18 3.64,-16.39c-0.61,-1.21 -14.57,12.14 -14.57,12.14l-9.11,32.18l2.43,34z" />
	<path id="Layer" class="shp14" d="M477.79,664.69c0,0 -30.38,-9.71 -32.18,-12.14c-1.8,-2.43 -21.25,-18.21 -27.93,-7.29c-6.68,10.92 24.89,14 24.89,14l32.18,19.43z" />
	<path id="Layer" class="shp10" d="M364.96,707.74l-9,-1.62c-9,-1.62 -14.72,18.85 -22.38,16.94c-7.66,-1.91 -14.72,6.34 -6.62,9c7.32,2.39 38.91,5.74 44.95,6.36c0.12,0.02 0.25,0.01 0.37,-0.03c0.12,-0.04 0.23,-0.1 0.32,-0.18c0.09,-0.08 0.17,-0.18 0.22,-0.29c0.05,-0.11 0.08,-0.24 0.08,-0.36c0.01,-0.58 0.04,-1.17 0.1,-1.75c0.06,-0.58 0.15,-1.16 0.26,-1.73c0.11,-0.57 0.25,-1.14 0.41,-1.7c0.16,-0.56 0.35,-1.11 0.57,-1.66c1.62,-4 0,-12.52 -0.45,-15.76c-0.06,-0.48 -0.15,-0.95 -0.25,-1.42c-0.11,-0.47 -0.23,-0.93 -0.38,-1.39c-0.15,-0.46 -0.32,-0.91 -0.51,-1.35c-0.19,-0.44 -0.4,-0.87 -0.63,-1.3z" />
	<path id="Layer" class="shp17" d="M364.82,708.33l-9,-1.62c-9,-1.62 -14.7,18.86 -22.41,16.94c-7.71,-1.92 -14.72,6.34 -6.62,9c7.32,2.39 38.91,5.74 44.95,6.36c0.12,0.02 0.25,0.01 0.37,-0.03c0.12,-0.04 0.23,-0.1 0.32,-0.18c0.09,-0.08 0.17,-0.18 0.22,-0.29c0.05,-0.11 0.08,-0.24 0.08,-0.36c0.01,-0.58 0.04,-1.17 0.1,-1.75c0.06,-0.58 0.15,-1.16 0.26,-1.73c0.11,-0.57 0.25,-1.14 0.41,-1.7c0.16,-0.56 0.35,-1.11 0.57,-1.66c1.62,-4 0,-12.52 -0.45,-15.76c-0.06,-0.48 -0.15,-0.95 -0.25,-1.42c-0.11,-0.47 -0.23,-0.93 -0.38,-1.39c-0.15,-0.46 -0.32,-0.91 -0.51,-1.35c-0.19,-0.44 -0.4,-0.87 -0.63,-1.3z" />
	<path id="Layer" class="shp10" d="M510.88,580c0,-10.74 -8.69,-19.43 -19.43,-19.43c-10.74,0 -19.43,8.69 -19.43,19.43c0,10.74 8.69,19.43 19.43,19.43c10.74,0 19.43,-8.69 19.43,-19.43z" />
	<path id="Layer" class="shp14" d="M509.06,580c0,-10.74 -8.69,-19.43 -19.43,-19.43c-10.74,0 -19.43,8.69 -19.43,19.43c0,10.74 8.69,19.43 19.43,19.43c10.74,0 19.43,-8.69 19.43,-19.43z" />
	<path id="Layer" class="shp16" d="M484.46,628.26c-4.86,5.47 0,77.11 0,77.11c0,0 33.39,3.04 34,-18.21c0.61,-21.25 13.36,-47.35 13.36,-63.75c0,-16.4 -23.07,-24.29 -23.07,-24.29c2.43,2.43 -19.43,23.67 -24.29,29.14z" />
	<path id="Layer" class="shp10" d="M504.5,633.12c0,0 -8.5,37.64 -28.54,31c0,0 -10.32,15.18 -3,21.86c0,0 17.61,4.25 29.14,-7.29c11.53,-11.54 20.01,-15.81 21.83,-29.81c1.82,-14 3,-33.39 -3,-31.57c-6,1.82 -16.43,15.81 -16.43,15.81z" />
	<path id="Layer" class="shp16" d="M505.11,632.51c0,0 -8.5,37.64 -28.54,31c0,0 -10.32,15.18 -3,21.86c0,0 17.61,4.25 29.14,-7.29c11.53,-11.54 20,-15.79 21.86,-29.75c1.86,-13.96 3,-33.39 -3,-31.57c-6,1.82 -16.46,15.75 -16.46,15.75z" />
	<path id="Layer" class="shp19" d="M374.6,729.36c0,0.06 0,0.12 -0.06,0.17c-0.11,0.26 -0.21,0.52 -0.31,0.78c-0.1,0.26 -0.19,0.53 -0.27,0.8c-0.08,0.27 -0.16,0.54 -0.23,0.81c-0.07,0.27 -0.13,0.54 -0.19,0.82c0.14,-0.48 0.31,-1 0.51,-1.45c0.06,-0.15 0.12,-0.31 0.18,-0.47c0.06,-0.16 0.11,-0.32 0.15,-0.48c0.05,-0.16 0.09,-0.32 0.12,-0.49c0.04,-0.16 0.07,-0.33 0.1,-0.49z" />
	<path id="Layer" class="shp19" d="M327.28,730.88c-2.5,-0.82 -3.55,-2.17 -3.59,-3.59c-1,2 -0.38,4.2 3.15,5.36c7.32,2.39 38.92,5.74 44.95,6.36c0.12,0.02 0.25,0.01 0.37,-0.03c0.12,-0.04 0.23,-0.1 0.33,-0.18c0.09,-0.08 0.17,-0.18 0.22,-0.3c0.05,-0.11 0.08,-0.24 0.08,-0.36v0c0,-0.11 -0.02,-0.22 -0.05,-0.32c-0.04,-0.1 -0.09,-0.2 -0.17,-0.28c-0.07,-0.08 -0.16,-0.15 -0.26,-0.2c-0.1,-0.05 -0.2,-0.08 -0.31,-0.1c-6.65,-0.72 -37.5,-4.01 -44.72,-6.36z" />
	<path id="Layer" class="shp19" d="M273.36,712.61c0.04,-0.11 0.08,-0.22 0.12,-0.33c0.04,-0.11 0.09,-0.22 0.14,-0.33c0.05,-0.11 0.1,-0.21 0.16,-0.32c0.05,-0.11 0.11,-0.21 0.17,-0.31c-0.16,0.17 -0.32,0.34 -0.46,0.52c-0.14,0.18 -0.27,0.37 -0.39,0.57c-0.12,0.2 -0.23,0.4 -0.33,0.62c-0.1,0.21 -0.18,0.43 -0.25,0.65c-1.33,3.72 34.51,23.4 40.22,26.52c0.09,0.06 0.19,0.09 0.3,0.1c0.11,0.01 0.21,-0.01 0.31,-0.05c0.1,-0.04 0.19,-0.11 0.25,-0.19c0.07,-0.08 0.11,-0.18 0.13,-0.29v0c0.02,-0.07 0.02,-0.14 0.02,-0.21c-0.01,-0.07 -0.02,-0.14 -0.05,-0.21c-0.03,-0.07 -0.07,-0.13 -0.12,-0.18c-0.05,-0.05 -0.1,-0.1 -0.17,-0.13c-6.34,-3.46 -41.38,-22.75 -40.06,-26.43z" />
	<path id="Layer" class="shp19" d="M316.87,733.24c-0.32,0.09 -0.64,0.51 -0.93,1.11h0.1c0.26,-0.07 0.72,-0.59 1.28,-1.4c-0.03,0.03 -0.06,0.06 -0.1,0.09c-0.03,0.03 -0.07,0.06 -0.11,0.08c-0.04,0.02 -0.08,0.05 -0.12,0.07c-0.04,0.02 -0.08,0.04 -0.12,0.05z" />
	<path id="Layer" class="shp10" d="M486.93,597.1c-1.71,3.77 -2.07,8 -3.33,12c-0.61,1.93 -1.44,3.78 -2.48,5.52c-1.04,1.74 -2.27,3.35 -3.67,4.81c-1.4,1.46 -2.97,2.75 -4.67,3.85c-1.7,1.1 -3.52,2 -5.43,2.68c6.31,2.52 13.75,-0.56 18.63,-5.66c4.88,-5.1 7.73,-11.89 10.47,-18.49c7.08,4.76 6.22,15.7 8.59,24.22c0.51,1.85 1.22,3.64 2.11,5.33c0.89,1.7 1.96,3.29 3.19,4.76c1.23,1.47 2.61,2.8 4.13,3.98c1.51,1.18 3.15,2.19 4.88,3.01c1.72,0.77 3.53,1.35 5.38,1.73c1.85,0.38 3.74,0.55 5.62,0.51c1.89,-0.04 3.77,-0.28 5.6,-0.74c1.83,-0.45 3.61,-1.1 5.3,-1.95c-6.49,-7.92 -15.73,-18.78 -14.63,-29.32c0.89,-8.54 -5.24,-15.06 -4.81,-23.62c0.6,-12.16 -4,-18.31 -12.75,-26.11c-5.09,-4.56 2.92,-11 -3.64,-9.11c-2.58,0.74 -5.3,-2 -7.83,-1.11c-5,1.8 -10.49,1.12 -15.65,2.33c-26.83,6.28 7.48,35.85 5,41.36z" />
	<path id="Layer" class="shp20" d="M487.54,596.49c-1.71,3.77 -2.07,8 -3.33,12c-0.61,1.93 -1.44,3.78 -2.48,5.52c-1.04,1.74 -2.27,3.35 -3.67,4.81c-1.4,1.46 -2.97,2.75 -4.67,3.85c-1.7,1.1 -3.52,2 -5.43,2.68c6.31,2.52 13.75,-0.56 18.63,-5.66c4.88,-5.1 7.73,-11.89 10.47,-18.49c7.08,4.76 6.22,15.7 8.59,24.22c0.51,1.85 1.22,3.64 2.11,5.33c0.89,1.7 1.96,3.29 3.19,4.76c1.23,1.47 2.61,2.8 4.13,3.98c1.51,1.18 3.15,2.19 4.88,3.01c1.72,0.77 3.53,1.35 5.38,1.73c1.85,0.38 3.74,0.55 5.62,0.51c1.89,-0.04 3.77,-0.28 5.6,-0.74c1.83,-0.45 3.61,-1.1 5.3,-1.95c-6.49,-7.92 -15.12,-17 -14,-27.5c0.89,-8.54 -0.44,-17.31 0,-25.87c0.6,-12.16 -5.35,-23.87 -14.06,-31.67c-5.09,-4.56 -13,-5.14 -15.57,-4.23c-5,1.8 -10.49,1.12 -15.65,2.33c-26.86,6.29 7.47,35.85 4.97,41.36z" />
	<path id="Layer" class="shp21" d="M161.63,768.31c0,0 13.02,0.92 21.1,-13c0.39,-0.7 0.8,-1.39 1.23,-2.07c0.43,-0.68 0.87,-1.35 1.34,-2.01c0.46,-0.66 0.94,-1.3 1.44,-1.93c0.5,-0.63 1.01,-1.25 1.54,-1.86c0.64,-1.06 1.21,-2.16 1.71,-3.29c0.49,-1.14 0.9,-2.31 1.23,-3.5c0.33,-1.19 0.57,-2.41 0.73,-3.64c0.16,-1.23 0.23,-2.46 0.22,-3.7c-0.45,-10.32 10.32,-66.88 10.32,-66.88c0,0 -1.34,-21.53 9.43,-35c7.09,-8.86 17.29,-34.26 23.44,-50.58c-0.1,0.09 -0.21,0.18 -0.32,0.26c-0.11,0.08 -0.23,0.15 -0.35,0.21c-0.12,0.06 -0.25,0.12 -0.38,0.17c-0.13,0.05 -0.26,0.09 -0.39,0.12l0.25,-1.41l-0.25,0.06l3.14,-17.51c1.16,-1.33 2.27,-2.7 3.33,-4.1c1.06,-1.4 2.08,-2.84 3.05,-4.31c0.97,-1.47 1.89,-2.97 2.76,-4.5c0.87,-1.53 1.69,-3.09 2.46,-4.68l-0.72,-0.15l-9.53,-2c0,0 -15.44,-22.01 -16.44,-32.84l-1.26,0.06h-1.78c-19.71,-0.43 -42.91,2.25 -42.91,2.25c0.02,-0.07 0.11,-0.35 0.23,-0.79c0.15,-0.54 0.29,-1.09 0.43,-1.64c0.13,-0.55 0.26,-1.1 0.37,-1.65c0.12,-0.55 0.22,-1.11 0.32,-1.66c0.1,-0.56 0.19,-1.11 0.27,-1.67l-0.89,-0.06l-8.82,-0.59c0,0 -30.52,-34.12 -19.3,-40.4c11.22,-6.28 19.12,27.59 22.89,28.28l3.77,0.69l1,0.19c-0.1,-0.15 -0.32,-0.43 -0.32,-0.43c0,0 49.83,-2.24 57.46,-14.36c0,0 22,-17.5 22.9,-29.12c0.48,-6.2 4.36,-9.48 7.91,-11.2c0.68,-0.32 1.37,-0.6 2.08,-0.83c0.71,-0.23 1.44,-0.42 2.17,-0.55c0.74,-0.14 1.48,-0.23 2.23,-0.27c0.75,-0.04 1.5,-0.03 2.24,0.02l10.3,0.71l-0.73,1.3l0.29,0c0.16,-0.37 0.32,-0.74 0.46,-1.12c0.15,-0.38 0.29,-0.75 0.43,-1.13c0.14,-0.38 0.26,-0.76 0.39,-1.15c0.12,-0.38 0.24,-0.77 0.34,-1.16h-0.21c0.07,-0.36 0.14,-0.68 0.2,-1c-3.18,-0.73 -6.18,-2.09 -8.82,-4.01c-2.64,-1.92 -4.87,-4.35 -6.55,-7.14c-1.68,-2.8 -2.78,-5.91 -3.23,-9.14c-0.45,-3.23 -0.24,-6.52 0.61,-9.67c-0.25,0.03 -0.5,0.05 -0.75,0.07c-0.25,0.01 -0.5,0.02 -0.75,0.01c-0.25,-0.01 -0.5,-0.02 -0.75,-0.05c-0.25,-0.03 -0.5,-0.06 -0.75,-0.11c-3.78,-0.78 -6.47,-4.62 -6.57,-8.48c0,-0.25 0,-0.5 0,-0.75c0,-0.05 -0.02,0.81 0,-0.15c0.02,-0.96 0.14,-1.92 0.37,-2.86c0.23,-0.94 0.56,-1.84 1,-2.71c0.43,-0.86 0.96,-1.67 1.57,-2.42c0.61,-0.75 1.3,-1.42 2.06,-2.01c2.06,-1.7 4.51,-2.92 6.38,-4.83c2.22,-2.29 3.43,-5.34 5.16,-8c0.71,-1.1 1.52,-2.13 2.41,-3.1c0.89,-0.96 1.85,-1.85 2.88,-2.66c1.03,-0.8 2.13,-1.52 3.28,-2.14c1.15,-0.62 2.35,-1.15 3.59,-1.57c3.71,-1.26 8.27,-1.4 11.12,1.3c1.5,1.39 2.36,3.38 4,4.55c2.38,1.69 5.59,1.19 8.49,1.53c5.26,0.62 9.88,4.37 12.2,9.14c0.35,0.75 0.66,1.52 0.93,2.31c0.26,0.79 0.48,1.59 0.65,2.4c0.17,0.81 0.29,1.63 0.36,2.46c0.07,0.83 0.09,1.66 0.07,2.48c0.01,0.57 0,1.14 -0.03,1.71c-0.03,0.57 -0.08,1.14 -0.15,1.71c-0.07,0.57 -0.15,1.13 -0.26,1.69c-0.11,0.56 -0.23,1.12 -0.37,1.67c-0.57,2.2 -1.4,4.33 -2,6.53c-1.24,4.57 -1.54,9.37 -3,13.87c-0.24,0.83 -0.55,1.64 -0.91,2.42c-0.36,0.78 -0.79,1.54 -1.26,2.26c-0.48,0.72 -1,1.41 -1.58,2.05c-0.58,0.64 -1.2,1.24 -1.87,1.79l0.43,1.86c0.28,0.06 7.27,1.56 12.11,12.12c3.81,8.32 16.74,16.91 22.42,20.39c0.53,0.32 1.02,0.7 1.48,1.12c0.45,0.42 0.87,0.89 1.23,1.39c0.36,0.5 0.67,1.04 0.93,1.6c0.26,0.56 0.46,1.15 0.59,1.76c0.14,0.61 0.25,1.23 0.35,1.84c0.1,0.62 0.18,1.24 0.24,1.86c0.06,0.62 0.1,1.25 0.12,1.87c0.02,0.63 0.02,1.25 0.01,1.88c0.1,5.38 -1.03,12.89 -5.38,22.38c-9.88,21.57 -17.06,31 -17.06,31c0,0 -0.58,6.56 -0.58,13.56c0.02,5.18 0.37,10.34 1.48,12.92c0.94,2.18 1.2,7.75 1.2,14.1c0.04,12.2 -1.2,28.1 -1.2,28.1c0,0 -3.43,0.65 -8.75,1.43l-3.31,58.19c-0.1,1.74 -0.04,3.49 0.18,5.22c0.22,1.73 0.61,3.44 1.15,5.1c0.54,1.66 1.23,3.26 2.07,4.8c0.84,1.53 1.82,2.98 2.93,4.33c0.58,0.71 1.19,1.41 1.81,2.08c0.63,0.68 1.27,1.33 1.94,1.96c0.67,0.63 1.36,1.25 2.07,1.83c0.71,0.59 1.43,1.16 2.18,1.7c9.43,6.74 29.63,77.66 29.63,77.66c0,0 -1,0.06 -2.62,0.19l6.21,17.32c0,0 -24.81,19.02 -39.9,13.81c-0.4,-0.13 -0.81,-0.24 -1.22,-0.34c-0.41,-0.1 -0.83,-0.17 -1.25,-0.23c-0.42,-0.06 -0.84,-0.1 -1.26,-0.12c-0.42,-0.02 -0.85,-0.03 -1.27,-0.01c-2.98,0.05 -9.35,-2.35 -5.8,-5.46c6.44,-5.64 14.18,-14.18 19.35,-20.12c-0.12,0.06 -0.24,0.12 -0.36,0.18c-0.12,0.06 -0.24,0.13 -0.35,0.2c-0.12,0.07 -0.23,0.14 -0.35,0.21c-0.11,0.07 -0.23,0.15 -0.34,0.23v-0.14l-0.21,0.14c0,0 -0.05,-0.7 -0.16,-1.83l0.22,-0.07c-0.47,-4.67 -1.9,-16.42 -4.77,-17.85c-3.59,-1.79 -3.58,13.9 -30.07,-54.31l-26.49,-68.21c0,0 -21.05,36.36 -39.05,42.64v15.27c0,0 -9.88,44.88 -13.47,49.82c-3.59,4.94 0.18,24.49 0,24.69c-0.18,0.2 -0.36,0.4 -0.55,0.59c-0.19,0.19 -0.39,0.38 -0.59,0.55c-0.2,0.18 -0.41,0.35 -0.62,0.51c-0.21,0.16 -0.43,0.32 -0.66,0.47l2.87,16.27c0,0 -20.66,-0.89 -55.66,9.88c0,0 -13.42,-5.84 -2.2,-13.06zM244.14,533.7l4.37,1.09l0.86,0.22c0.09,-0.54 -0.1,-0.97 0.15,-0.86c0.25,0.11 0.5,0.21 0.76,0.3c0.26,0.09 0.52,0.17 0.79,0.23c0.27,0.06 0.53,0.12 0.8,0.16c0.27,0.04 0.54,0.07 0.82,0.08c0.39,-1.23 0.73,-2.46 1.04,-3.71c0.31,-1.25 0.57,-2.51 0.79,-3.77c0.22,-1.27 0.4,-2.54 0.54,-3.82c0.14,-1.28 0.23,-2.56 0.29,-3.84c0,0 2.54,-10.36 2.68,-18.75c-0.05,-3.27 -0.54,-6.12 -1.78,-7.73l-1.46,0.12l-1.07,1.07l-0.52,0.47l-0.54,0.49l-0.09,0.08l-0.59,0.51l-0.1,0.09l-0.6,0.51l-0.06,0.05l-0.67,0.55l-0.15,0.12l-0.71,0.57h-0.06l-0.7,0.55l-0.16,0.12l-0.77,0.59l-0.16,0.12l-0.74,0.54l-0.13,0.09l-0.84,0.6l-0.2,0.14l-0.88,0.61l-0.08,0.05l-0.86,0.57l-0.21,0.14l-0.93,0.59l-0.2,0.12l-0.87,0.53l-0.16,0.1l-1,0.58l-0.24,0.14l-1,0.58h-0.08l-1,0.53l-0.25,0.13l-1.06,0.53l-0.22,0.1l-1,0.46l-0.19,0.09l-1.11,0.48l-0.27,0.11l-1.16,0.46c7.35,7.64 6.61,25.03 10.98,26.12z" />
	<path id="Layer" class="shp22" d="M338.24,751.06c0,0 -14.02,17.09 -24.54,26.29c-3.26,2.85 2.02,5.08 5.09,5.31c0.57,0.04 1.15,0.1 1.72,0.17c0.57,0.07 1.14,0.15 1.71,0.24c0.57,0.09 1.13,0.2 1.7,0.31c0.56,0.12 1.12,0.24 1.68,0.38c14.82,3.62 45.96,9.33 37.63,-13.88l-8.33,-23.21z" />
	<path id="Layer" class="shp22" d="M197.13,739.22c0,0 -4.82,-1.76 -12.71,11.83c-7.89,13.59 -20.6,12.71 -20.6,12.71c-10.96,7.01 2.19,12.71 2.19,12.71c34.18,-10.52 58.28,12.71 54.34,-9.64l-3.94,-22.35z" />
	<path id="Layer" class="shp23" d="M252.97,540.61l-12.06,25.95c0,0 -17.49,50.36 -28,63.54c-10.51,13.18 -9.2,34.18 -9.2,34.18c0,0 -10.55,55.2 -10.1,65.28c0.45,10.08 -7,18.41 -7,18.41c23.22,13.59 33.3,0.88 33.3,0.88c0,0 -3.51,-19.28 0,-24.1c3.51,-4.82 13.15,-33.74 13.15,-48.64v-14.9c17.53,-6.13 12.26,-108.25 38.13,-41.63l25.87,66.62c0,0 25.85,51.25 29.36,53c3.51,1.75 4.82,19.28 4.82,19.28c6.13,-4.39 28.48,-5.7 28.48,-5.7c0,0 -19.72,-69.24 -28.92,-75.81c-0.67,-0.49 -1.32,-0.99 -1.96,-1.52c-0.64,-0.53 -1.26,-1.07 -1.86,-1.64c-0.6,-0.56 -1.19,-1.15 -1.76,-1.75c-0.57,-0.6 -1.12,-1.22 -1.65,-1.85c-1.17,-1.36 -2.2,-2.83 -3.09,-4.39c-0.89,-1.56 -1.62,-3.2 -2.19,-4.9c-0.57,-1.7 -0.98,-3.45 -1.22,-5.23c-0.24,-1.78 -0.31,-3.57 -0.21,-5.37l3.86,-68z" />
	<g id="Layer" style="opacity: 0.102">
		<path id="Layer" class="shp24" d="M330.85,756.7c0.11,1.11 0.16,1.79 0.16,1.79c6.13,-4.39 28.48,-5.7 28.48,-5.7c0,0 -19.72,-69.24 -28.92,-75.81c-0.71,-0.52 -1.4,-1.05 -2.07,-1.61c-0.67,-0.56 -1.33,-1.14 -1.96,-1.74c-0.64,-0.6 -1.25,-1.22 -1.85,-1.86c-0.6,-0.64 -1.17,-1.3 -1.73,-1.97c-1.11,-1.35 -2.1,-2.79 -2.94,-4.32c-0.84,-1.53 -1.54,-3.14 -2.08,-4.8c-0.54,-1.66 -0.92,-3.37 -1.14,-5.1c-0.22,-1.73 -0.28,-3.48 -0.17,-5.22l3.86,-68l-67.69,-41.72l-0.88,1.89l64.63,39.84l-3.86,68c-0.11,1.74 -0.05,3.49 0.17,5.22c0.22,1.73 0.6,3.44 1.14,5.1c0.54,1.66 1.24,3.27 2.08,4.8c0.84,1.53 1.83,2.98 2.94,4.32c0.56,0.68 1.13,1.33 1.73,1.97c0.6,0.64 1.21,1.26 1.85,1.86c0.64,0.6 1.29,1.18 1.96,1.74c0.67,0.56 1.36,1.1 2.07,1.61c9.2,6.57 28.92,75.81 28.92,75.81c0,0 -16.08,0.95 -24.7,3.9z" />
		<path id="Layer" class="shp24" d="M204.02,754.2c10.8,0.83 15.69,-5.32 15.69,-5.32c0,0 -3.51,-19.28 0,-24.1c3.51,-4.82 13.15,-33.74 13.15,-48.64v-14.9c13.92,-4.87 29.77,-28.26 35.71,-37.68l-1.53,-3.95c0,0 -20.6,35.49 -38.13,41.63v14.9c0,0 -9.64,43.82 -13.15,48.64c-3.51,4.82 0,24.1 0,24.1c0,0 -3.69,4.63 -11.74,5.32z" />
	</g>
	<path id="Layer" class="shp25" d="M169.96,506.08l8.61,0.57l4.54,0.3v-11l-6,-1.08l-3.69,-0.67c-3.69,-0.67 -11.39,-33.74 -22.35,-27.61c-10.96,6.13 18.89,39.49 18.89,39.49z" />
	<path id="Layer" class="shp25" d="M281.7,423.7c9.21,10.52 -7,30.24 -7,30.24c0,0 42.5,10.96 40.75,-2.63c-1.75,-13.59 -7.45,-35.5 -7.45,-35.5z" />
	<path id="Layer" class="shp26" d="M261.99,506.96l-0.88,8.33l13.58,-0.88l13.58,-11.83l13.58,-38.13l8.78,-13.57l6.57,-8.33l-2.63,-10.08c-2.63,-10.08 -1.2,1 -3.23,2.6c-6.67,5.11 -22.33,15.72 -33.77,12.79c-0.13,-0.03 -0.26,-0.07 -0.4,-0.1c-0.13,-0.04 -0.26,-0.08 -0.39,-0.12c-0.13,-0.04 -0.26,-0.08 -0.39,-0.13c-0.13,-0.04 -0.26,-0.09 -0.38,-0.14l-17.09,29.36z" />
	<path id="Layer" class="shp10" d="M312.82,439.88c0,0 -10.05,19.78 -18.81,24.6c-8.76,4.82 -28.48,47.33 -28.48,47.33c0,0 1.79,-31.93 0.88,-35.93c-0.91,-4 26.07,-33.5 16.17,-34.18l-9.9,-0.68c-0.85,-0.07 -1.7,-0.07 -2.55,-0.01c-0.85,0.06 -1.69,0.18 -2.52,0.37c-0.83,0.19 -1.65,0.43 -2.44,0.74c-0.79,0.31 -1.56,0.67 -2.3,1.09c-0.94,0.51 -1.81,1.13 -2.59,1.86c-0.78,0.73 -1.46,1.55 -2.04,2.45c-0.57,0.9 -1.03,1.87 -1.36,2.88c-0.33,1.01 -0.53,2.07 -0.59,3.13c-0.88,11.39 -22.35,28.48 -22.35,28.48c-7.45,11.81 -56.09,14 -56.09,14c4.38,5.26 78.44,-0.88 78.44,-0.88c4.38,5.7 -0.88,27.17 -0.88,27.17c-0.91,23.66 -15,24.98 -18,42.07l-3,17.09c5.23,-0.88 19.69,-31.58 19.69,-31.58c0,0 -2.2,33.83 13.15,42.59c15.35,8.76 61.35,0 61.35,0c0,0 2.63,-33.71 0,-39.88c-2.63,-6.17 -0.88,-27.17 -0.88,-27.17c0,0 7.01,-9.24 16.65,-30.24c6.14,-13.4 5.71,-22.7 4.58,-27.7c-0.14,-0.61 -0.34,-1.2 -0.59,-1.77c-0.26,-0.57 -0.57,-1.11 -0.93,-1.62c-0.36,-0.51 -0.78,-0.97 -1.23,-1.4c-0.46,-0.42 -0.95,-0.8 -1.49,-1.13c-5.59,-3.43 -18.1,-11.77 -21.81,-19.86c-4.83,-10.52 -11.83,-11.83 -11.83,-11.83z" />
	<path id="Layer" class="shp10" d="M261.99,506.96l-0.88,8.33l13.58,-0.88l13.58,-11.83l13.58,-38.13l8.78,-13.57l6.57,-8.33l-2.63,-10.08c-2.63,-10.08 -1.2,1 -3.23,2.6l0.6,3.46c0.6,3.46 -10.08,19.79 -18.84,24.61c-8.76,4.82 -28.48,47.33 -28.48,47.33c0,0 1.75,-32 0.88,-35.93c-0.6,-2.68 7.08,-17.45 12.07,-26.68c-0.13,-0.03 -0.26,-0.07 -0.4,-0.1c-0.13,-0.04 -0.26,-0.08 -0.39,-0.12c-0.13,-0.04 -0.26,-0.08 -0.39,-0.13c-0.13,-0.04 -0.26,-0.09 -0.38,-0.14l-17.09,29.36z" />
	<path id="Layer" class="shp10" d="M178.57,506.66l4.54,0.3v-11l-6,-1.08c2.11,2.8 2.04,7.66 1.46,11.78z" />
	<path id="Layer" class="shp27" d="M311.1,428.52l1.75,10c0,0 -10.08,19.79 -18.84,24.61c-8.76,4.82 -28.48,47.33 -28.48,47.33c0,0 1.79,-31.99 0.88,-35.93c-0.91,-3.94 26.08,-33.48 16.18,-34.16l-9.9,-0.68c-0.85,-0.07 -1.7,-0.07 -2.55,-0.01c-0.85,0.06 -1.69,0.18 -2.52,0.37c-0.83,0.19 -1.65,0.43 -2.44,0.74c-0.79,0.31 -1.56,0.67 -2.3,1.09c-0.94,0.51 -1.81,1.14 -2.59,1.87c-0.78,0.73 -1.47,1.56 -2.04,2.46c-0.57,0.9 -1.03,1.88 -1.36,2.89c-0.33,1.02 -0.52,2.07 -0.59,3.14c-0.88,11.39 -22.35,28.48 -22.35,28.48c-7.45,11.81 -56.09,14 -56.09,14c4.38,5.28 0,19.28 0,19.28c0,0 22.79,-2.6 42.07,-2.19c19.28,0.41 36.37,-18 36.37,-18c4.38,5.7 -0.88,27.17 -0.88,27.17c-0.91,23.66 -15,24.98 -18,42.07l-3,17.09c5.23,-0.87 19.69,-31.54 19.69,-31.54c0,0 -2.2,33.75 13.15,42.51c15.35,8.76 61.35,0 61.35,0c0,0 2.63,-33.71 0,-39.88c-2.63,-6.17 -0.88,-27.17 -0.88,-27.17c0,0 7.01,-9.24 16.65,-30.24c6.14,-13.4 5.71,-22.7 4.58,-27.7c-0.14,-0.61 -0.34,-1.2 -0.59,-1.77c-0.26,-0.57 -0.57,-1.11 -0.93,-1.62c-0.36,-0.51 -0.78,-0.97 -1.23,-1.4c-0.46,-0.42 -0.95,-0.8 -1.49,-1.13c-5.59,-3.43 -18.1,-11.77 -21.81,-19.86c-4.83,-10.52 -11.83,-11.83 -11.83,-11.83" />
	<path id="Layer" class="shp10" d="M320.71,474.53c0,0 -10.52,35.5 -16.65,39.88c-6.13,4.38 -43.38,26.73 -54.34,21.47c0,0 -2.63,13.15 1.31,16.21c0,0 40.86,-1.6 41.19,-1.75c0,0 26.73,-3.51 31.11,-16.65c4.38,-13.14 9.64,-35.5 9.64,-35.5z" />
	<path id="Layer" class="shp28" d="M266.15,512.44c0,-1.21 -0.68,-2.19 -1.53,-2.19c-0.85,0 -1.53,0.98 -1.53,2.19c0,1.21 0.68,2.19 1.53,2.19c0.85,0 1.53,-0.98 1.53,-2.19z" />
	<path id="Layer" class="shp28" d="M261.77,527.78c0,-1.21 -0.68,-2.19 -1.53,-2.19c-0.85,0 -1.53,0.98 -1.53,2.19c0,1.21 0.68,2.19 1.53,2.19c0.85,0 1.53,-0.98 1.53,-2.19z" />
	<g id="Layer" style="opacity: 0.102">
		<path id="Layer" class="shp24" d="M276.28,593.97c19.44,3.35 52.31,-2.91 52.31,-2.91c0,0 2.63,-33.71 0,-39.88c-2.63,-6.17 -0.88,-27.17 -0.88,-27.17c0,0 7.01,-9.24 16.65,-30.24c6.14,-13.4 5.71,-22.7 4.58,-27.7c-0.14,-0.61 -0.34,-1.2 -0.59,-1.77c-0.26,-0.57 -0.57,-1.11 -0.93,-1.62c-0.36,-0.51 -0.78,-0.97 -1.24,-1.4c-0.46,-0.42 -0.96,-0.8 -1.49,-1.13c-5.58,-3.43 -18.09,-11.77 -21.8,-19.86c-4.83,-10.52 -12,-12.83 -11.83,-11.83l0.17,1c2.47,1.49 5.88,4.5 8.6,10.43c3.7,8.09 16.21,16.43 21.8,19.86c0.53,0.32 1.03,0.7 1.49,1.13c0.46,0.42 0.87,0.89 1.24,1.4c0.36,0.51 0.68,1.05 0.93,1.62c0.26,0.57 0.46,1.16 0.59,1.77c1.12,5 1.56,14.3 -4.58,27.7c-9.65,21.04 -16.65,30.24 -16.65,30.24c0,0 -1.75,21.03 0.88,27.17c2.63,6.14 0,39.88 0,39.88c0,0 -29.61,5.64 -49.25,3.31z" />
		<path id="Layer" class="shp24" d="M282.63,440.31l-3.19,-0.22c-1.53,2.75 -16.92,30.25 -16.09,34c0.87,3.93 -0.88,35.93 -0.88,35.93c0,0 1.33,-2.86 3.45,-7.19c0.49,-9.72 1.09,-25.6 0.49,-28.3c-0.91,-3.94 19.41,-34 16.22,-34.22z" />
		<path id="Layer" class="shp24" d="M216.85,511.34c-3.24,-0.03 -6.47,-0.02 -9.71,0.04c-3.24,0.06 -6.47,0.16 -9.7,0.31c-3.23,0.15 -6.46,0.34 -9.69,0.58c-3.23,0.24 -6.45,0.52 -9.67,0.85c-0.14,0.5 -0.23,0.79 -0.23,0.79c0,0 22.79,-2.63 42.07,-2.19c15.41,0.38 29.41,-11.29 34.41,-16c-0.05,-0.21 -0.12,-0.42 -0.19,-0.63c-0.07,-0.21 -0.16,-0.41 -0.25,-0.61c-0.09,-0.2 -0.2,-0.39 -0.31,-0.58c-0.11,-0.19 -0.23,-0.37 -0.36,-0.55c0,0 -17.09,18.44 -36.37,18z" />
		<path id="Layer" class="shp24" d="M235.03,576.54l-0.65,3.6c3.71,-0.62 12.01,-16.14 16.57,-25.14c-0.1,-4.11 0.08,-6.85 0.08,-6.85c0,0 -9.62,20.38 -16,28.39z" />
	</g>
	<path id="Layer" class="shp29" d="M151.35,516.5h104.75v-78.94h-104.75z" />
	<path id="Layer" class="shp8" d="M154.05,514.46h99.34v-74.87h-99.34z" />
	<path id="Layer" class="shp0" d="M163.77,464.79h33.11v-18.72h-33.11z" />
	<path id="Layer" class="shp9" d="M204.8,450.39h38.87v-4.32h-38.87z" />
	<path id="Layer" class="shp9" d="M204.8,457.59h27.36v-4.32h-27.36z" />
	<path id="Layer" class="shp9" d="M204.8,464.79h38.87v-4.32h-38.87z" />
	<path id="Layer" class="shp9" d="M163.77,471.99h79.91v-4.32h-79.91z" />
	<path id="Layer" class="shp9" d="M163.77,479.19h79.91v-4.32h-79.91z" />
	<path id="Layer" class="shp9" d="M163.77,486.38h79.91v-4.32h-79.91z" />
	<path id="Layer" class="shp9" d="M163.77,493.58h73.43v-4.32h-73.43z" />
	<path id="Layer" class="shp9" d="M163.77,500.78h79.91v-4.32h-79.91z" />
	<path id="Layer" class="shp9" d="M163.77,507.98h79.91v-4.32h-79.91z" />
	<path id="Layer" class="shp25" d="M238.76,543.77l9.31,2l7.34,1.51l-3.94,-11l-2.74,-0.69l-4.27,-1.06c-4.27,-1.06 -6.13,-30.65 -18.4,-28.45c-12.27,2.2 12.7,37.69 12.7,37.69z" />
	<path id="Layer" class="shp10" d="M248.07,545.73l7.34,1.55l-3.94,-11l-2.74,-0.69c-0.15,0.83 -0.28,1.67 -0.39,2.52c-0.1,0.84 -0.18,1.69 -0.24,2.53c-0.06,0.85 -0.09,1.7 -0.09,2.54c-0.01,0.85 0.01,1.7 0.06,2.55z" />
	<path id="Layer" class="shp27" d="M320.71,473.66c0,0 -10.52,35.5 -16.65,39.88c-6.13,4.38 -43.38,26.73 -54.34,21.47c0,0 -2.63,13.15 1.31,16.21c0,0 40.86,-1.6 41.19,-1.75c0,0 26.73,-3.51 31.11,-16.65c4.38,-13.14 9.64,-35.5 9.64,-35.5z" />
	<path id="Layer" class="shp10" d="M281.26,424.54c3.08,3.57 3.31,8.07 2.26,12.57c2.52,0.57 5.11,0.72 7.68,0.46c2.57,-0.27 5.07,-0.95 7.42,-2.03c2.34,-1.08 4.5,-2.53 6.37,-4.3c1.88,-1.77 3.45,-3.84 4.66,-6.12c-1.19,-4.99 -2.08,-8.42 -2.08,-8.42z" />
	<path id="Layer" class="shp25" d="M312.82,413.19c0,-13.08 -10.58,-23.66 -23.66,-23.66c-13.08,0 -23.66,10.58 -23.66,23.66c0,13.08 10.58,23.66 23.66,23.66c13.08,0 23.66,-10.58 23.66,-23.66z" />
	<path id="Layer" class="shp10" d="M278.01,403.77c1.8,0.35 4.42,3.86 6.1,4.86c1.19,0.72 2.43,1.34 3.73,1.85c1.29,0.51 2.63,0.9 3.99,1.18c1.36,0.28 2.74,0.43 4.13,0.47c1.39,0.04 2.78,-0.05 4.15,-0.25c0.2,-0.05 0.4,-0.09 0.6,-0.11c0.2,-0.03 0.4,-0.04 0.61,-0.04c0.2,0 0.41,0.01 0.61,0.04c0.2,0.03 0.4,0.06 0.6,0.11c0.23,0.11 0.44,0.25 0.65,0.4c0.2,0.15 0.39,0.33 0.56,0.52c0.17,0.19 0.32,0.39 0.46,0.61c0.13,0.22 0.24,0.45 0.33,0.69c0.55,1.1 1.02,2.24 1.41,3.4c0.4,1.16 0.71,2.35 0.95,3.56c0.24,1.21 0.4,2.43 0.47,3.65c0.08,1.23 0.07,2.46 -0.02,3.68c4.43,-1.3 7.36,-5.6 8.78,-10c1.42,-4.4 1.71,-9.08 2.94,-13.54c0.59,-2.14 1.39,-4.23 1.94,-6.38c0.35,-1.25 0.58,-2.52 0.71,-3.81c0.13,-1.29 0.14,-2.58 0.04,-3.87c-0.1,-1.29 -0.31,-2.57 -0.63,-3.82c-0.32,-1.25 -0.75,-2.48 -1.28,-3.66c-0.55,-1.17 -1.24,-2.27 -2.05,-3.27c-0.82,-1 -1.75,-1.9 -2.79,-2.68c-1.03,-0.77 -2.16,-1.42 -3.35,-1.92c-1.19,-0.5 -2.44,-0.85 -3.72,-1.05c-2.83,-0.33 -5.97,0.16 -8.29,-1.49c-1.6,-1.14 -2.44,-3.09 -3.87,-4.44c-2.79,-2.64 -7.23,-2.5 -10.86,-1.27c-1.21,0.41 -2.38,0.93 -3.51,1.53c-1.12,0.61 -2.2,1.31 -3.21,2.09c-1.01,0.78 -1.95,1.65 -2.82,2.59c-0.87,0.94 -1.65,1.95 -2.35,3.02c-1.65,2.6 -2.83,5.58 -5,7.79c-1.83,1.86 -4.23,3.05 -6.23,4.72c-0.74,0.58 -1.42,1.24 -2.01,1.97c-0.6,0.73 -1.11,1.52 -1.53,2.36c-0.42,0.84 -0.75,1.73 -0.97,2.64c-0.23,0.91 -0.35,1.85 -0.37,2.79c0.09,3.77 2.72,7.52 6.41,8.28c0.44,0.07 0.88,0.11 1.33,0.13c0.44,0.02 0.89,0.02 1.33,-0.01c0.44,-0.03 0.89,-0.08 1.32,-0.15c0.44,-0.07 0.87,-0.17 1.3,-0.29c2.4,-0.54 7.13,-3.31 9.4,-2.9z" />
	<path id="Layer" class="shp30" d="M278.01,402.89c1.8,0.35 4.42,3.86 6.1,4.86c1.19,0.72 2.43,1.34 3.73,1.85c1.29,0.51 2.63,0.9 3.99,1.18c1.36,0.28 2.74,0.43 4.13,0.47c1.39,0.04 2.78,-0.05 4.15,-0.25c0.2,-0.05 0.4,-0.09 0.6,-0.11c0.2,-0.03 0.4,-0.04 0.61,-0.04c0.2,0 0.41,0.01 0.61,0.04c0.2,0.03 0.4,0.06 0.6,0.11c0.23,0.11 0.44,0.25 0.65,0.4c0.2,0.15 0.39,0.33 0.56,0.52c0.17,0.19 0.32,0.39 0.46,0.61c0.13,0.22 0.24,0.45 0.33,0.69c0.55,1.1 1.02,2.24 1.41,3.4c0.4,1.16 0.71,2.35 0.95,3.56c0.24,1.21 0.4,2.43 0.47,3.65c0.08,1.23 0.07,2.46 -0.02,3.68c4.43,-1.3 7.36,-5.6 8.78,-10c1.42,-4.4 1.71,-9.08 2.94,-13.54c0.59,-2.14 1.39,-4.23 1.94,-6.38c0.35,-1.25 0.58,-2.52 0.71,-3.81c0.13,-1.29 0.14,-2.58 0.04,-3.87c-0.1,-1.29 -0.31,-2.57 -0.63,-3.82c-0.32,-1.25 -0.75,-2.48 -1.28,-3.66c-0.55,-1.17 -1.24,-2.27 -2.05,-3.27c-0.82,-1 -1.75,-1.9 -2.79,-2.68c-1.03,-0.77 -2.16,-1.42 -3.35,-1.92c-1.19,-0.5 -2.44,-0.85 -3.72,-1.05c-2.83,-0.33 -5.97,0.16 -8.29,-1.49c-1.6,-1.14 -2.44,-3.09 -3.87,-4.44c-2.79,-2.64 -7.23,-2.5 -10.86,-1.27c-1.21,0.41 -2.38,0.93 -3.51,1.53c-1.12,0.61 -2.2,1.31 -3.21,2.09c-1.01,0.78 -1.95,1.65 -2.82,2.59c-0.87,0.94 -1.65,1.95 -2.35,3.02c-1.65,2.6 -2.83,5.58 -5,7.79c-1.83,1.86 -4.23,3.05 -6.23,4.72c-0.74,0.58 -1.42,1.24 -2.01,1.97c-0.6,0.73 -1.11,1.52 -1.53,2.36c-0.42,0.84 -0.75,1.73 -0.97,2.64c-0.23,0.91 -0.35,1.85 -0.37,2.79c0.09,3.77 2.72,7.52 6.41,8.28c0.44,0.07 0.88,0.11 1.33,0.13c0.44,0.02 0.89,0.02 1.33,-0.01c0.44,-0.03 0.89,-0.08 1.32,-0.15c0.44,-0.07 0.87,-0.17 1.3,-0.29c2.4,-0.53 7.13,-3.31 9.4,-2.9z" />
	<path id="Layer" class="shp1" d="M86.17,760.29c0.45,-0.37 0.88,-0.78 1.28,-1.21c0.39,-0.44 0.75,-0.9 1.08,-1.39c0.32,-0.49 0.61,-1 0.86,-1.53c0.25,-0.53 0.45,-1.08 0.62,-1.65c0.5,-2.3 -0.48,-5.05 -2.68,-5.89c-2.46,-0.94 -5.09,0.76 -7.08,2.49c-1.99,1.73 -4.28,3.69 -6.89,3.32c0.67,-0.61 1.25,-1.29 1.75,-2.05c0.49,-0.76 0.88,-1.57 1.17,-2.43c0.28,-0.86 0.45,-1.74 0.51,-2.64c0.06,-0.9 -0.01,-1.8 -0.18,-2.69c-0.03,-0.18 -0.07,-0.36 -0.12,-0.54c-0.05,-0.18 -0.12,-0.35 -0.19,-0.52c-0.08,-0.17 -0.16,-0.33 -0.26,-0.49c-0.1,-0.16 -0.21,-0.31 -0.32,-0.45c-1.37,-1.46 -3.84,-0.83 -5.48,0.32c-5.2,3.66 -6.65,10.72 -6.68,17.08c-0.52,-2.29 -0.08,-4.68 -0.1,-7c-0.02,-2.32 -0.66,-5 -2.64,-6.22c-0.31,-0.16 -0.62,-0.31 -0.95,-0.43c-0.32,-0.12 -0.66,-0.23 -0.99,-0.31c-0.34,-0.08 -0.68,-0.14 -1.02,-0.17c-0.34,-0.04 -0.69,-0.05 -1.04,-0.04c-2.34,-0.09 -4.94,0.15 -6.54,1.86c-2,2.12 -1.47,5.69 0.26,8c1.73,2.31 4.35,3.8 6.77,5.42c0.48,0.29 0.95,0.6 1.4,0.94c0.45,0.34 0.88,0.7 1.28,1.09c0.41,0.39 0.79,0.8 1.15,1.23c0.36,0.43 0.7,0.88 1.01,1.35c0.04,0.07 0.07,0.13 0.1,0.2c0.03,0.07 0.07,0.13 0.1,0.2c0.03,0.07 0.06,0.14 0.09,0.21c0.03,0.07 0.05,0.14 0.07,0.21h14.63c0.82,-0.42 1.63,-0.86 2.42,-1.33c0.79,-0.47 1.57,-0.97 2.32,-1.49c0.76,-0.52 1.5,-1.07 2.22,-1.65c0.72,-0.57 1.42,-1.17 2.1,-1.79z" />
	<path id="Layer" class="shp1" d="M955.17,621.29c0.45,-0.37 0.88,-0.78 1.28,-1.21c0.39,-0.44 0.75,-0.9 1.08,-1.39c0.32,-0.49 0.61,-1 0.86,-1.53c0.25,-0.53 0.45,-1.08 0.62,-1.65c0.5,-2.3 -0.48,-5.05 -2.68,-5.89c-2.46,-0.94 -5.09,0.76 -7.08,2.49c-1.99,1.73 -4.28,3.69 -6.89,3.32c0.67,-0.61 1.25,-1.29 1.75,-2.05c0.49,-0.76 0.88,-1.57 1.17,-2.43c0.28,-0.86 0.45,-1.74 0.51,-2.64c0.06,-0.9 -0.01,-1.8 -0.18,-2.69c-0.03,-0.18 -0.07,-0.36 -0.12,-0.54c-0.05,-0.18 -0.12,-0.35 -0.19,-0.52c-0.08,-0.17 -0.16,-0.33 -0.26,-0.49c-0.1,-0.16 -0.21,-0.31 -0.32,-0.45c-1.37,-1.46 -3.84,-0.83 -5.48,0.32c-5.2,3.66 -6.65,10.72 -6.68,17.08c-0.52,-2.29 -0.08,-4.68 -0.1,-7c-0.02,-2.32 -0.66,-5 -2.64,-6.22c-0.31,-0.16 -0.62,-0.31 -0.95,-0.43c-0.32,-0.12 -0.66,-0.23 -0.99,-0.31c-0.34,-0.08 -0.68,-0.14 -1.02,-0.17c-0.34,-0.04 -0.69,-0.05 -1.04,-0.04c-2.34,-0.09 -4.94,0.15 -6.54,1.86c-2,2.12 -1.47,5.69 0.26,8c1.73,2.31 4.35,3.8 6.77,5.42c0.48,0.29 0.95,0.6 1.4,0.94c0.45,0.34 0.88,0.7 1.28,1.09c0.41,0.39 0.79,0.8 1.15,1.23c0.36,0.43 0.7,0.88 1.01,1.35c0.04,0.07 0.07,0.13 0.1,0.2c0.03,0.07 0.07,0.13 0.1,0.2c0.03,0.07 0.06,0.14 0.09,0.21c0.03,0.07 0.05,0.14 0.07,0.21l14.65,0c0.82,-0.42 1.62,-0.86 2.41,-1.33c0.79,-0.47 1.56,-0.97 2.32,-1.49c0.76,-0.52 1.49,-1.07 2.21,-1.65c0.72,-0.57 1.42,-1.17 2.1,-1.79z" />
	<path id="Layer" class="shp31" d="M1085.15,320.69c0.37,1.2 0.67,2.42 0.89,3.65c0.23,1.23 0.38,2.48 0.45,3.73c0.08,1.25 0.08,2.51 0.01,3.76c-0.07,1.25 -0.22,2.5 -0.44,3.73c-2.05,12.36 -6.45,37.76 -11.45,59.84c-6.91,30.51 -14.39,23.6 -17.85,31.09c-3.46,7.49 -0.53,17.85 -0.58,17.85c-0.05,0 -0.11,0.01 -0.16,0.01c-0.05,0 -0.11,0 -0.16,0c-0.05,0 -0.11,0 -0.16,0c-0.05,0 -0.11,0 -0.16,-0.01c-0.08,0 -0.17,0 -0.25,0c-0.08,0 -0.17,0 -0.25,-0.01c-0.08,-0.01 -0.17,-0.01 -0.25,-0.02c-0.08,-0.01 -0.17,-0.02 -0.25,-0.03c0,0.59 0,1.17 0,1.73c-0.31,18.59 -15.41,23.08 -15.41,23.08c0,0 6.91,21.3 0.58,40.88c-6.33,19.58 4.61,36.85 4.61,36.85c0,0 20.72,59.88 17.27,63.34c-3.45,3.46 2.88,14.4 2.88,14.4c-0.22,0.28 -0.46,0.55 -0.7,0.8c8.16,9.58 5.86,22.54 5.39,24.77v0.3c0,0 -47.76,3.45 -62.76,2.3l-1.22,-0.12h-0.21l-1.08,-0.16h-0.2l-1,-0.2h-0.07l-0.91,-0.24h-0.14l-0.83,-0.27l-0.16,-0.06l-0.76,-0.3h-0.09l-0.65,-0.32h-0.09c-0.21,-0.11 -0.41,-0.23 -0.6,-0.35l-0.13,-0.08c-0.18,-0.12 -0.36,-0.24 -0.52,-0.37l-0.09,-0.07l-0.43,-0.37l-0.06,-0.05c-0.13,-0.13 -0.26,-0.26 -0.38,-0.4l-0.09,-0.1c-0.11,-0.13 -0.22,-0.27 -0.31,-0.4l-0.07,-0.11c-0.08,-0.13 -0.16,-0.25 -0.23,-0.38v-0.09c-0.07,-0.13 -0.13,-0.26 -0.18,-0.39l-0.05,-0.12c-0.05,-0.13 -0.1,-0.27 -0.13,-0.4v-0.14c-0.07,-0.12 -0.07,-0.25 -0.07,-0.37c0,-0.11 0,-0.4 0,-0.45c0,-0.05 0,-0.14 0,-0.14c-3.69,0.02 -6.88,-0.05 -9.25,-0.23l-1.22,-0.12h-0.21l-1.08,-0.16h-0.2l-1,-0.2h-0.07l-0.91,-0.24h-0.14l-0.83,-0.27l-0.16,-0.06l-0.76,-0.3h-0.09l-0.65,-0.32h-0.09c-0.21,-0.11 -0.41,-0.23 -0.6,-0.35l-0.12,-0.08c-0.18,-0.12 -0.36,-0.24 -0.52,-0.37l-0.09,-0.07l-0.43,-0.37l-0.06,-0.05c-0.13,-0.13 -0.26,-0.26 -0.38,-0.4l-0.09,-0.1c-0.11,-0.13 -0.22,-0.27 -0.31,-0.4l-0.07,-0.11c-0.08,-0.13 -0.16,-0.25 -0.23,-0.38v-0.09c-0.07,-0.13 -0.13,-0.26 -0.18,-0.39l-0.05,-0.12c-0.05,-0.13 -0.1,-0.27 -0.13,-0.4v-0.14c-0.07,-0.12 -0.07,-0.33 -0.07,-0.37c0,-0.04 0,-0.02 0,-0.13c0,-0.11 0,-0.27 0,-0.32c0,-0.05 0,-0.01 0,-0.14c0,-0.13 0,-0.4 0,-0.52c0.06,-0.12 0.06,-0.24 0.06,-0.36c0.14,-0.54 0.37,-1.05 0.69,-1.5c0.32,-0.46 0.72,-0.85 1.18,-1.16c0.46,-0.31 0.98,-0.53 1.52,-0.66c0.54,-0.13 1.1,-0.15 1.65,-0.08c6.33,0.58 2.22,11.55 17.85,-2.3l15.63,-13.85c-1.5,-0.65 -2.39,-1.12 -2.39,-1.12c7.48,-6.34 -11.52,-62.19 -11.52,-62.19c-15.55,-7.48 -19.46,66.48 -14.4,-24.18l5.06,-90.66l0.09,-1.7c-0.25,0.04 -0.5,0.07 -0.75,0.1c-0.25,0.03 -0.5,0.05 -0.75,0.07c-0.25,0.02 -0.5,0.03 -0.75,0.04c-0.25,0.01 -0.5,0.01 -0.75,0.01h-0.43c-1.45,-9.57 3.23,-27.16 8.23,-42.27l-52.57,-6.1c-34.55,-10.94 -16.82,-31.58 -12.67,-27.64l4.15,3.94c-0.65,-6.9 -16.21,-34.46 6.79,-12.58l23,21.88c5.86,1.17 26.87,-1.11 39.74,-2.69c1.07,-2.66 1.72,-4.22 1.72,-4.22c0,0 20.73,-39.16 25.34,-44.34c0.53,-0.63 1.03,-1.29 1.48,-1.98c0.46,-0.69 0.87,-1.4 1.25,-2.14c0.37,-0.74 0.71,-1.49 0.99,-2.27c0.29,-0.77 0.53,-1.56 0.73,-2.36c0.09,-0.32 0.17,-0.64 0.25,-0.97c0.08,-0.32 0.14,-0.65 0.21,-0.98c0.06,-0.33 0.12,-0.66 0.16,-0.98c0.05,-0.33 0.09,-0.66 0.12,-0.99c3.39,-0.26 9,-2.99 14.14,-5.9c-0.25,-1.03 -0.53,-2.05 -0.85,-3.06c-0.32,-1.01 -0.66,-2.01 -1.04,-3c-0.38,-0.99 -0.79,-1.97 -1.23,-2.93c-0.44,-0.96 -0.91,-1.91 -1.42,-2.85l-0.65,-1.17c-3.26,-0.68 -6.35,-2.02 -9.07,-3.95c-2.72,-1.93 -5.01,-4.4 -6.73,-7.25c-1.72,-2.85 -2.83,-6.03 -3.26,-9.34c-0.43,-3.3 -0.18,-6.66 0.75,-9.86c-0.59,0.18 -1.2,0.3 -1.82,0.35c-0.62,0.05 -1.24,0.03 -1.85,-0.05c-0.61,-0.09 -1.21,-0.24 -1.79,-0.46c-0.58,-0.22 -1.13,-0.5 -1.65,-0.84c-0.45,-0.33 -0.86,-0.72 -1.22,-1.15c-0.36,-0.44 -0.65,-0.91 -0.89,-1.43c-0.23,-0.51 -0.4,-1.05 -0.5,-1.6c-0.1,-0.55 -0.12,-1.12 -0.08,-1.68c0,-0.6 0.04,-1.19 0.15,-1.78c0.1,-0.59 0.26,-1.16 0.47,-1.72c0.21,-0.56 0.46,-1.1 0.77,-1.61c0.3,-0.51 0.66,-0.99 1.05,-1.44c2.3,-2.6 5.69,-4.03 9.06,-4.75c3.37,-0.72 7.05,-0.94 9.73,-3.09c3.04,-2.44 4.4,-7.09 8.15,-8.09c0.41,-0.08 0.82,-0.13 1.23,-0.16c0.41,-0.02 0.83,-0.02 1.24,0.01c0.41,0.03 0.82,0.09 1.23,0.18c0.4,0.09 0.8,0.21 1.19,0.35c1.48,0.45 2.93,1.01 4.34,1.67c1.4,0.66 2.75,1.43 4.04,2.29c1.29,0.86 2.51,1.82 3.66,2.86c1.15,1.04 2.22,2.17 3.21,3.36c0.23,0.35 0.48,0.68 0.75,1c0.27,0.32 0.55,0.63 0.84,0.92c0.3,0.29 0.6,0.57 0.93,0.84c0.32,0.26 0.66,0.51 1,0.75c0.21,0.09 0.41,0.18 0.62,0.27c0.2,0.09 0.41,0.19 0.61,0.29c0.2,0.1 0.4,0.2 0.6,0.3c0.2,0.1 0.4,0.21 0.59,0.32c0.22,0.17 0.42,0.35 0.62,0.55c0.19,0.19 0.38,0.4 0.54,0.62c0.17,0.22 0.32,0.44 0.46,0.68c0.14,0.24 0.27,0.48 0.37,0.73c0.43,0.87 0.81,1.77 1.14,2.69c0.33,0.92 0.6,1.86 0.82,2.81c0.22,0.95 0.38,1.91 0.49,2.88c0.11,0.97 0.16,1.94 0.15,2.92c0.01,0.58 0,1.15 -0.03,1.73c-0.03,0.58 -0.08,1.15 -0.15,1.72c-0.07,0.57 -0.16,1.14 -0.27,1.71c-0.11,0.57 -0.24,1.13 -0.39,1.69c-0.94,3.47 -2.63,6.69 -3.63,10.14c-0.12,0.39 -0.22,0.78 -0.31,1.18c-0.09,0.4 -0.17,0.8 -0.23,1.2c-0.06,0.4 -0.12,0.8 -0.15,1.21c-0.04,0.4 -0.06,0.81 -0.07,1.22c0,0.44 0.03,0.89 0.09,1.32c0.06,0.44 0.14,0.87 0.26,1.3c0.11,0.43 0.25,0.85 0.42,1.26c0.17,0.41 0.36,0.81 0.58,1.19l-0.25,0.11c0.08,0.16 0.16,0.32 0.25,0.47c-0.35,0.14 -0.72,0.24 -1.1,0.27c-0.38,0.04 -0.76,0.02 -1.13,-0.06c-0.37,-0.07 -0.73,-0.2 -1.06,-0.38c-0.33,-0.18 -0.64,-0.41 -0.91,-0.67c0.11,0.7 0.24,1.4 0.38,2.1c0.14,0.7 0.29,1.39 0.46,2.08c0.17,0.69 0.35,1.38 0.54,2.06c0.19,0.68 0.4,1.36 0.62,2.04l5.58,-0.89v7.49l0.29,0c0.04,0.02 0.08,0.04 0.12,0.06c0.04,0.02 0.08,0.04 0.12,0.07c0.04,0.02 0.08,0.05 0.12,0.08c0.04,0.03 0.07,0.05 0.11,0.08c2.36,1.81 5.35,9.49 7.42,15.55zM953.74,385.47c3.33,0.66 11.54,0.22 20.38,-0.6l-19.8,-2.3c-2.16,-0.68 -4.09,-1.39 -5.83,-2.11l5.25,5z" />
	<path id="Layer" class="shp32" d="M1003.86,382.53c0,0 -40.73,5.66 -49.22,4l-22.63,-21.5c-22.63,-21.5 -21.5,16.41 12.45,27.15l63.36,7.35z" />
	<path id="Layer" class="shp15" d="M1003.86,382.53c0,0 -40.73,5.66 -49.22,4l-22.63,-21.5c-22.63,-21.5 -21.5,16.41 12.45,27.15l63.36,7.35z" />
	<path id="Layer" class="shp33" d="M1018.57,612.21l-19.8,17.54c-19.8,17.54 -11.31,2.83 -17.54,2.26c-6.23,-0.57 -9.05,9.62 5.66,10.75c14.71,1.13 61.66,-2.26 61.66,-2.26c0,0 4.53,-18.1 -9.05,-28.29z" />
	<path id="Layer" class="shp15" d="M1018.57,612.21l-19.8,17.54c-19.8,17.54 -11.31,2.83 -17.54,2.26c-6.23,-0.57 -9.05,9.62 5.66,10.75c14.71,1.13 61.66,-2.26 61.66,-2.26c0,0 4.53,-18.1 -9.05,-28.29z" />
	<path id="Layer" class="shp34" d="M1049.26,632.66c-0.01,0.52 -0.03,1.03 -0.06,1.54c-0.03,0.51 -0.08,1.03 -0.14,1.54c-0.06,0.51 -0.13,1.02 -0.22,1.53c-0.08,0.51 -0.18,1.01 -0.29,1.52c-0.11,0.5 -47,3.39 -61.66,2.26c-7.07,-0.54 -10.08,-3.18 -10.62,-5.71c-0.64,2.9 1.92,6.74 10.62,7.41c14.71,1.13 61.66,-2.26 61.66,-2.26c0.14,-0.64 0.26,-1.29 0.35,-1.94c0.1,-0.65 0.18,-1.3 0.24,-1.96c0.06,-0.65 0.1,-1.31 0.12,-1.97c0.02,-0.66 0.02,-1.31 0,-1.97z" />
	<path id="Layer" class="shp32" d="M1041.76,291.45c0,0 12.45,17.54 7.92,29.42c-4.53,11.88 23.73,-12.45 23.73,-12.45c0,0 -9.05,-15.84 -4.53,-32.81z" />
	<path id="Layer" class="shp33" d="M1038.41,618.99l-19.8,17.54c-19.8,17.54 -11.31,2.83 -17.54,2.26c-6.23,-0.57 -9.05,9.62 5.66,10.75c14.71,1.13 61.66,-2.26 61.66,-2.26c0,0 4.53,-18.1 -9.05,-28.29z" />
	<path id="Layer" class="shp35" d="M1041.28,600.88c3.37,-3.4 -17,-62.23 -17,-62.23c0,0 -10.75,-16.97 -4.53,-36.2c6.22,-19.23 -0.57,-40.16 -0.57,-40.16c0,0 16.43,-4.89 15.06,-25.68c-0.05,-0.75 -0.12,-1.49 -0.21,-2.23c-0.09,-0.74 -0.19,-1.48 -0.32,-2.22c-0.12,-0.74 -0.26,-1.47 -0.42,-2.2c-0.16,-0.73 -0.33,-1.46 -0.53,-2.18l-11.84,-9.09l-12.49,-9.58l-15.84,9.62l-1.25,22.37l-5,89.07c0,0 -1.13,16.41 14.14,23.76c0,0 18.66,54.88 11.31,61.1c0,0 10.89,5.72 20.78,5.25c4.35,-0.25 8.51,-1.61 11.46,-5.25c0,0 -6.12,-10.75 -2.75,-14.15z" />
	<path id="Layer" class="shp15" d="M1041.28,600.88c3.37,-3.4 -17,-62.23 -17,-62.23c0,0 -10.75,-16.97 -4.53,-36.2c6.22,-19.23 -0.57,-40.16 -0.57,-40.16c0,0 16.43,-4.89 15.06,-25.68c-0.05,-0.75 -0.12,-1.49 -0.21,-2.23c-0.09,-0.74 -0.19,-1.48 -0.32,-2.22c-0.12,-0.74 -0.26,-1.47 -0.42,-2.2c-0.16,-0.73 -0.33,-1.46 -0.53,-2.18l-11.84,-9.09l-12.49,-9.58l-15.84,9.62l-1.25,22.37l-5,89.07c0,0 -1.13,16.41 14.14,23.76c0,0 18.66,54.88 11.31,61.1c0,0 10.89,5.72 20.78,5.25c4.35,-0.25 8.51,-1.61 11.46,-5.25c0,0 -6.12,-10.75 -2.75,-14.15z" />
	<path id="Layer" class="shp35" d="M1061.03,607.68c3.37,-3.4 -17,-62.23 -17,-62.23c0,0 -10.75,-16.97 -4.53,-36.2c6.22,-19.23 -0.57,-40.16 -0.57,-40.16c0,0 14.83,-4.41 15.14,-22.68c0,-1 -0.02,-1.99 -0.09,-2.99c-0.06,-1 -0.16,-1.99 -0.29,-2.98c-0.13,-0.99 -0.29,-1.97 -0.49,-2.95c-0.2,-0.98 -0.43,-1.95 -0.69,-2.91l-24.33,-18.67l-7.31,2.79l-23.8,9.09l0.52,11.74l4,90.65c0,0 1.73,17.54 17,24.89c0,0 18.15,53.93 14,65.21c-0.05,0.15 -0.11,0.29 -0.17,0.43c-0.07,0.14 -0.14,0.27 -0.23,0.4c-0.08,0.13 -0.18,0.25 -0.28,0.37c-0.1,0.12 -0.21,0.23 -0.32,0.33c0,0 22.62,11.88 32.24,0c0,0 -6.17,-10.74 -2.8,-14.14z" />
	<path id="Layer" class="shp10" d="M1053.98,443.42c-0.06,-0.99 -0.16,-1.98 -0.29,-2.97c-0.13,-0.99 -0.29,-1.97 -0.49,-2.94c-0.2,-0.97 -0.43,-1.94 -0.69,-2.9l-24.33,-18.67l-7.31,2.79l-12.49,-9.58l-15.84,9.62l-1.25,22.37c0.54,-0.08 1.07,-0.18 1.6,-0.28c0.53,-0.11 1.06,-0.23 1.59,-0.36c0.53,-0.13 1.05,-0.28 1.57,-0.43c0.52,-0.16 1.03,-0.33 1.55,-0.51c1.33,-0.48 2.65,-1.02 3.94,-1.61c1.29,-0.59 2.55,-1.24 3.79,-1.94c1.24,-0.7 2.44,-1.45 3.61,-2.25c1.17,-0.8 2.31,-1.65 3.41,-2.54c13.58,-10.75 18.67,3.39 18.67,3.39c0,0 1.24,0.78 3.18,2c5.09,3.2 14.99,9.09 19.88,9.79c0,-0.99 -0.03,-1.99 -0.09,-2.98z" />
	<path id="Layer" class="shp36" d="M1085.07,334.1c0.05,-1.27 0.02,-2.54 -0.08,-3.8c-0.11,-1.26 -0.29,-2.52 -0.55,-3.76c-0.26,-1.24 -0.6,-2.47 -1.01,-3.67c-2.03,-5.95 -4.96,-13.5 -7.29,-15.28c-0.04,-0.03 -0.07,-0.05 -0.11,-0.08c-0.04,-0.03 -0.07,-0.05 -0.11,-0.07c-0.04,-0.02 -0.08,-0.05 -0.12,-0.07c-0.04,-0.02 -0.08,-0.04 -0.12,-0.06v-7.35l-14.14,2.26c0,0 -18.11,12.43 -25.46,13c-0.03,0.33 -0.07,0.65 -0.12,0.97c-0.05,0.32 -0.1,0.65 -0.16,0.97c-0.06,0.32 -0.13,0.64 -0.2,0.96c-0.07,0.32 -0.15,0.64 -0.24,0.95c-0.19,0.79 -0.43,1.56 -0.71,2.32c-0.28,0.76 -0.61,1.5 -0.98,2.23c-0.37,0.72 -0.78,1.42 -1.22,2.1c-0.45,0.68 -0.93,1.33 -1.46,1.95c-4.52,5.09 -24.89,43.56 -24.89,43.56c0,0 -20.93,49.78 -18.1,68.45c0,0 10.75,0.57 24.33,-10.18c13.58,-10.75 18.67,3.39 18.67,3.39c0,0 18.67,12.45 24.33,11.88c0,0 -2.83,-10.18 0.57,-17.54c3.4,-7.36 10.75,-0.55 17.54,-30.55c4.91,-21.7 9.25,-46.65 11.25,-58.79c0.2,-1.25 0.33,-2.52 0.38,-3.78z" />
	<path id="Layer" class="shp10" d="M1073.41,314.65c0,0 -14.71,-11.88 -36.77,26.59c-22.06,38.47 -27.15,32.24 -27.15,32.24c0,0 4.53,17 2.26,20.37c0,0 15.27,-1.13 20.93,0c5.66,1.13 40.73,-42.97 40.73,-42.97c0,0 18.14,-24.92 0,-36.23z" />
	<path id="Layer" class="shp10" d="M1072.88,312.38c0,0 -14.71,-11.88 -36.77,26.59c-22.06,38.47 -27.15,32.24 -27.15,32.24c0,0 17.54,19.23 23.19,20.37c5.65,1.14 40.73,-43 40.73,-43c0,0 18.1,-24.88 0,-36.2z" />
	<path id="Layer" class="shp10" d="M1018.61,391.04l-4,-17c0,0 -2.17,0.3 -5.61,0.75c0.91,3.82 2.49,11.19 2.26,15.38z" />
	<path id="Layer" class="shp10" d="M1069.48,276.75l-27.15,15.84c0.29,0.42 0.57,0.84 0.84,1.26c0.27,0.42 0.54,0.85 0.81,1.29c0.26,0.43 0.52,0.87 0.77,1.31c0.25,0.44 0.5,0.88 0.74,1.33c0.39,0.08 0.78,0.15 1.18,0.21c0.39,0.06 0.79,0.11 1.19,0.15c0.4,0.04 0.8,0.07 1.19,0.09c0.4,0.02 0.8,0.03 1.2,0.03c7.25,0 10.63,-7.61 15,-12.73c-0.31,-4.11 3.02,-4.22 4.23,-8.77z" />
	<path id="Layer" class="shp32" d="M1073.45,273.35c0,-13.14 -10.62,-23.76 -23.76,-23.76c-13.14,0 -23.76,10.62 -23.76,23.76c0,13.14 10.62,23.76 23.76,23.76c13.14,0 23.76,-10.62 23.76,-23.76z" />
	<path id="Layer" class="shp37" d="M821.62,444.63h191.35v-144.2h-191.35z" />
	<path id="Layer" class="shp8" d="M825.91,441.4h182.77v-137.74h-182.77z" />
	<path id="Layer" class="shp0" d="M843.79,350.01h60.92v-34.43h-60.92z" />
	<path id="Layer" class="shp9" d="M919.28,323.53h71.52v-7.95h-71.52z" />
	<path id="Layer" class="shp9" d="M919.28,336.78h50.33v-7.95h-50.33z" />
	<path id="Layer" class="shp9" d="M919.28,350.02h71.52v-7.95h-71.52z" />
	<path id="Layer" class="shp9" d="M843.79,363.26h147.01v-7.95h-147.01z" />
	<path id="Layer" class="shp9" d="M843.79,376.51h147.01v-7.95h-147.01z" />
	<path id="Layer" class="shp9" d="M843.79,389.75h147.01v-7.95h-147.01z" />
	<path id="Layer" class="shp9" d="M843.79,403h135.09v-7.95h-135.09z" />
	<path id="Layer" class="shp9" d="M843.79,416.24h147.01v-7.95h-147.01z" />
	<path id="Layer" class="shp9" d="M843.79,429.48h147.01v-7.95h-147.01z" />
	<path id="Layer" class="shp10" d="M1019.95,265.84c3.02,2.16 6.72,1.31 9.86,0.05c8.43,-3.37 12.4,1.59 14.73,9.47c0.1,0.44 0.24,0.87 0.41,1.28c0.18,0.41 0.39,0.81 0.64,1.18c0.25,0.37 0.54,0.72 0.85,1.04c0.32,0.32 0.66,0.61 1.03,0.86c1.55,0.92 3.89,0.6 4.7,-1c0.41,-0.82 0.38,-1.82 0.86,-2.61c1.21,-2.04 4.43,-0.98 6.21,0.6c0.72,0.64 1.39,1.32 2.01,2.04c0.62,0.73 1.19,1.49 1.71,2.3c0.52,0.8 0.98,1.64 1.38,2.51c0.4,0.87 0.75,1.76 1.03,2.68c0.58,1.87 0.94,3.87 2,5.49c1.06,1.62 3.26,2.74 5,1.85c-1.8,-3.03 -1.55,-6.84 -0.57,-10.27c0.98,-3.43 2.64,-6.59 3.56,-10c0.38,-1.43 0.63,-2.89 0.75,-4.36c0.12,-1.47 0.11,-2.96 -0.04,-4.43c-0.15,-1.47 -0.43,-2.93 -0.83,-4.35c-0.41,-1.42 -0.94,-2.8 -1.6,-4.13c-0.11,-0.25 -0.23,-0.49 -0.36,-0.72c-0.14,-0.23 -0.29,-0.45 -0.45,-0.67c-0.16,-0.21 -0.34,-0.42 -0.53,-0.61c-0.19,-0.19 -0.39,-0.37 -0.6,-0.54c-0.19,-0.11 -0.39,-0.21 -0.58,-0.31c-0.2,-0.1 -0.39,-0.2 -0.59,-0.3c-0.2,-0.1 -0.4,-0.19 -0.6,-0.28c-0.2,-0.09 -0.4,-0.18 -0.61,-0.27c-0.34,-0.23 -0.67,-0.47 -0.98,-0.73c-0.32,-0.26 -0.62,-0.54 -0.91,-0.83c-0.29,-0.29 -0.56,-0.59 -0.83,-0.91c-0.26,-0.32 -0.51,-0.64 -0.73,-0.98c-0.97,-1.18 -2.02,-2.28 -3.15,-3.31c-1.13,-1.02 -2.34,-1.96 -3.6,-2.81c-1.27,-0.85 -2.6,-1.6 -3.98,-2.25c-1.38,-0.65 -2.81,-1.2 -4.27,-1.64c-0.38,-0.14 -0.77,-0.26 -1.17,-0.34c-0.4,-0.09 -0.8,-0.15 -1.2,-0.18c-0.4,-0.03 -0.81,-0.04 -1.22,-0.01c-0.41,0.02 -0.81,0.08 -1.21,0.16c-3.68,1.01 -5,5.55 -8,7.94c-2.64,2.07 -6.26,2.29 -9.56,3c-0.84,0.14 -1.67,0.35 -2.47,0.62c-0.81,0.27 -1.59,0.61 -2.35,1c-0.75,0.4 -1.48,0.85 -2.16,1.36c-0.68,0.51 -1.33,1.07 -1.92,1.68c-2.85,3.22 -3.62,8.86 0.32,11.71z" />
	<path id="Layer" class="shp20" d="M1019.95,265.27c3.02,2.16 6.72,1.31 9.86,0.05c8.43,-3.37 12.4,1.59 14.73,9.47c0.1,0.44 0.24,0.87 0.41,1.28c0.18,0.41 0.39,0.81 0.64,1.18c0.25,0.37 0.54,0.72 0.85,1.04c0.32,0.32 0.66,0.61 1.03,0.86c1.55,0.92 3.89,0.6 4.7,-1c0.41,-0.82 0.38,-1.82 0.86,-2.61c1.21,-2.04 4.43,-0.98 6.21,0.6c0.72,0.64 1.39,1.32 2.01,2.04c0.62,0.73 1.19,1.49 1.71,2.3c0.52,0.8 0.98,1.64 1.38,2.51c0.4,0.87 0.75,1.76 1.03,2.68c0.58,1.87 0.94,3.87 2,5.49c1.06,1.62 3.26,2.74 5,1.85c-1.8,-3.03 -1.55,-6.84 -0.57,-10.27c0.98,-3.43 2.64,-6.59 3.56,-10c0.38,-1.43 0.63,-2.89 0.75,-4.36c0.12,-1.47 0.11,-2.96 -0.04,-4.43c-0.15,-1.47 -0.43,-2.93 -0.83,-4.35c-0.41,-1.42 -0.94,-2.8 -1.6,-4.13c-0.11,-0.25 -0.23,-0.49 -0.36,-0.72c-0.14,-0.23 -0.29,-0.45 -0.45,-0.67c-0.16,-0.21 -0.34,-0.42 -0.53,-0.61c-0.19,-0.19 -0.39,-0.37 -0.6,-0.54c-0.19,-0.11 -0.39,-0.21 -0.58,-0.31c-0.2,-0.1 -0.39,-0.2 -0.59,-0.3c-0.2,-0.1 -0.4,-0.19 -0.6,-0.28c-0.2,-0.09 -0.4,-0.18 -0.61,-0.27c-0.34,-0.23 -0.67,-0.47 -0.98,-0.73c-0.32,-0.26 -0.62,-0.54 -0.91,-0.83c-0.29,-0.29 -0.56,-0.59 -0.83,-0.91c-0.26,-0.32 -0.51,-0.64 -0.73,-0.98c-0.97,-1.18 -2.02,-2.28 -3.15,-3.31c-1.13,-1.02 -2.34,-1.96 -3.6,-2.81c-1.27,-0.85 -2.6,-1.6 -3.98,-2.25c-1.38,-0.65 -2.81,-1.2 -4.27,-1.64c-0.38,-0.14 -0.77,-0.26 -1.17,-0.34c-0.4,-0.09 -0.8,-0.15 -1.2,-0.18c-0.4,-0.03 -0.81,-0.04 -1.22,-0.01c-0.41,0.02 -0.81,0.08 -1.21,0.16c-3.68,1.01 -5,5.55 -8,7.94c-2.64,2.07 -6.26,2.29 -9.56,3c-0.84,0.14 -1.67,0.35 -2.47,0.62c-0.81,0.27 -1.59,0.61 -2.35,1c-0.75,0.4 -1.48,0.85 -2.16,1.36c-0.68,0.51 -1.33,1.07 -1.92,1.68c-2.85,3.23 -3.62,8.86 0.32,11.71z" />
	<path id="Layer" class="shp15" d="M1076.06,307.5c-0.04,-0.02 -0.08,-0.05 -0.12,-0.07c-0.04,-0.02 -0.08,-0.04 -0.12,-0.06c-0.04,-0.02 -0.08,-0.04 -0.12,-0.06v-7.35l-14.14,2.26c0,0 -18.11,12.43 -25.46,13c-0.03,0.33 -0.07,0.65 -0.12,0.97c-0.05,0.32 -0.1,0.65 -0.16,0.97c-0.06,0.32 -0.13,0.64 -0.2,0.96c-0.07,0.32 -0.15,0.64 -0.24,0.95c2.22,-0.47 5.72,-1.12 6.1,-0.74c0.56,0.56 11.69,-10.75 23.19,-10.75h11.5c-0.04,-0.03 -0.07,-0.05 -0.11,-0.08z" />
	<path id="Layer" class="shp34" d="M1069.06,639.45c-0.01,0.52 -0.03,1.03 -0.06,1.54c-0.03,0.51 -0.08,1.03 -0.14,1.54c-0.06,0.51 -0.13,1.02 -0.22,1.53c-0.08,0.51 -0.18,1.01 -0.29,1.52c-0.11,0.5 -47,3.39 -61.66,2.26c-7.07,-0.54 -10.08,-3.18 -10.62,-5.71c-0.64,2.9 1.92,6.74 10.62,7.41c14.71,1.13 61.66,-2.26 61.66,-2.26c0.14,-0.64 0.26,-1.29 0.35,-1.94c0.1,-0.65 0.18,-1.3 0.24,-1.96c0.06,-0.65 0.1,-1.31 0.12,-1.97c0.02,-0.66 0.02,-1.31 0,-1.97z" />
	<g id="Layer" style="opacity: 0.051">
		<path id="Layer" class="shp24" d="M1006.97,428.88c-7.63,6 -14.38,8.51 -18.81,9.51c0,0.42 0.08,0.84 0.14,1.24c0,0 10.75,0.57 24.33,-10.18c0.52,-0.45 1.07,-0.87 1.64,-1.25c0.57,-0.39 1.16,-0.74 1.77,-1.06c0.61,-0.32 1.24,-0.6 1.88,-0.85c0.64,-0.25 1.3,-0.46 1.97,-0.63c-2.96,-1.37 -7.19,-1.28 -12.93,3.23z" />
		<path id="Layer" class="shp24" d="M1083.75,322.88c-2,-6 -5,-13.5 -7.29,-15.28c-0.04,-0.03 -0.07,-0.05 -0.11,-0.08c-0.04,-0.03 -0.07,-0.05 -0.11,-0.07c-0.04,-0.02 -0.08,-0.05 -0.12,-0.07c-0.04,-0.02 -0.08,-0.04 -0.12,-0.06c-0.04,-0.02 -4.68,0.16 -4.53,0.28c2.33,1.78 4.59,8.76 6.62,14.71c0.41,1.2 0.74,2.42 1,3.66c0.26,1.24 0.44,2.5 0.54,3.76c0.1,1.26 0.13,2.53 0.08,3.8c-0.05,1.27 -0.18,2.53 -0.39,3.78c-2,12.14 -6.34,37.09 -11.25,58.79c-6.79,30 -14.14,23.19 -17.54,30.55c-2.78,6 -1.39,13.94 -0.79,16.61c2.42,1 4.52,1.63 5.88,1.49c0,0 -2.83,-10.18 0.57,-17.54c3.4,-7.36 10.75,-0.57 17.54,-30.55c4.91,-21.69 9.23,-46.65 11.25,-58.79c0.21,-1.25 0.33,-2.51 0.39,-3.78c0.05,-1.27 0.03,-2.53 -0.08,-3.79c-0.1,-1.26 -0.28,-2.52 -0.54,-3.76c-0.26,-1.24 -0.59,-2.46 -1,-3.66z" />
	</g>
	<path id="Layer" class="shp32" d="M1014.65,374.05c0,0 -2.17,0.3 -5.61,0.75c-11.47,1.47 -37.07,4.52 -43.6,3.21l-22.63,-21.5c0,0 -21.49,16.4 12.45,27.15l56,6.51l7.31,0.85z" />
	<path id="Layer" class="shp36" d="M1073.41,313.52c0,0 -14.71,-11.88 -36.77,26.59c-22.06,38.47 -27.15,32.24 -27.15,32.24c0,0 4.53,17 2.26,20.37c0,0 15.27,-1.13 20.93,0c5.66,1.13 40.73,-43 40.73,-43c0,0 18.14,-24.89 0,-36.2z" />
</svg>