<svg xmlns="http://www.w3.org/2000/svg" viewBox="0 0 1098 808" width="1098" height="808">
	<style>
		tspan { white-space:pre }
		.shp0 { opacity: 0.102;fill: #6c63ff } 
		.shp1 { fill: #535461 } 
		.shp2 { fill: #6c63ff } 
		.shp3 { fill: #eaeaf3 } 
		.shp4 { fill: #ffffff } 
	</style>
	<g id="Layer" style="opacity: 0.102">
	</g>
	<path id="Layer" class="shp0" d="M299.74,775.76c39.32,13.22 87.29,5.18 131.9,6.11c6.11,0.13 12.57,0.51 17.47,2.79c4.9,2.28 7.31,6 10.67,9.15c12.5,11.79 38.11,15.58 60.5,13.58c22.39,-2 42.92,-8.62 64,-13.66c36.52,-8.72 78.27,-12.68 114.29,-3.18c3.31,0.87 6.79,1.87 10.33,1.53c7.9,-0.78 10.25,-7.1 15.77,-10.71c10,-6.52 31.63,-4.75 36,-13.34c2.57,-5 -3.34,-10.2 -9.77,-13.64c-24.62,-13.16 -59.84,-15.33 -92.06,-13.3c-32.22,2.03 -63.9,7.63 -96.29,7.65c-40.35,0 -79.34,-8.59 -119.3,-12.11c-27.68,-2.44 -57.89,-2.14 -83.84,5c-28.05,7.82 -34.25,25.26 -59.67,34.13z" />
	<path id="Layer" class="shp1" d="M365.51,283.9h7v-99h-7z" />
	<path id="Layer" class="shp1" d="M365.51,373.9h7v-56h-7z" />
	<path id="Layer" class="shp1" d="M370.51,135v589.8c0,26.05 21.05,47.1 47.1,47.1h220.8c26.05,0 47.1,-21.05 47.1,-47.1v-589.8c0,-26.05 -21.05,-47.1 -47.1,-47.1h-220.8c-26.05,0 -47.1,21.05 -47.1,47.1z" />
	<path id="Layer" class="shp2" d="M370.51,167v528.8c0,26.05 21.05,47.1 47.1,47.1h220.8c26.05,0 47.1,-21.05 47.1,-47.1v-528.8c0,-26.05 -21.05,-47.1 -47.1,-47.1h-220.8c-26.05,0 -47.1,21.05 -47.1,47.1z" />
	<path id="Layer" class="shp3" d="M502.51,106.4v0c0,1.94 1.56,3.5 3.5,3.5h45c1.94,0 3.5,-1.56 3.5,-3.5v0c0,-1.94 -1.56,-3.5 -3.5,-3.5h-45c-1.94,0 -3.5,1.56 -3.5,3.5z" />
	<path id="Layer" class="shp3" d="M577.51,106.9c0,-2.77 -2.24,-5 -5,-5c-2.76,0 -5,2.23 -5,5c0,2.77 2.24,5 5,5c2.76,0 5,-2.23 5,-5z" />
	<path id="Layer" class="shp4" d="M446.31,469.1c0.03,2.29 -0.4,4.56 -1.27,6.68c-0.86,2.12 -2.13,4.05 -3.75,5.67c-1.61,1.62 -3.53,2.91 -5.65,3.79c-2.11,0.88 -4.38,1.32 -6.67,1.32c-9.64,0 -19,-7.81 -19,-17.46v-73c0,-9.52 9.33,-17.33 19,-17.33c2.27,0.01 4.52,0.46 6.62,1.34c2.1,0.87 4.01,2.15 5.61,3.76c1.61,1.61 2.88,3.51 3.76,5.61c0.87,2.1 1.33,4.35 1.34,6.62zM453.12,381.95h155.87v113.1c0.01,2.44 -0.47,4.86 -1.39,7.12c-0.93,2.26 -2.29,4.31 -4.01,6.04c-1.72,1.73 -3.77,3.11 -6.02,4.05c-2.25,0.94 -4.67,1.43 -7.11,1.44h-12.73v38.51c0,23.19 -35,23.13 -35,0v-38.51h-23.44v38.5c0,23.07 -34.79,23.25 -34.79,0l-0.19,-38.51h-12.54c-2.45,0.01 -4.88,-0.47 -7.14,-1.41c-2.27,-0.94 -4.32,-2.31 -6.06,-4.04c-1.73,-1.73 -3.11,-3.79 -4.04,-6.06c-0.94,-2.27 -1.41,-4.69 -1.41,-7.14zM609.41,375.87h-157c0,-27 16.13,-50.42 40.08,-62.64l-12,-22.25c-1.76,-3.09 2.71,-5 4.22,-2.39l12.23,22.44c5.37,-2.35 10.96,-4.14 16.69,-5.33c5.73,-1.2 11.57,-1.8 17.43,-1.8c5.86,0 11.7,0.6 17.43,1.8c5.73,1.2 11.33,2.99 16.69,5.33l12.16,-22.37c1.58,-2.71 6,-0.69 4.22,2.39l-12,22.18c23.71,12.22 39.84,35.67 39.84,62.64zM501.83,340.87c0,-0.87 -0.17,-1.73 -0.5,-2.53c-0.33,-0.8 -0.82,-1.53 -1.44,-2.15c-0.61,-0.61 -1.34,-1.1 -2.15,-1.44c-0.8,-0.33 -1.66,-0.5 -2.53,-0.5c-1.71,0.07 -3.33,0.79 -4.51,2.03c-1.19,1.23 -1.85,2.88 -1.85,4.59c0,1.71 0.66,3.36 1.85,4.59c1.19,1.23 2.8,1.96 4.51,2.03c0.87,0 1.73,-0.17 2.53,-0.5c0.8,-0.33 1.53,-0.82 2.14,-1.43c0.61,-0.61 1.1,-1.34 1.44,-2.14c0.33,-0.8 0.51,-1.66 0.51,-2.52zM573.3,340.87c-0.04,-2.64 -1.66,-4.99 -4.11,-5.96c-2.45,-0.97 -5.24,-0.37 -7.08,1.52c-1.84,1.89 -2.35,4.7 -1.31,7.12c1.04,2.42 3.44,3.98 6.08,3.94c0.85,-0.02 1.69,-0.2 2.48,-0.55c0.78,-0.34 1.49,-0.83 2.09,-1.44c0.6,-0.61 1.07,-1.33 1.39,-2.12c0.32,-0.79 0.48,-1.64 0.48,-2.49zM633.04,378.77c9.64,0 18.97,7.63 19,17.31v73c0,9.65 -9.29,17.46 -19,17.46c-2.28,-0.01 -4.55,-0.47 -6.65,-1.35c-2.11,-0.88 -4.02,-2.17 -5.63,-3.79c-1.61,-1.62 -2.88,-3.54 -3.75,-5.66c-0.87,-2.11 -1.31,-4.38 -1.3,-6.66l0,-73c-0.01,-2.28 0.44,-4.53 1.31,-6.64c0.87,-2.11 2.14,-4.02 3.76,-5.63c1.61,-1.61 3.52,-2.89 5.63,-3.76c2.11,-0.87 4.36,-1.31 6.64,-1.31z" />
	<path id="Layer" class="shp1" d="M454.01,572.46h65v-3h-65z" />
	<path id="Layer" class="shp1" d="M543.01,572.46h43v-3h-43z" />
	<path id="Layer" class="shp1" d="M397.01,572.46h43v-3h-43z" />
	<path id="Layer" class="shp1" d="M611.01,572.46h43v-3h-43z" />
</svg>