<svg width="11" height="19" viewBox="0 0 11 19" fill="none" xmlns="http://www.w3.org/2000/svg">
<path d="M2.14912 0.375195L10.5741 8.7752C10.6741 8.8752 10.7448 8.98353 10.7861 9.10019C10.8281 9.21686 10.8491 9.34186 10.8491 9.47519C10.8491 9.60853 10.8281 9.73353 10.7861 9.85019C10.7448 9.96686 10.6741 10.0752 10.5741 10.1752L2.14912 18.6002C1.91579 18.8335 1.62412 18.9502 1.27412 18.9502C0.924121 18.9502 0.624122 18.8252 0.374122 18.5752C0.124122 18.3252 -0.000878334 18.0335 -0.000878334 17.7002C-0.000878334 17.3669 0.124122 17.0752 0.374122 16.8252L7.72412 9.47519L0.374122 2.12519C0.140788 1.89186 0.0241213 1.60453 0.0241213 1.2632C0.0241213 0.921196 0.149121 0.625195 0.399121 0.375195C0.649121 0.125195 0.940788 0.00019455 1.27412 0.00019455C1.60745 0.00019455 1.89912 0.125195 2.14912 0.375195Z" fill="white"/>
</svg>
