<svg width="28" height="34" viewBox="0 0 28 34" fill="none" xmlns="http://www.w3.org/2000/svg">
<path d="M14 17C14.9166 17 15.7016 16.6733 16.355 16.02C17.0072 15.3678 17.3333 14.5833 17.3333 13.6667C17.3333 12.75 17.0072 11.965 16.355 11.3117C15.7016 10.6594 14.9166 10.3333 14 10.3333C13.0833 10.3333 12.2988 10.6594 11.6466 11.3117C10.9933 11.965 10.6666 12.75 10.6666 13.6667C10.6666 14.5833 10.9933 15.3678 11.6466 16.02C12.2988 16.6733 13.0833 17 14 17ZM14 33.6667C9.52774 29.8611 6.18774 26.3261 3.97996 23.0617C1.77107 19.7983 0.666626 16.7778 0.666626 14C0.666626 9.83333 2.00718 6.51388 4.68829 4.04166C7.36829 1.56944 10.4722 0.333328 14 0.333328C17.5277 0.333328 20.6316 1.56944 23.3116 4.04166C25.9927 6.51388 27.3333 9.83333 27.3333 14C27.3333 16.7778 26.2294 19.7983 24.0216 23.0617C21.8127 26.3261 18.4722 29.8611 14 33.6667Z" fill="white"/>
</svg>
