<svg xmlns="http://www.w3.org/2000/svg" width="208.001" height="208.001" viewBox="0 0 208.001 208.001">
    <g id="Group_80" data-name="Group 80" transform="translate(-2278.537 -997.268)">
        <g id="Group_79" data-name="Group 79" transform="translate(-2221 0.264)">
            <g id="Group_39" data-name="Group 39" transform="translate(4499.537 997)">
                <g id="Group_38" data-name="Group 38">
                    <path id="Path_21" data-name="Path 21"
                          d="M-133.894-474.9H-329.659a6.117,6.117,0,0,0-6.118,6.119v195.764a6.118,6.118,0,0,0,6.118,6.118h195.765a6.117,6.117,0,0,0,6.118-6.119V-468.786a6.116,6.116,0,0,0-6.118-6.114ZM-146.13-279.139H-317.424a6.118,6.118,0,0,1-6.118-6.118V-456.551a6.117,6.117,0,0,1,6.119-6.118H-146.13a6.116,6.116,0,0,1,6.118,6.118v171.294a6.117,6.117,0,0,1-6.119,6.118Z"
                          transform="translate(335.777 474.904)" fill="#2e1f26"/>
                </g>
                <path id="Path_22" data-name="Path 22"
                      d="M-174.189-441.786v85.647a6.117,6.117,0,0,1-6.119,6.118h0a6.118,6.118,0,0,1-6.118-6.118v-73.412a6.116,6.116,0,0,0-6.118-6.118h-97.883a6.117,6.117,0,0,0-6.118,6.119v97.881a6.118,6.118,0,0,0,6.118,6.118h73.412a6.116,6.116,0,0,1,6.118,6.118h0a6.117,6.117,0,0,1-6.119,6.118h-85.646a6.118,6.118,0,0,1-6.118-6.118V-441.786a6.117,6.117,0,0,1,6.119-6.118h122.352a6.116,6.116,0,0,1,6.119,6.118Z"
                      transform="translate(345.409 484.707)" fill="#2e1f26"/>
                <g id="Group_76" data-name="Group 76" transform="translate(138.51 138.687)">
                    <rect id="Rectangle_35" data-name="Rectangle 35" width="13.1" height="13.1" rx="2" fill="#eaa09c"
                          opacity="0.5"/>
                    <rect id="Rectangle_34" data-name="Rectangle 34" width="17.466" height="17.466" rx="3"
                          transform="translate(4.325 4.325)" fill="#eaa09c"/>
                    <rect id="Rectangle_14" data-name="Rectangle 14" width="23" height="23" rx="4"
                          transform="translate(8.479 10.582)" fill="#f15f57"/>
                </g>
            </g>
        </g>
    </g>
</svg>
