<svg width="470" height="295" viewBox="0 0 470 295" fill="none" xmlns="http://www.w3.org/2000/svg">
<rect x="302.93" y="282.623" width="151.663" height="180.527" rx="39" transform="rotate(33.7768 302.93 282.623)" stroke="#F15F57" stroke-opacity="0.12" stroke-width="2" stroke-dasharray="4 4"/>
<rect x="102.077" y="148.442" width="214.046" height="180.394" rx="39" transform="rotate(33.7768 102.077 148.442)" stroke="#F15F57" stroke-opacity="0.12" stroke-width="2"/>
<path d="M330.075 454.991L424.321 314.084C436.603 295.722 431.674 270.879 413.311 258.598L398.317 248.569" stroke="#F15F57" stroke-opacity="0.12" stroke-width="2"/>
<ellipse cx="398.167" cy="249.029" rx="4.27815" ry="4.55984" transform="rotate(33.7768 398.167 249.029)" fill="#F15F57" fill-opacity="0.12"/>
<ellipse cx="384.669" cy="276.905" rx="4.27815" ry="4.55984" transform="rotate(33.7768 384.669 276.905)" fill="#F15F57" fill-opacity="0.12"/>
<ellipse cx="341.335" cy="180.096" rx="4.27815" ry="4.55984" transform="rotate(33.7768 341.335 180.096)" fill="#F15F57" fill-opacity="0.12"/>
<ellipse cx="452.128" cy="170.917" rx="4.27815" ry="4.97437" transform="rotate(33.7768 452.128 170.917)" fill="#F15F57" fill-opacity="0.12"/>
<path d="M179.88 356.079L308.753 163.401C321.035 145.039 345.877 140.109 364.24 152.391L435.243 199.882C453.606 212.164 478.448 207.235 490.73 188.872L565.453 77.1544" stroke="#F15F57" stroke-opacity="0.12" stroke-width="2" stroke-dasharray="4 4"/>
<path d="M476.77 35.8306L467.564 49.5933C455.282 67.9559 460.212 92.7982 478.574 105.08L562.485 161.204" stroke="#F15F57" stroke-opacity="0.12" stroke-width="2"/>
<line x1="523.02" y1="66.7261" x2="452.96" y2="171.473" stroke="#F15F57" stroke-opacity="0.12" stroke-width="2"/>
<rect x="319.176" y="-104.32" width="154.152" height="171.274" rx="39" transform="rotate(33.7768 319.176 -104.32)" stroke="#F15F57" stroke-opacity="0.12" stroke-width="2" stroke-dasharray="4 4"/>
<rect x="325.563" y="-118.999" width="82.8499" height="320.505" rx="39" transform="rotate(33.7768 325.563 -118.999)" stroke="#F15F57" stroke-opacity="0.12" stroke-width="2" stroke-dasharray="4 4"/>
<path d="M146.982 336.008L256.636 172.066C268.918 153.704 293.76 148.774 312.122 161.056L339.919 179.648" stroke="#F15F57" stroke-opacity="0.12" stroke-width="2"/>
<ellipse cx="253.984" cy="176.03" rx="2.8521" ry="3.31625" transform="rotate(33.7768 253.984 176.03)" fill="#F15F57" fill-opacity="0.12"/>
<ellipse cx="301.464" cy="221.752" rx="2.8521" ry="3.31625" transform="rotate(33.7768 301.464 221.752)" fill="#F15F57" fill-opacity="0.12"/>
<ellipse cx="184.316" cy="203.241" rx="2.8521" ry="3.31625" transform="rotate(33.7768 184.316 203.241)" fill="#F15F57" fill-opacity="0.12"/>
<ellipse cx="193.205" cy="209.187" rx="2.8521" ry="3.31625" transform="rotate(33.7768 193.205 209.187)" fill="#F15F57" fill-opacity="0.12"/>
<line x1="177.098" y1="138.363" x2="382.756" y2="275.918" stroke="#F15F57" stroke-opacity="0.12" stroke-width="2"/>
<line x1="263.291" y1="9.49679" x2="361.675" y2="75.3013" stroke="#F15F57" stroke-opacity="0.12" stroke-width="2"/>
<ellipse cx="321.278" cy="48.4875" rx="2.8521" ry="3.31625" transform="rotate(33.7768 321.278 48.4875)" fill="#F15F57" fill-opacity="0.12"/>
<ellipse cx="360.395" cy="74.6507" rx="4.27815" ry="4.97437" transform="rotate(33.7768 360.395 74.6507)" fill="#F15F57" fill-opacity="0.12"/>
<path d="M394.765 -19.0584L382.55 -0.796582C372.368 14.4271 352.813 19.2103 338.874 9.88694L298.715 -16.9739C289.059 -23.4319 275.985 -20.7153 269.701 -10.9457V-10.9457" stroke="#F15F57" stroke-opacity="0.12" stroke-width="2"/>
</svg>
