<svg width="518" height="433" viewBox="0 0 518 433" fill="none" xmlns="http://www.w3.org/2000/svg">
<rect x="304.766" y="363.369" width="212.235" height="216.858" rx="39" stroke="#F15F57" stroke-opacity="0.15" stroke-width="2" stroke-dasharray="4 4"/>
<rect x="-32" y="363.528" width="299.208" height="216.699" rx="39" stroke="#F15F57" stroke-opacity="0.15" stroke-width="2"/>
<path d="M470.221 517.265V306.04C470.221 283.949 452.312 266.04 430.221 266.04L389.305 266.04" stroke="#F15F57" stroke-opacity="0.15" stroke-width="2"/>
<ellipse cx="470.008" cy="330.221" rx="3.97635" ry="3.4793" fill="#F15F57" fill-opacity="0.15"/>
<circle cx="470.008" cy="311.83" r="3.97635" fill="#F15F57" fill-opacity="0.15"/>
<ellipse cx="389.487" cy="266.599" rx="5.96452" ry="5.46748" fill="#F15F57" fill-opacity="0.15"/>
<ellipse cx="395.451" cy="303.38" rx="5.96452" ry="5.46748" fill="#F15F57" fill-opacity="0.15"/>
<ellipse cx="270.196" cy="235.782" rx="5.96452" ry="5.46748" fill="#F15F57" fill-opacity="0.15"/>
<circle cx="511.759" cy="70.2668" r="5.96452" fill="#F15F57" fill-opacity="0.15"/>
<circle cx="391.475" cy="152.776" r="5.96452" fill="#F15F57" fill-opacity="0.15"/>
<path d="M219.498 518.806V232.9C219.498 210.809 237.407 192.9 259.498 192.9H410.126C432.217 192.9 450.126 174.992 450.126 152.9V-16.2188" stroke="#F15F57" stroke-opacity="0.15" stroke-width="2" stroke-dasharray="4 4"/>
<path d="M315.323 1.71484V29.5301C315.323 51.6215 333.232 69.5302 355.323 69.5302H511.834" stroke="#F15F57" stroke-opacity="0.15" stroke-width="2"/>
<line x1="392.475" y1="1.67432" x2="392.475" y2="152.775" stroke="#F15F57" stroke-opacity="0.15" stroke-width="2"/>
<circle cx="392.469" cy="97.1072" r="3.97635" fill="#F15F57" fill-opacity="0.15"/>
<rect x="23.6689" y="-33.1123" width="215.705" height="205.764" rx="39" stroke="#F15F57" stroke-opacity="0.15" stroke-width="2" stroke-dasharray="4 4"/>
<rect x="19.6914" y="-52" width="116.296" height="384.7" rx="39" stroke="#F15F57" stroke-opacity="0.15" stroke-width="2" stroke-dasharray="4 4"/>
<path d="M165.817 520.733V276.279C165.817 254.188 183.726 236.279 205.817 236.279L268.208 236.279" stroke="#F15F57" stroke-opacity="0.15" stroke-width="2"/>
<circle cx="165.818" cy="289.96" r="3.97635" fill="#F15F57" fill-opacity="0.15"/>
<circle cx="256.279" cy="303.877" r="3.97635" fill="#F15F57" fill-opacity="0.15"/>
<circle cx="106.173" cy="363.522" r="3.97635" fill="#F15F57" fill-opacity="0.15"/>
<circle cx="121.083" cy="363.522" r="3.97635" fill="#F15F57" fill-opacity="0.15"/>
<line x1="47.5205" y1="303.871" x2="392.469" y2="303.871" stroke="#F15F57" stroke-opacity="0.15" stroke-width="2"/>
<line x1="47.5205" y1="117.977" x2="212.539" y2="117.977" stroke="#F15F57" stroke-opacity="0.15" stroke-width="2"/>
<circle cx="144.941" cy="117.983" r="3.97635" fill="#F15F57" fill-opacity="0.15"/>
<circle cx="177.746" cy="17.5803" r="3.97635" fill="#F15F57" fill-opacity="0.15"/>
<circle cx="210.551" cy="117.983" r="5.96452" fill="#F15F57" fill-opacity="0.15"/>
<path d="M177.745 1.67432V28.0176C177.745 49.9784 158.792 67.7811 135.412 67.7811H63.928C50.0114 67.7811 38.812 79.2167 39.1024 93.1303V93.1303" stroke="#F15F57" stroke-opacity="0.15" stroke-width="2"/>
</svg>
