<svg width="165" height="47" viewBox="0 0 165 47" fill="none" xmlns="http://www.w3.org/2000/svg">
<rect width="165" height="47" rx="10" fill="#F15F57"/>
<path d="M58.3864 23.1818C58.3864 24.4242 58.1591 25.4924 57.7045 26.3864C57.25 27.2765 56.6269 27.9621 55.8352 28.4432C55.0473 28.9205 54.1515 29.1591 53.1477 29.1591C52.1402 29.1591 51.2405 28.9205 50.4489 28.4432C49.661 27.9621 49.0398 27.2746 48.5852 26.3807C48.1307 25.4867 47.9034 24.4205 47.9034 23.1818C47.9034 21.9394 48.1307 20.8731 48.5852 19.983C49.0398 19.089 49.661 18.4034 50.4489 17.9261C51.2405 17.4451 52.1402 17.2045 53.1477 17.2045C54.1515 17.2045 55.0473 17.4451 55.8352 17.9261C56.6269 18.4034 57.25 19.089 57.7045 19.983C58.1591 20.8731 58.3864 21.9394 58.3864 23.1818ZM56.6477 23.1818C56.6477 22.2348 56.4943 21.4375 56.1875 20.7898C55.8845 20.1383 55.4678 19.6458 54.9375 19.3125C54.411 18.9754 53.8144 18.8068 53.1477 18.8068C52.4773 18.8068 51.8788 18.9754 51.3523 19.3125C50.8258 19.6458 50.4091 20.1383 50.1023 20.7898C49.7992 21.4375 49.6477 22.2348 49.6477 23.1818C49.6477 24.1288 49.7992 24.928 50.1023 25.5795C50.4091 26.2273 50.8258 26.7197 51.3523 27.0568C51.8788 27.3902 52.4773 27.5568 53.1477 27.5568C53.8144 27.5568 54.411 27.3902 54.9375 27.0568C55.4678 26.7197 55.8845 26.2273 56.1875 25.5795C56.4943 24.928 56.6477 24.1288 56.6477 23.1818ZM60.4389 32.2727V20.2727H62.098V21.6875H62.2401C62.3385 21.5057 62.4806 21.2955 62.6662 21.0568C62.8518 20.8182 63.1094 20.6098 63.4389 20.4318C63.7685 20.25 64.2041 20.1591 64.7457 20.1591C65.4503 20.1591 66.0791 20.3371 66.6321 20.6932C67.1851 21.0492 67.6188 21.5625 67.9332 22.233C68.2514 22.9034 68.4105 23.7102 68.4105 24.6534C68.4105 25.5966 68.2533 26.4053 67.9389 27.0795C67.6245 27.75 67.1927 28.267 66.6435 28.6307C66.0942 28.9905 65.4673 29.1705 64.7628 29.1705C64.2325 29.1705 63.7988 29.0814 63.4616 28.9034C63.1283 28.7254 62.867 28.517 62.6776 28.2784C62.4882 28.0398 62.3423 27.8277 62.2401 27.642H62.1378V32.2727H60.4389ZM62.1037 24.6364C62.1037 25.25 62.1927 25.7879 62.3707 26.25C62.5488 26.7121 62.8063 27.0739 63.1435 27.3352C63.4806 27.5928 63.8935 27.7216 64.3821 27.7216C64.8897 27.7216 65.3139 27.5871 65.6548 27.3182C65.9957 27.0455 66.2533 26.6761 66.4276 26.2102C66.6056 25.7443 66.6946 25.2197 66.6946 24.6364C66.6946 24.0606 66.6075 23.5436 66.4332 23.0852C66.2628 22.6269 66.0052 22.2652 65.6605 22C65.3196 21.7348 64.8935 21.6023 64.3821 21.6023C63.8897 21.6023 63.473 21.7292 63.1321 21.983C62.795 22.2367 62.5393 22.5909 62.3651 23.0455C62.1908 23.5 62.1037 24.0303 62.1037 24.6364ZM74.0753 29.1761C73.2154 29.1761 72.4749 28.9924 71.8537 28.625C71.2363 28.2538 70.759 27.733 70.4219 27.0625C70.0885 26.3883 69.9219 25.5985 69.9219 24.6932C69.9219 23.7992 70.0885 23.0114 70.4219 22.3295C70.759 21.6477 71.2287 21.1155 71.831 20.733C72.437 20.3504 73.1454 20.1591 73.956 20.1591C74.4484 20.1591 74.9257 20.2405 75.3878 20.4034C75.8499 20.5663 76.2647 20.822 76.6321 21.1705C76.9995 21.5189 77.2893 21.9716 77.5014 22.5284C77.7135 23.0814 77.8196 23.7538 77.8196 24.5455V25.1477H70.8821V23.875H76.1548C76.1548 23.428 76.0639 23.0322 75.8821 22.6875C75.7003 22.339 75.4446 22.0644 75.1151 21.8636C74.7893 21.6629 74.4067 21.5625 73.9673 21.5625C73.4901 21.5625 73.0734 21.6799 72.7173 21.9148C72.3651 22.1458 72.0923 22.4489 71.8991 22.8239C71.7098 23.1951 71.6151 23.5985 71.6151 24.0341V25.0284C71.6151 25.6117 71.7173 26.108 71.9219 26.517C72.1302 26.9261 72.42 27.2386 72.7912 27.4545C73.1624 27.6667 73.5961 27.7727 74.0923 27.7727C74.4143 27.7727 74.7079 27.7273 74.973 27.6364C75.2382 27.5417 75.4673 27.4015 75.6605 27.2159C75.8537 27.0303 76.0014 26.8011 76.1037 26.5284L77.7116 26.8182C77.5829 27.2917 77.3518 27.7064 77.0185 28.0625C76.6889 28.4148 76.2741 28.6894 75.7741 28.8864C75.2779 29.0795 74.7116 29.1761 74.0753 29.1761ZM81.4034 23.8182V29H79.7045V20.2727H81.3352V21.6932H81.4432C81.6439 21.2311 81.9583 20.8598 82.3864 20.5795C82.8182 20.2992 83.3617 20.1591 84.017 20.1591C84.6117 20.1591 85.1326 20.2841 85.5795 20.5341C86.0265 20.7803 86.3731 21.1477 86.6193 21.6364C86.8655 22.125 86.9886 22.7292 86.9886 23.4489V29H85.2898V23.6534C85.2898 23.0208 85.125 22.5265 84.7955 22.1705C84.4659 21.8106 84.0133 21.6307 83.4375 21.6307C83.0436 21.6307 82.6932 21.7159 82.3864 21.8864C82.0833 22.0568 81.8428 22.3068 81.6648 22.6364C81.4905 22.9621 81.4034 23.3561 81.4034 23.8182ZM95.9162 29L92.6889 17.3636H94.5355L96.8026 26.375H96.9105L99.2685 17.3636H101.098L103.456 26.3807H103.564L105.825 17.3636H107.678L104.445 29H102.678L100.229 20.2841H100.138L97.6889 29H95.9162ZM112.044 29.1761C111.184 29.1761 110.444 28.9924 109.822 28.625C109.205 28.2538 108.728 27.733 108.391 27.0625C108.057 26.3883 107.891 25.5985 107.891 24.6932C107.891 23.7992 108.057 23.0114 108.391 22.3295C108.728 21.6477 109.197 21.1155 109.8 20.733C110.406 20.3504 111.114 20.1591 111.925 20.1591C112.417 20.1591 112.894 20.2405 113.357 20.4034C113.819 20.5663 114.233 20.822 114.601 21.1705C114.968 21.5189 115.258 21.9716 115.47 22.5284C115.682 23.0814 115.788 23.7538 115.788 24.5455V25.1477H108.851V23.875H114.124C114.124 23.428 114.033 23.0322 113.851 22.6875C113.669 22.339 113.413 22.0644 113.084 21.8636C112.758 21.6629 112.375 21.5625 111.936 21.5625C111.459 21.5625 111.042 21.6799 110.686 21.9148C110.334 22.1458 110.061 22.4489 109.868 22.8239C109.679 23.1951 109.584 23.5985 109.584 24.0341V25.0284C109.584 25.6117 109.686 26.108 109.891 26.517C110.099 26.9261 110.389 27.2386 110.76 27.4545C111.131 27.6667 111.565 27.7727 112.061 27.7727C112.383 27.7727 112.677 27.7273 112.942 27.6364C113.207 27.5417 113.436 27.4015 113.629 27.2159C113.822 27.0303 113.97 26.8011 114.072 26.5284L115.68 26.8182C115.552 27.2917 115.321 27.7064 114.987 28.0625C114.658 28.4148 114.243 28.6894 113.743 28.8864C113.247 29.0795 112.68 29.1761 112.044 29.1761ZM117.81 29V17.3636H119.509V21.6875H119.611C119.709 21.5057 119.851 21.2955 120.037 21.0568C120.223 20.8182 120.48 20.6098 120.81 20.4318C121.139 20.25 121.575 20.1591 122.116 20.1591C122.821 20.1591 123.45 20.3371 124.003 20.6932C124.556 21.0492 124.99 21.5625 125.304 22.233C125.622 22.9034 125.781 23.7102 125.781 24.6534C125.781 25.5966 125.624 26.4053 125.31 27.0795C124.995 27.75 124.563 28.267 124.014 28.6307C123.465 28.9905 122.838 29.1705 122.134 29.1705C121.603 29.1705 121.17 29.0814 120.832 28.9034C120.499 28.7254 120.238 28.517 120.048 28.2784C119.859 28.0398 119.713 27.8277 119.611 27.642H119.469V29H117.81ZM119.474 24.6364C119.474 25.25 119.563 25.7879 119.741 26.25C119.92 26.7121 120.177 27.0739 120.514 27.3352C120.851 27.5928 121.264 27.7216 121.753 27.7216C122.26 27.7216 122.685 27.5871 123.026 27.3182C123.366 27.0455 123.624 26.6761 123.798 26.2102C123.976 25.7443 124.065 25.2197 124.065 24.6364C124.065 24.0606 123.978 23.5436 123.804 23.0852C123.634 22.6269 123.376 22.2652 123.031 22C122.69 21.7348 122.264 21.6023 121.753 21.6023C121.26 21.6023 120.844 21.7292 120.503 21.983C120.166 22.2367 119.91 22.5909 119.736 23.0455C119.562 23.5 119.474 24.0303 119.474 24.6364ZM134.229 22.4034L132.689 22.6761C132.625 22.4792 132.522 22.2917 132.382 22.1136C132.246 21.9356 132.06 21.7898 131.825 21.6761C131.59 21.5625 131.297 21.5057 130.945 21.5057C130.464 21.5057 130.062 21.6136 129.74 21.8295C129.418 22.0417 129.257 22.3163 129.257 22.6534C129.257 22.9451 129.365 23.1799 129.581 23.358C129.797 23.536 130.145 23.6818 130.626 23.7955L132.013 24.1136C132.816 24.2992 133.414 24.5852 133.808 24.9716C134.202 25.358 134.399 25.8598 134.399 26.4773C134.399 27 134.248 27.4659 133.945 27.875C133.645 28.2803 133.227 28.5985 132.689 28.8295C132.155 29.0606 131.536 29.1761 130.831 29.1761C129.854 29.1761 129.056 28.9678 128.439 28.5511C127.821 28.1307 127.443 27.5341 127.303 26.7614L128.945 26.5114C129.047 26.9394 129.257 27.2633 129.575 27.483C129.893 27.6989 130.308 27.8068 130.82 27.8068C131.376 27.8068 131.821 27.6913 132.155 27.4602C132.488 27.2254 132.655 26.9394 132.655 26.6023C132.655 26.3295 132.553 26.1004 132.348 25.9148C132.147 25.7292 131.839 25.589 131.422 25.4943L129.945 25.1705C129.13 24.9848 128.528 24.6894 128.138 24.2841C127.751 23.8788 127.558 23.3655 127.558 22.7443C127.558 22.2292 127.702 21.7784 127.99 21.392C128.278 21.0057 128.676 20.7045 129.183 20.4886C129.691 20.2689 130.272 20.1591 130.928 20.1591C131.871 20.1591 132.613 20.3636 133.155 20.7727C133.696 21.178 134.054 21.7216 134.229 22.4034ZM136.267 29V20.2727H137.966V29H136.267ZM137.125 18.9261C136.83 18.9261 136.576 18.8277 136.364 18.6307C136.155 18.4299 136.051 18.1913 136.051 17.9148C136.051 17.6345 136.155 17.3958 136.364 17.1989C136.576 16.9981 136.83 16.8977 137.125 16.8977C137.42 16.8977 137.672 16.9981 137.881 17.1989C138.093 17.3958 138.199 17.6345 138.199 17.9148C138.199 18.1913 138.093 18.4299 137.881 18.6307C137.672 18.8277 137.42 18.9261 137.125 18.9261ZM144.325 20.2727V21.6364H139.558V20.2727H144.325ZM140.837 18.1818H142.536V26.4375C142.536 26.767 142.585 27.0152 142.683 27.1818C142.782 27.3447 142.909 27.4564 143.064 27.517C143.223 27.5739 143.395 27.6023 143.581 27.6023C143.717 27.6023 143.837 27.5928 143.939 27.5739C144.041 27.5549 144.121 27.5398 144.178 27.5284L144.484 28.9318C144.386 28.9697 144.246 29.0076 144.064 29.0455C143.882 29.0871 143.655 29.1098 143.382 29.1136C142.935 29.1212 142.518 29.0417 142.132 28.875C141.746 28.7083 141.433 28.4508 141.195 28.1023C140.956 27.7538 140.837 27.3163 140.837 26.7898V18.1818ZM149.872 29.1761C149.012 29.1761 148.272 28.9924 147.651 28.625C147.033 28.2538 146.556 27.733 146.219 27.0625C145.885 26.3883 145.719 25.5985 145.719 24.6932C145.719 23.7992 145.885 23.0114 146.219 22.3295C146.556 21.6477 147.026 21.1155 147.628 20.733C148.234 20.3504 148.942 20.1591 149.753 20.1591C150.245 20.1591 150.723 20.2405 151.185 20.4034C151.647 20.5663 152.062 20.822 152.429 21.1705C152.796 21.5189 153.086 21.9716 153.298 22.5284C153.51 23.0814 153.616 23.7538 153.616 24.5455V25.1477H146.679V23.875H151.952C151.952 23.428 151.861 23.0322 151.679 22.6875C151.497 22.339 151.241 22.0644 150.912 21.8636C150.586 21.6629 150.204 21.5625 149.764 21.5625C149.287 21.5625 148.87 21.6799 148.514 21.9148C148.162 22.1458 147.889 22.4489 147.696 22.8239C147.507 23.1951 147.412 23.5985 147.412 24.0341V25.0284C147.412 25.6117 147.514 26.108 147.719 26.517C147.927 26.9261 148.217 27.2386 148.588 27.4545C148.959 27.6667 149.393 27.7727 149.889 27.7727C150.211 27.7727 150.505 27.7273 150.77 27.6364C151.035 27.5417 151.264 27.4015 151.457 27.2159C151.651 27.0303 151.798 26.8011 151.901 26.5284L153.509 26.8182C153.38 27.2917 153.149 27.7064 152.815 28.0625C152.486 28.4148 152.071 28.6894 151.571 28.8864C151.075 29.0795 150.509 29.1761 149.872 29.1761Z" fill="white"/>
<g clip-path="url(#clip0_804_1477)">
<path d="M10.0319 24.4709C10.3638 31.3494 16.9403 36.8621 25 36.8621C33.0597 36.8621 39.6362 31.3494 39.9681 24.4709C39.9879 24.4276 39.9987 24.3816 40 24.3351C40 24.306 39.9878 24.281 39.9812 24.2543C39.9841 24.146 40 24.0401 40 23.931C40 16.8012 33.2706 11 25 11C16.7294 11 10 16.8012 10 23.931C10 24.0401 10.0159 24.146 10.0187 24.2543C10.0122 24.281 10 24.306 10 24.3351C10 24.3836 10.0141 24.4281 10.0319 24.4709ZM33.3634 29.3799C32.0896 28.924 30.7657 28.5799 29.4119 28.3526C29.56 27.1783 29.6472 25.9588 29.6744 24.74H34.3431C34.2578 26.4001 33.9156 27.9671 33.3634 29.3799ZM35.2797 24.7392H39.0147C38.8494 26.9396 37.9858 29.0586 36.5181 30.8645C35.789 30.4222 35.0186 30.0329 34.2147 29.7007C34.8194 28.1902 35.1916 26.514 35.2797 24.7392ZM21.6147 29.0113C22.7345 28.859 23.8663 28.7817 25 28.7802C26.1475 28.7802 27.2809 28.8626 28.3844 29.0113C27.7338 33.323 26.3125 36.0539 25 36.0539C23.6875 36.0539 22.2662 33.323 21.6147 29.0113ZM23.0387 35.7823C20.4597 35.0695 18.2781 32.9771 16.9619 30.1379C18.1675 29.7032 19.4207 29.3737 20.7025 29.1544C21.1328 31.9798 21.9194 34.4415 23.0387 35.7823ZM21.5069 19.6549C22.6626 19.8101 23.8304 19.8887 25 19.8901C26.1696 19.8887 27.3374 19.8101 28.4931 19.6549C28.6544 20.9642 28.75 22.3931 28.75 23.931H21.25C21.25 22.3931 21.3456 20.9642 21.5069 19.6549ZM28.7359 24.7392C28.7136 25.8977 28.6322 27.0548 28.4922 28.2072C27.3368 28.0519 26.1693 27.9733 25 27.972C23.8304 27.9733 22.6626 28.052 21.5069 28.2072C21.3664 27.0548 21.2851 25.8977 21.2631 24.7392H28.7359ZM29.2984 29.1544C30.6147 29.3823 31.87 29.7136 33.0391 30.1379C31.7228 32.9771 29.5413 35.0695 26.9622 35.7823C28.0806 34.4415 28.8672 31.9798 29.2984 29.1544ZM29.6875 23.931C29.6875 22.4472 29.5919 20.944 29.4119 19.5102C30.7994 19.2742 32.1269 18.9283 33.3634 18.483C34.0047 20.1228 34.375 21.9704 34.375 23.931H29.6875ZM29.2984 18.7077C28.8672 15.8823 28.0816 13.4197 26.9612 12.0797C29.5403 12.7926 31.7219 14.885 33.0381 17.7241C31.833 18.1592 30.5801 18.4887 29.2984 18.7077ZM28.3853 18.8508C27.2809 18.9995 26.1475 19.0819 25 19.0819C23.8525 19.0819 22.7191 18.9995 21.6147 18.8508C22.2662 14.5391 23.6875 11.8082 25 11.8082C26.3125 11.8082 27.7337 14.5391 28.3853 18.8508ZM20.7016 18.7077C19.4198 18.4882 18.1666 18.1587 16.9609 17.7241C18.2772 14.885 20.4587 12.7926 23.0378 12.0797C21.9194 13.4205 21.1328 15.8823 20.7016 18.7077ZM20.5881 19.5102C20.405 20.9786 20.313 22.4543 20.3125 23.931H15.625C15.625 21.9704 15.9953 20.1228 16.6366 18.4822C17.8731 18.9283 19.2006 19.2734 20.5881 19.5102ZM20.3256 24.7392C20.3528 25.958 20.44 27.1775 20.5881 28.3526C19.2006 28.5886 17.8731 28.9345 16.6366 29.3799C16.0844 27.9671 15.7422 26.4001 15.6569 24.7392H20.3256ZM15.7844 29.7007C14.981 30.0332 14.2108 30.4225 13.4819 30.8645C12.0141 29.0586 11.1504 26.9397 10.9853 24.7392H14.7203C14.8084 26.514 15.1806 28.1902 15.7844 29.7007ZM14.0434 31.5119C14.6996 31.1135 15.3914 30.7608 16.1125 30.4572C17.0538 32.4655 18.4084 34.1328 20.0369 35.2602C17.6876 34.493 15.6185 33.199 14.0434 31.5119ZM29.9631 35.2594C31.5925 34.1328 32.9462 32.4647 33.8875 30.4564C34.6281 30.7667 35.3144 31.1239 35.9566 31.511C34.382 33.1987 32.3128 34.4928 29.9631 35.2594ZM35.3125 23.931C35.3125 21.8564 34.9112 19.9006 34.2156 18.1614C35.0406 17.8203 35.8075 17.4283 36.5191 16.9976C38.1749 19.0278 39.0632 21.4492 39.0625 23.931H35.3125ZM35.9575 16.3502C35.3153 16.7373 34.6291 17.0946 33.8884 17.4049C32.9472 15.3966 31.5925 13.7284 29.9641 12.6018C32.3131 13.3695 34.382 14.6634 35.9575 16.3502ZM20.0369 12.6026C18.4075 13.7293 17.0538 15.3974 16.1125 17.4057C15.3915 17.1016 14.6996 16.7487 14.0434 16.3502C15.6183 14.6631 17.6875 13.3693 20.0369 12.6026ZM13.4819 16.9976C14.2107 17.4397 14.9809 17.829 15.7844 18.1614C15.0512 20.0191 14.6805 21.9688 14.6875 23.931H10.9375C10.9375 21.3529 11.8834 18.9647 13.4819 16.9976Z" fill="white"/>
</g>
<defs>
<clipPath id="clip0_804_1477">
<rect width="30" height="25.8621" fill="white" transform="translate(10 11)"/>
</clipPath>
</defs>
</svg>
